<svg xmlns="http://www.w3.org/2000/svg" xmlns:xlink="http://www.w3.org/1999/xlink" version="1.1" id="Layer" x="0px" y="0px" viewBox="0 0 450 450" style="enable-background:new 0 0 450 450;" xml:space="preserve">
<style xmlns="http://www.w3.org/2000/svg" type="text/css">
	.st0{fill:#E3E3E3;}
	.st1{fill:#FFE6BC;}
	.st2{fill:#00aef0;}
	.st3{fill:#CCBFA3;}
	.st4{fill:#FFD999;}
	.st5{fill:#2C94F2;}
	.st6{fill:#2993F2;}
	.st7{fill:#F7F7F7;}
	.st8{fill:#333333;}
	.st9{fill:#4D4D4D;}
	.st10{fill:#D3D3D3;}
	.st11{fill:#F2F2F2;}
	.st12{fill:#999999;}
	.st13{fill:#1A1A1A;}
	.st14{fill:#666666;}
	.st15{fill:#808080;}
	.st16{fill:#FFC673;}
	.st17{fill:url(#SVGID_1_);}
	.st18{fill:url(#SVGID_2_);}
	.st19{fill:url(#SVGID_3_);}
	.st20{fill:#FFE2BF;}
	.st21{fill:url(#SVGID_4_);}
	.st22{fill:url(#SVGID_5_);}
	.st23{fill:#FFE8CC;}
	.st24{fill:url(#SVGID_6_);}
	.st25{fill:url(#SVGID_7_);}
	.st26{fill:url(#SVGID_8_);}
	.st27{fill:url(#SVGID_9_);}
	.st28{fill:url(#SVGID_10_);}
	.st29{fill:url(#SVGID_11_);}
	.st30{fill:url(#SVGID_12_);}
	.st31{fill:url(#SVGID_13_);}
	.st32{fill:url(#SVGID_14_);}
	.st33{fill:url(#SVGID_15_);}
	.st34{fill:url(#SVGID_16_);}
	.st35{fill:url(#SVGID_17_);}
	.st36{fill:url(#SVGID_18_);}
	.st37{fill:url(#SVGID_19_);}
	.st38{fill:url(#SVGID_20_);}
	.st39{fill:#2491E2;}
	.st40{fill:#50B4FF;}
	.st41{fill:#2A93F3;}
	.st42{fill:#BA2F25;}
	.st43{fill:#FF6F66;}
	.st44{fill-rule:evenodd;clip-rule:evenodd;fill:#FFB7B3;}
	.st45{fill:#F2AF4C;}
	.st46{fill:#5D7A40;}
	.st47{fill:url(#SVGID_21_);}
	.st48{fill:url(#SVGID_22_);}
	.st49{fill-rule:evenodd;clip-rule:evenodd;fill:#FFC673;}
	.st50{fill:url(#SVGID_23_);}
	.st51{fill:url(#SVGID_24_);}
</style>
<polygon xmlns="http://www.w3.org/2000/svg" class="st0" points="271.4,154.4 114.5,243.9 250,322.3 237.9,322.3 237.9,335.6 272.9,335.6 429.9,246.2 "/>
<polygon xmlns="http://www.w3.org/2000/svg" class="st1" points="237.8,283.4 90.9,198.4 236.4,115.4 383.3,200.5 "/>
<polygon xmlns="http://www.w3.org/2000/svg" class="st2" points="383.2,201.1 383.2,252.1 237.8,336.3 237.8,284 "/>
<polygon xmlns="http://www.w3.org/2000/svg" class="st3" points="383.2,200.8 383.2,241.2 237.8,325.4 237.8,283.6 "/>
<polygon xmlns="http://www.w3.org/2000/svg" class="st4" points="237.8,335.7 202.6,315 126.1,270 90.9,249.3 90.9,198.4 237.8,283.4 "/>
<polygon xmlns="http://www.w3.org/2000/svg" class="st5" points="202.6,291.4 202.6,315 126.1,270 126.1,247.1 "/>
<polygon xmlns="http://www.w3.org/2000/svg" class="st3" points="90.9,200 90.9,240.5 237.8,325.4 237.9,283.6 "/>
<polygon xmlns="http://www.w3.org/2000/svg" class="st2" points="237.9,277.5 79.4,185.7 236.3,96.3 394.8,188 "/>
<polygon xmlns="http://www.w3.org/2000/svg" class="st2" points="237.9,319.3 237.9,277.5 394.8,188 394.8,228.4 "/>
<polygon xmlns="http://www.w3.org/2000/svg" class="st4" points="79.4,185.7 79.4,226.1 237.9,319.3 237.9,277.5 "/>
<polygon xmlns="http://www.w3.org/2000/svg" class="st5" points="197.7,254.1 197.7,295.6 121.2,250.7 121.2,209.9 "/>
<polygon xmlns="http://www.w3.org/2000/svg" class="st6" points="353.5,164.1 197.5,254.1 121.2,209.9 277.1,119.8 "/>
<path xmlns="http://www.w3.org/2000/svg" class="st7" d="M277.6,203.6c-18.8,10.8-49.4,10.8-68.3-0.1c-18.9-10.9-19-28.6-0.2-39.4c18.8-10.8,49.4-10.8,68.3,0.1  C296.3,175.1,296.3,192.7,277.6,203.6z"/>
<path xmlns="http://www.w3.org/2000/svg" class="st8" d="M209.1,167c18.8-10.8,49.4-10.8,68.3,0.1c8.8,5.1,13.5,11.7,14.1,18.4c0.7-7.6-4-15.4-14.1-21.3  c-18.9-10.9-49.5-11-68.3-0.1c-10,5.8-14.6,13.5-13.9,21C195.8,178.5,200.4,172,209.1,167z"/>
<polygon xmlns="http://www.w3.org/2000/svg" class="st9" points="79.4,185.7 394.8,188 237.9,277.5 "/>
<g xmlns="http://www.w3.org/2000/svg">
	<path class="st3" d="M19.2,302.3l49.3-28.4c1.4-0.8,3.9-0.7,5.5,0.2l7.8,4.5l22.4-12.9c1.4-0.8,3.9-0.7,5.5,0.2l77.2,44.6   c1.6,0.9,1.8,2.4,0.4,3.2l-49.3,28.4c-1.4,0.8-3.9,0.7-5.5-0.2l-7.8-4.5l-22.4,12.9c-1.4,0.8-3.9,0.7-5.5-0.2l-77.2-44.6   C17.9,304.5,17.7,303.1,19.2,302.3z"/>
	<path class="st10" d="M138.1,340.8l49.3-28.4c1.4-0.8,1.2-2.2-0.4-3.2l-77.2-44.6c-1.6-0.9-4.1-1-5.5-0.2l-49.3,28.4   c-1.4,0.8-1.2,2.2,0.4,3.2l77.2,44.6C134.2,341.5,136.7,341.6,138.1,340.8z"/>
	<path class="st11" d="M138.1,340l49.3-28.4c1.4-0.8,1.2-2.2-0.4-3.2l-77.2-44.6c-1.6-0.9-4.1-1-5.5-0.2L54.9,292   c-1.4,0.8-1.2,2.2,0.4,3.2l77.2,44.6C134.2,340.7,136.7,340.8,138.1,340z"/>
	<path class="st9" d="M65.8,297.5c0-0.1,0.1-0.1,0.1-0.2l0,0c0.1-0.3,0.1-0.5-0.1-0.8c0,0,0,0,0-0.1l-0.1-0.1l0.3,0.1   c0,0,0.1,0,0.1,0c0.5,0.1,0.9,0.1,1.4,0h0c0.1,0,0.2,0,0.3,0c0.3,0,0.7,0,0.9,0.1c0,0,0,0,0.1,0l0,0c0.3,0.2,0.3,0.5,0.1,0.7   c0,0,0,0,0,0c0,0-0.1,0.1-0.1,0.1c-0.1,0.1-0.3,0.1-0.5,0.1c0,0-0.1,0-0.3,0.1c0.3,0.1,0.6,0.2,1,0.2c-0.1,0.1-0.7,0.4-0.8,0.5   c0-0.2-0.1-0.4-0.3-0.6c-0.1,0-0.1,0.1-0.1,0.2c0,0.1-0.1,0.2-0.3,0.3c0,0-0.1,0-0.1,0.1c0,0,0,0,0,0c-0.3,0.1-0.8,0.1-1.1,0l0,0   c0,0,0,0-0.1,0C65.8,297.9,65.8,297.7,65.8,297.5z"/>
	<g>
		<path class="st9" d="M62.5,295.9l1.1,1l-0.4,0.2l-4.9-4.4l0.6-0.3l7.7,2.8l-0.4,0.2l-1.7-0.6L62.5,295.9z M59.1,292.8l3.1,2.9    l1.8-1.1L59.1,292.8z"/>
	</g>
	<path class="st10" d="M55.3,295.2l77.2,44.6c1.6,0.9,4.1,1,5.5,0.2l49.3-28.4c0.6-0.4,0.9-0.8,0.9-1.3L54.1,292.8   C53.7,293.5,54.1,294.5,55.3,295.2z"/>
	<polygon class="st3" points="125.9,335.9 125.9,336.7 121.7,334.3 124,334.8  "/>
	<path class="st3" d="M55.3,295.2l70.6,40.7l25.7-14.9c1.4-0.8,1.2-2.2-0.4-3.2l-70.6-40.7L54.9,292   C53.5,292.8,53.7,294.2,55.3,295.2z"/>
	<path class="st10" d="M102.3,347.3l49.3-28.4c1.4-0.8,1.2-2.2-0.4-3.2L74,271.1c-1.6-0.9-4.1-1-5.5-0.2l-49.3,28.4   c-1.4,0.8-1.2,2.2,0.4,3.2l77.2,44.6C98.4,348.1,100.9,348.2,102.3,347.3z"/>
	<path class="st11" d="M102.3,346.5l49.3-28.4c1.4-0.8,1.2-2.2-0.4-3.2L74,270.3c-1.6-0.9-4.1-1-5.5-0.2l-49.3,28.4   c-1.4,0.8-1.2,2.2,0.4,3.2l77.2,44.6C98.4,347.3,100.9,347.4,102.3,346.5z"/>
	<path class="st10" d="M19.6,301.7l77.2,44.6c1.6,0.9,4.1,1,5.5,0.2l49.3-28.4c0.6-0.4,0.9-0.8,0.9-1.3L18.4,299.3   C18,300.1,18.4,301,19.6,301.7z"/>
	<g>
		<g>
			<polygon class="st12" points="64.8,297.7 57.3,303 47.7,303 54.1,283.2 64.8,289.6    "/>
			<g>
				<g>
					<path class="st13" d="M58.3,286.1c0-1-0.6-1.5-0.8-1.6c-0.1-0.1-0.1-0.1-0.2-0.2l-8.7-5c-0.5-0.3-1.5-0.3-2.1,0.1l-8.4,4.8       c-0.1,0.1-0.2,0.1-0.3,0.2l0,0c0,0-0.9,0.4-0.9,1.7l0,0c0,0,0,0,0,0.1v9.7c0,0.7,0.4,1.6,1,1.9l8.7,5c0.1,0,0.1,0.1,0.2,0.1       l0,0c1.1,0.5,1.9-0.1,1.9-0.1l0,0l8.6-5c0.5-0.3,1-1.1,1-1.9L58.3,286.1C58.3,286.1,58.3,286.1,58.3,286.1L58.3,286.1z        M47.6,301.9L47.6,301.9C47.6,302,47.6,302,47.6,301.9L47.6,301.9C47.6,302,47.6,302,47.6,301.9z"/>
					<path class="st14" d="M57.3,284.8C57.3,284.8,57.3,284.8,57.3,284.8c0,0.1-0.1,0.2-0.3,0.4l-8.4,4.8c-0.3,0.2-0.6,0.2-1,0.2       c-0.3,0-0.5-0.1-0.7-0.2l-1.8-1l-7-4c0,0-0.1-0.1-0.1-0.2c0,0,0,0,0,0c0-0.1,0.1-0.2,0.3-0.3l8.4-4.8c0.3-0.2,0.6-0.2,1-0.2       c0.3,0,0.5,0.1,0.7,0.2l8.7,5C57.2,284.7,57.3,284.7,57.3,284.8z"/>
					<path class="st15" d="M57,285l-8.4,4.8c-0.3,0.2-0.6,0.2-1,0.2c-0.3,0-0.5-0.1-0.7-0.2l-1.8-1l-7-4c0,0-0.1,0-0.1-0.1       c0,0,0,0.1,0,0.1c0,0.1,0.1,0.2,0.1,0.2l7,4l1.8,1c0.2,0.1,0.4,0.2,0.7,0.2c0.4,0,0.7-0.1,1-0.2l8.4-4.8       c0.2-0.1,0.3-0.3,0.3-0.4c0,0,0-0.1,0-0.1C57.2,284.8,57.1,284.9,57,285z"/>
					<path class="st9" d="M47,302.4c-0.1,0-0.1,0-0.2-0.1l-8.7-5c-0.4-0.2-0.8-1-0.8-1.5v-9.7c0-0.2,0.1-0.5,0.2-0.5       c0.1,0,0.1,0,0.2,0.1l7,4l1.8,1c0.4,0.2,0.8,1,0.8,1.5v9.7C47.2,302.2,47.2,302.4,47,302.4z"/>
					<path class="st14" d="M46.5,290.7l-1.8-1l-7-4c-0.1,0-0.1-0.1-0.2-0.1c-0.1,0-0.1,0.1-0.2,0.2c0,0,0.1,0,0.2,0.1l7,4l1.8,1       c0.4,0.2,0.8,1,0.8,1.5v9.7c0,0.1,0,0.2,0,0.3c0,0,0,0,0,0c0.1,0,0.2-0.3,0.2-0.5v-9.7C47.2,291.7,46.9,291,46.5,290.7z"/>
					<path class="st8" d="M48.2,302.5c-0.1,0-0.2-0.2-0.2-0.5v-9.7c0-0.6,0.4-1.3,0.8-1.5l0.2-0.1l1.4-0.8l7.1-4.1       c0.1,0,0.1-0.1,0.2-0.1c0.1,0,0.2,0.2,0.2,0.5v9.7c0,0.6-0.4,1.3-0.8,1.5l-8.7,5C48.3,302.4,48.3,302.5,48.2,302.5z"/>
					<path class="st9" d="M48.2,302.1v-9.7c0-0.6,0.4-1.3,0.8-1.5l0.2-0.1l1.4-0.8l7.1-4.1c0.1,0,0.1,0,0.1-0.1       c0-0.1-0.1-0.1-0.1-0.1c-0.1,0-0.1,0-0.2,0.1l-7.1,4.1l-1.4,0.8l-0.2,0.1c-0.4,0.2-0.8,0.9-0.8,1.5v9.7c0,0.2,0.1,0.5,0.2,0.5       c0,0,0,0,0.1,0C48.2,302.4,48.2,302.2,48.2,302.1z"/>
				</g>
				<g>
					<path class="st16" d="M48.9,282c-0.7,0.4-1.8,0.4-2.5,0c-0.7-0.4-0.7-1.1,0-1.5c0.7-0.4,1.8-0.4,2.5,0       C49.6,281,49.6,281.6,48.9,282z"/>
					<linearGradient id="SVGID_1_" gradientUnits="userSpaceOnUse" x1="45.8301" y1="280.8566" x2="49.4" y2="280.8566">
						<stop offset="0.2098" style="stop-color:#FFD199"/>
						<stop offset="0.2134" style="stop-color:#FFE2BF"/>
						<stop offset="0.7262" style="stop-color:#FFE2BF"/>
						<stop offset="0.7264" style="stop-color:#FFF4E6"/>
					</linearGradient>
					<path class="st17" d="M46.3,280.9c0.7-0.4,1.8-0.4,2.5,0c0.3,0.2,0.4,0.4,0.5,0.6c0.1-0.3-0.1-0.6-0.5-0.9       c-0.7-0.4-1.8-0.4-2.5,0c-0.4,0.2-0.6,0.6-0.5,0.9C45.9,281.2,46.1,281,46.3,280.9z"/>
				</g>
				<g>
					<path class="st16" d="M48.9,285.6c-0.7,0.4-1.8,0.4-2.5,0c-0.7-0.4-0.7-1.1,0-1.5c0.7-0.4,1.8-0.4,2.5,0       C49.6,284.5,49.6,285.2,48.9,285.6z"/>
					<linearGradient id="SVGID_2_" gradientUnits="userSpaceOnUse" x1="45.8301" y1="284.4125" x2="49.4" y2="284.4125">
						<stop offset="0.2098" style="stop-color:#FFD199"/>
						<stop offset="0.2134" style="stop-color:#FFE2BF"/>
						<stop offset="0.7262" style="stop-color:#FFE2BF"/>
						<stop offset="0.7264" style="stop-color:#FFF4E6"/>
					</linearGradient>
					<path class="st18" d="M46.3,284.4c0.7-0.4,1.8-0.4,2.5,0c0.3,0.2,0.4,0.4,0.5,0.6c0.1-0.3-0.1-0.6-0.5-0.9       c-0.7-0.4-1.8-0.4-2.5,0c-0.4,0.2-0.6,0.6-0.5,0.9C45.9,284.8,46.1,284.6,46.3,284.4z"/>
				</g>
				<g>
					<path class="st16" d="M48.9,289.1c-0.7,0.4-1.8,0.4-2.5,0c-0.7-0.4-0.7-1.1,0-1.5c0.7-0.4,1.8-0.4,2.5,0       C49.6,288.1,49.6,288.7,48.9,289.1z"/>
					<linearGradient id="SVGID_3_" gradientUnits="userSpaceOnUse" x1="45.8301" y1="287.9683" x2="49.4" y2="287.9683">
						<stop offset="0.2098" style="stop-color:#FFD199"/>
						<stop offset="0.2134" style="stop-color:#FFE2BF"/>
						<stop offset="0.7262" style="stop-color:#FFE2BF"/>
						<stop offset="0.7264" style="stop-color:#FFF4E6"/>
					</linearGradient>
					<path class="st19" d="M46.3,288c0.7-0.4,1.8-0.4,2.5,0c0.3,0.2,0.4,0.4,0.5,0.6c0.1-0.3-0.1-0.6-0.5-0.9       c-0.7-0.4-1.8-0.4-2.5,0c-0.4,0.2-0.6,0.6-0.5,0.9C45.9,288.3,46.1,288.1,46.3,288z"/>
				</g>
				<g>
					<path class="st20" d="M49.2,293.2c0.1-0.8,0.7-1.7,1.5-2.1c0.7-0.3,1.3,0,1.2,0.8c-0.1,0.8-0.7,1.7-1.5,2.1       C49.7,294.4,49.1,294,49.2,293.2z"/>
					
						<linearGradient id="SVGID_4_" gradientUnits="userSpaceOnUse" x1="470.0022" y1="351.4926" x2="473.5719" y2="351.4926" gradientTransform="matrix(-0.5791 0.8153 -0.8153 -0.5791 610.672 111.768)">
						<stop offset="0.2098" style="stop-color:#FFD199"/>
						<stop offset="0.2134" style="stop-color:#FFE8CC"/>
						<stop offset="0.7262" style="stop-color:#FFE8CC"/>
						<stop offset="0.7264" style="stop-color:#FFF4E6"/>
					</linearGradient>
					<path class="st21" d="M51.6,291.8c-0.1,0.8-0.7,1.7-1.5,2.1c-0.3,0.1-0.6,0.2-0.8,0.1c0.2,0.2,0.6,0.3,1,0.1       c0.7-0.3,1.4-1.3,1.5-2.1c0-0.5-0.1-0.8-0.4-0.9C51.6,291.3,51.7,291.5,51.6,291.8z"/>
				</g>
				<g>
					<path class="st20" d="M54.4,296.2c0.1-0.8,0.7-1.7,1.5-2.1c0.7-0.3,1.3,0,1.2,0.8c-0.1,0.8-0.7,1.7-1.5,2.1       C54.9,297.4,54.3,297,54.4,296.2z"/>
					
						<linearGradient id="SVGID_5_" gradientUnits="userSpaceOnUse" x1="469.4254" y1="345.525" x2="472.9951" y2="345.525" gradientTransform="matrix(-0.5791 0.8153 -0.8153 -0.5791 610.672 111.768)">
						<stop offset="0.2098" style="stop-color:#FFD199"/>
						<stop offset="0.2134" style="stop-color:#FFE8CC"/>
						<stop offset="0.7262" style="stop-color:#FFE8CC"/>
						<stop offset="0.7264" style="stop-color:#FFF4E6"/>
					</linearGradient>
					<path class="st22" d="M56.8,294.8c-0.1,0.8-0.7,1.7-1.5,2.1c-0.3,0.1-0.6,0.2-0.8,0.1c0.2,0.2,0.6,0.3,1,0.1       c0.7-0.3,1.4-1.3,1.5-2.1c0-0.5-0.1-0.8-0.4-0.9C56.8,294.2,56.8,294.5,56.8,294.8z"/>
				</g>
				<g>
					<path class="st23" d="M40.6,289.7c-0.1-0.8-0.7-1.7-1.5-2.1c-0.7-0.3-1.3,0-1.2,0.8c0.1,0.8,0.7,1.7,1.5,2.1       C40.2,290.9,40.7,290.5,40.6,289.7z"/>
					
						<linearGradient id="SVGID_6_" gradientUnits="userSpaceOnUse" x1="234.9641" y1="26.69" x2="238.5338" y2="26.69" gradientTransform="matrix(0.5791 0.8153 0.8153 -0.5791 -119.9236 111.768)">
						<stop offset="0.2098" style="stop-color:#FFC57F"/>
						<stop offset="0.2134" style="stop-color:#FFDCB3"/>
						<stop offset="0.7262" style="stop-color:#FFDCB3"/>
						<stop offset="0.7264" style="stop-color:#FFF4E6"/>
					</linearGradient>
					<path class="st24" d="M38.2,288.3c0.1,0.8,0.7,1.7,1.5,2.1c0.3,0.1,0.6,0.2,0.8,0.1c-0.2,0.2-0.6,0.3-1,0.1       c-0.7-0.3-1.4-1.3-1.5-2.1c0-0.5,0.1-0.8,0.4-0.9C38.2,287.7,38.2,288,38.2,288.3z"/>
				</g>
				<g>
					<path class="st23" d="M46.2,293c-0.1-0.8-0.7-1.7-1.5-2.1c-0.7-0.3-1.3,0-1.2,0.8c0.1,0.8,0.7,1.7,1.5,2.1       C45.7,294.1,46.2,293.8,46.2,293z"/>
					
						<linearGradient id="SVGID_7_" gradientUnits="userSpaceOnUse" x1="240.8347" y1="29.3175" x2="244.4043" y2="29.3175" gradientTransform="matrix(0.5791 0.8153 0.8153 -0.5791 -119.9236 111.768)">
						<stop offset="0.2098" style="stop-color:#FFC57F"/>
						<stop offset="0.2134" style="stop-color:#FFDCB3"/>
						<stop offset="0.7262" style="stop-color:#FFDCB3"/>
						<stop offset="0.7264" style="stop-color:#FFF4E6"/>
					</linearGradient>
					<path class="st25" d="M43.7,291.6c0.1,0.8,0.7,1.7,1.5,2.1c0.3,0.1,0.6,0.2,0.8,0.1c-0.2,0.2-0.6,0.3-1,0.1       c-0.7-0.3-1.4-1.3-1.5-2.1c0-0.5,0.1-0.8,0.4-0.9C43.8,291,43.7,291.2,43.7,291.6z"/>
				</g>
				<g>
					<path class="st23" d="M40.6,296.6c-0.1-0.8-0.7-1.7-1.5-2.1c-0.7-0.3-1.3,0-1.2,0.8c0.1,0.8,0.7,1.7,1.5,2.1       C40.2,297.8,40.7,297.4,40.6,296.6z"/>
					
						<linearGradient id="SVGID_8_" gradientUnits="userSpaceOnUse" x1="240.6287" y1="22.6665" x2="244.1985" y2="22.6665" gradientTransform="matrix(0.5791 0.8153 0.8153 -0.5791 -119.9236 111.768)">
						<stop offset="0.2098" style="stop-color:#FFC57F"/>
						<stop offset="0.2134" style="stop-color:#FFDCB3"/>
						<stop offset="0.7262" style="stop-color:#FFDCB3"/>
						<stop offset="0.7264" style="stop-color:#FFF4E6"/>
					</linearGradient>
					<path class="st26" d="M38.2,295.2c0.1,0.8,0.7,1.7,1.5,2.1c0.3,0.1,0.6,0.2,0.8,0.1c-0.2,0.2-0.6,0.3-1,0.1       c-0.7-0.3-1.4-1.3-1.5-2.1c0-0.5,0.1-0.8,0.4-0.9C38.2,294.7,38.2,294.9,38.2,295.2z"/>
				</g>
				<g>
					<path class="st23" d="M46.2,299.9c-0.1-0.8-0.7-1.7-1.5-2.1c-0.7-0.3-1.3,0-1.2,0.8c0.1,0.8,0.7,1.7,1.5,2.1       C45.7,301.1,46.2,300.7,46.2,299.9z"/>
					
						<linearGradient id="SVGID_9_" gradientUnits="userSpaceOnUse" x1="246.4992" y1="25.2939" x2="250.069" y2="25.2939" gradientTransform="matrix(0.5791 0.8153 0.8153 -0.5791 -119.9236 111.768)">
						<stop offset="0.2098" style="stop-color:#FFC57F"/>
						<stop offset="0.2134" style="stop-color:#FFDCB3"/>
						<stop offset="0.7262" style="stop-color:#FFDCB3"/>
						<stop offset="0.7264" style="stop-color:#FFF4E6"/>
					</linearGradient>
					<path class="st27" d="M43.7,298.5c0.1,0.8,0.7,1.7,1.5,2.1c0.3,0.1,0.6,0.2,0.8,0.1c-0.2,0.2-0.6,0.3-1,0.1       c-0.7-0.3-1.4-1.3-1.5-2.1c0-0.5,0.1-0.8,0.4-0.9C43.8,297.9,43.7,298.2,43.7,298.5z"/>
				</g>
				<g>
					<path class="st23" d="M43.4,295c-0.1-0.8-0.7-1.7-1.5-2.1c-0.7-0.3-1.3,0-1.2,0.8c0.1,0.8,0.7,1.7,1.5,2.1       C42.9,296.2,43.5,295.8,43.4,295z"/>
					
						<linearGradient id="SVGID_10_" gradientUnits="userSpaceOnUse" x1="240.8777" y1="25.8883" x2="244.4474" y2="25.8883" gradientTransform="matrix(0.5791 0.8153 0.8153 -0.5791 -119.9236 111.768)">
						<stop offset="0.2098" style="stop-color:#FFC57F"/>
						<stop offset="0.2134" style="stop-color:#FFDCB3"/>
						<stop offset="0.7262" style="stop-color:#FFDCB3"/>
						<stop offset="0.7264" style="stop-color:#FFF4E6"/>
					</linearGradient>
					<path class="st28" d="M41,293.6c0.1,0.8,0.7,1.7,1.5,2.1c0.3,0.1,0.6,0.2,0.8,0.1c-0.2,0.2-0.6,0.3-1,0.1       c-0.7-0.3-1.4-1.3-1.5-2.1c0-0.5,0.1-0.8,0.4-0.9C41,293,40.9,293.3,41,293.6z"/>
				</g>
				<path class="st9" d="M57.3,284.8c0,0.1-0.1,0.2-0.3,0.3l-8.4,4.8c-0.3,0.2-0.6,0.2-1,0.2c-0.3,0-0.5-0.1-0.7-0.2l-1.8-1l-7-4      c0,0-0.1-0.1-0.1-0.2c0,0,0,0,0,0H57.3z"/>
				<path class="st9" d="M47.2,292.3v9.7c0,0.2,0,0.4-0.1,0.5l-9.7-16.7c0,0,0.1,0,0.1,0c0.1,0,0.1,0,0.2,0.1l7,4l1.8,1      C46.9,291,47.2,291.7,47.2,292.3z"/>
				<path class="st9" d="M57.7,285.7l-9.5,16.8c-0.1,0-0.2-0.3-0.2-0.5v-9.7c0-0.6,0.4-1.3,0.8-1.5l0.2-0.1l1.4-0.8l7.1-4.1      C57.6,285.7,57.7,285.7,57.7,285.7z"/>
			</g>
		</g>
		<g>
			<polygon class="st12" points="71,312.1 63.4,317.4 53.9,317.4 60.2,297.6 71,304    "/>
			<g>
				<g>
					<path class="st13" d="M64.5,300.5c0-1-0.6-1.5-0.8-1.6c-0.1-0.1-0.1-0.1-0.2-0.2l-8.7-5c-0.5-0.3-1.5-0.3-2.1,0.1l-8.4,4.8       c-0.1,0.1-0.2,0.1-0.3,0.2l0,0c0,0-0.9,0.4-0.9,1.7l0,0c0,0,0,0,0,0.1v9.7c0,0.7,0.4,1.6,1,1.9l8.7,5c0.1,0,0.1,0.1,0.2,0.1       l0,0c1.1,0.5,1.9-0.1,1.9-0.1l0,0l8.6-5c0.5-0.3,1-1.1,1-1.9L64.5,300.5C64.5,300.5,64.5,300.5,64.5,300.5L64.5,300.5z        M53.8,316.3L53.8,316.3C53.8,316.4,53.8,316.4,53.8,316.3L53.8,316.3C53.8,316.4,53.8,316.3,53.8,316.3z"/>
					<path class="st14" d="M63.4,299.2C63.4,299.2,63.4,299.2,63.4,299.2c0,0.1-0.1,0.2-0.3,0.4l-8.4,4.8c-0.3,0.2-0.6,0.2-1,0.2       c-0.3,0-0.5-0.1-0.7-0.2l-1.8-1l-7-4c0,0-0.1-0.1-0.1-0.2c0,0,0,0,0,0c0-0.1,0.1-0.2,0.3-0.3l8.4-4.8c0.3-0.2,0.6-0.2,1-0.2       c0.3,0,0.5,0.1,0.7,0.2l8.7,5C63.3,299,63.4,299.1,63.4,299.2z"/>
					<path class="st15" d="M63.1,299.4l-8.4,4.8c-0.3,0.2-0.6,0.2-1,0.2c-0.3,0-0.5-0.1-0.7-0.2l-1.8-1l-7-4c0,0-0.1,0-0.1-0.1       c0,0,0,0.1,0,0.1c0,0.1,0.1,0.2,0.1,0.2l7,4l1.8,1c0.2,0.1,0.4,0.2,0.7,0.2c0.4,0,0.7-0.1,1-0.2l8.4-4.8       c0.2-0.1,0.3-0.3,0.3-0.4c0,0,0-0.1,0-0.1C63.4,299.2,63.3,299.3,63.1,299.4z"/>
					<path class="st9" d="M53.2,316.8c-0.1,0-0.1,0-0.2-0.1l-8.7-5c-0.4-0.2-0.8-1-0.8-1.5v-9.7c0-0.2,0.1-0.5,0.2-0.5       c0.1,0,0.1,0,0.2,0.1l7,4l1.8,1c0.4,0.2,0.8,1,0.8,1.5v9.7C53.4,316.6,53.3,316.8,53.2,316.8z"/>
					<path class="st14" d="M52.6,305.1l-1.8-1l-7-4c-0.1,0-0.1-0.1-0.2-0.1c-0.1,0-0.1,0.1-0.2,0.2c0,0,0.1,0,0.2,0.1l7,4l1.8,1       c0.4,0.2,0.8,1,0.8,1.5v9.7c0,0.1,0,0.2,0,0.3c0,0,0,0,0,0c0.1,0,0.2-0.3,0.2-0.5v-9.7C53.4,306.1,53,305.4,52.6,305.1z"/>
					<path class="st8" d="M54.4,316.9c-0.1,0-0.2-0.2-0.2-0.5v-9.7c0-0.6,0.4-1.3,0.8-1.5l0.2-0.1l1.4-0.8l7.1-4.1       c0.1,0,0.1-0.1,0.2-0.1c0.1,0,0.2,0.2,0.2,0.5v9.7c0,0.6-0.4,1.3-0.8,1.5l-8.7,5C54.5,316.8,54.4,316.9,54.4,316.9z"/>
					<path class="st9" d="M54.3,316.5v-9.7c0-0.6,0.4-1.3,0.8-1.5l0.2-0.1l1.4-0.8l7.1-4.1c0.1,0,0.1,0,0.1-0.1       c0-0.1-0.1-0.1-0.1-0.1c-0.1,0-0.1,0-0.2,0.1l-7.1,4.1l-1.4,0.8l-0.2,0.1c-0.4,0.2-0.8,0.9-0.8,1.5v9.7c0,0.2,0.1,0.5,0.2,0.5       c0,0,0,0,0.1,0C54.4,316.8,54.3,316.6,54.3,316.5z"/>
				</g>
				<g>
					<path class="st16" d="M55,296.4c-0.7,0.4-1.8,0.4-2.5,0c-0.7-0.4-0.7-1.1,0-1.5c0.7-0.4,1.8-0.4,2.5,0       C55.7,295.4,55.7,296,55,296.4z"/>
					<linearGradient id="SVGID_11_" gradientUnits="userSpaceOnUse" x1="51.9885" y1="295.2371" x2="55.5583" y2="295.2371">
						<stop offset="0.2098" style="stop-color:#FFD199"/>
						<stop offset="0.2134" style="stop-color:#FFE2BF"/>
						<stop offset="0.7262" style="stop-color:#FFE2BF"/>
						<stop offset="0.7264" style="stop-color:#FFF4E6"/>
					</linearGradient>
					<path class="st29" d="M52.5,295.2c0.7-0.4,1.8-0.4,2.5,0c0.3,0.2,0.4,0.4,0.5,0.6c0.1-0.3-0.1-0.6-0.5-0.9       c-0.7-0.4-1.8-0.4-2.5,0c-0.4,0.2-0.6,0.6-0.5,0.9C52.1,295.6,52.2,295.4,52.5,295.2z"/>
				</g>
				<g>
					<path class="st16" d="M55,300c-0.7,0.4-1.8,0.4-2.5,0c-0.7-0.4-0.7-1.1,0-1.5c0.7-0.4,1.8-0.4,2.5,0       C55.7,298.9,55.7,299.6,55,300z"/>
					<linearGradient id="SVGID_12_" gradientUnits="userSpaceOnUse" x1="51.9885" y1="298.7929" x2="55.5583" y2="298.7929">
						<stop offset="0.2098" style="stop-color:#FFD199"/>
						<stop offset="0.2134" style="stop-color:#FFE2BF"/>
						<stop offset="0.7262" style="stop-color:#FFE2BF"/>
						<stop offset="0.7264" style="stop-color:#FFF4E6"/>
					</linearGradient>
					<path class="st30" d="M52.5,298.8c0.7-0.4,1.8-0.4,2.5,0c0.3,0.2,0.4,0.4,0.5,0.6c0.1-0.3-0.1-0.6-0.5-0.9       c-0.7-0.4-1.8-0.4-2.5,0c-0.4,0.2-0.6,0.6-0.5,0.9C52.1,299.2,52.2,299,52.5,298.8z"/>
				</g>
				<g>
					<path class="st16" d="M55,303.5c-0.7,0.4-1.8,0.4-2.5,0c-0.7-0.4-0.7-1.1,0-1.5c0.7-0.4,1.8-0.4,2.5,0       C55.7,302.5,55.7,303.1,55,303.5z"/>
					<linearGradient id="SVGID_13_" gradientUnits="userSpaceOnUse" x1="51.9885" y1="302.3488" x2="55.5583" y2="302.3488">
						<stop offset="0.2098" style="stop-color:#FFD199"/>
						<stop offset="0.2134" style="stop-color:#FFE2BF"/>
						<stop offset="0.7262" style="stop-color:#FFE2BF"/>
						<stop offset="0.7264" style="stop-color:#FFF4E6"/>
					</linearGradient>
					<path class="st31" d="M52.5,302.4c0.7-0.4,1.8-0.4,2.5,0c0.3,0.2,0.4,0.4,0.5,0.6c0.1-0.3-0.1-0.6-0.5-0.9       c-0.7-0.4-1.8-0.4-2.5,0c-0.4,0.2-0.6,0.6-0.5,0.9C52.1,302.7,52.2,302.5,52.5,302.4z"/>
				</g>
				<g>
					<path class="st20" d="M54.9,307.4c0.1-0.8,0.7-1.7,1.5-2.1c0.7-0.3,1.3,0,1.2,0.8c-0.1,0.8-0.7,1.7-1.5,2.1       C55.4,308.6,54.9,308.2,54.9,307.4z"/>
					
						<linearGradient id="SVGID_14_" gradientUnits="userSpaceOnUse" x1="478.224" y1="338.6082" x2="481.7937" y2="338.6082" gradientTransform="matrix(-0.5791 0.8153 -0.8153 -0.5791 610.672 111.768)">
						<stop offset="0.2098" style="stop-color:#FFD199"/>
						<stop offset="0.2134" style="stop-color:#FFE8CC"/>
						<stop offset="0.7262" style="stop-color:#FFE8CC"/>
						<stop offset="0.7264" style="stop-color:#FFF4E6"/>
					</linearGradient>
					<path class="st32" d="M57.4,306c-0.1,0.8-0.7,1.7-1.5,2.1c-0.3,0.1-0.6,0.2-0.8,0.1c0.2,0.2,0.6,0.3,1,0.1       c0.7-0.3,1.4-1.3,1.5-2.1c0-0.5-0.1-0.8-0.4-0.9C57.3,305.4,57.4,305.7,57.4,306z"/>
				</g>
				<g>
					<path class="st20" d="M60.8,310.6c0.1-0.8,0.7-1.7,1.5-2.1c0.7-0.3,1.3,0,1.2,0.8c-0.1,0.8-0.7,1.7-1.5,2.1       C61.2,311.8,60.7,311.4,60.8,310.6z"/>
					
						<linearGradient id="SVGID_15_" gradientUnits="userSpaceOnUse" x1="477.4769" y1="331.9838" x2="481.0465" y2="331.9838" gradientTransform="matrix(-0.5791 0.8153 -0.8153 -0.5791 610.672 111.768)">
						<stop offset="0.2098" style="stop-color:#FFD199"/>
						<stop offset="0.2134" style="stop-color:#FFE8CC"/>
						<stop offset="0.7262" style="stop-color:#FFE8CC"/>
						<stop offset="0.7264" style="stop-color:#FFF4E6"/>
					</linearGradient>
					<path class="st33" d="M63.2,309.2c-0.1,0.8-0.7,1.7-1.5,2.1c-0.3,0.1-0.6,0.2-0.8,0.1c0.2,0.2,0.6,0.3,1,0.1       c0.7-0.3,1.4-1.3,1.5-2.1c0-0.5-0.1-0.8-0.4-0.9C63.2,308.6,63.2,308.9,63.2,309.2z"/>
				</g>
				<g>
					<path class="st20" d="M57.9,309.2c0.1-0.8,0.7-1.7,1.5-2.1c0.7-0.3,1.3,0,1.2,0.8c-0.1,0.8-0.7,1.7-1.5,2.1       C58.4,310.4,57.9,310,57.9,309.2z"/>
					
						<linearGradient id="SVGID_16_" gradientUnits="userSpaceOnUse" x1="477.9497" y1="335.13" x2="481.5192" y2="335.13" gradientTransform="matrix(-0.5791 0.8153 -0.8153 -0.5791 610.672 111.768)">
						<stop offset="0.2098" style="stop-color:#FFD199"/>
						<stop offset="0.2134" style="stop-color:#FFE8CC"/>
						<stop offset="0.7262" style="stop-color:#FFE8CC"/>
						<stop offset="0.7264" style="stop-color:#FFF4E6"/>
					</linearGradient>
					<path class="st34" d="M60.4,307.8c-0.1,0.8-0.7,1.7-1.5,2.1c-0.3,0.1-0.6,0.2-0.8,0.1c0.2,0.2,0.6,0.3,1,0.1       c0.7-0.3,1.4-1.3,1.5-2.1c0-0.5-0.1-0.8-0.4-0.9C60.3,307.2,60.4,307.5,60.4,307.8z"/>
				</g>
				<g>
					<path class="st23" d="M46.8,304.1c-0.1-0.8-0.7-1.7-1.5-2.1c-0.7-0.3-1.3,0-1.2,0.8c0.1,0.8,0.7,1.7,1.5,2.1       C46.3,305.2,46.9,304.9,46.8,304.1z"/>
					
						<linearGradient id="SVGID_17_" gradientUnits="userSpaceOnUse" x1="250.2536" y1="23.3834" x2="253.8233" y2="23.3834" gradientTransform="matrix(0.5791 0.8153 0.8153 -0.5791 -119.9236 111.768)">
						<stop offset="0.2098" style="stop-color:#FFC57F"/>
						<stop offset="0.2134" style="stop-color:#FFDCB3"/>
						<stop offset="0.7262" style="stop-color:#FFDCB3"/>
						<stop offset="0.7264" style="stop-color:#FFF4E6"/>
					</linearGradient>
					<path class="st35" d="M44.4,302.7c0.1,0.8,0.7,1.7,1.5,2.1c0.3,0.1,0.6,0.2,0.8,0.1c-0.2,0.2-0.6,0.3-1,0.1       c-0.7-0.3-1.4-1.3-1.5-2.1c0-0.5,0.1-0.8,0.4-0.9C44.4,302.1,44.3,302.4,44.4,302.7z"/>
				</g>
				<g>
					<path class="st23" d="M52.3,307.3c-0.1-0.8-0.7-1.7-1.5-2.1c-0.7-0.3-1.3,0-1.2,0.8c0.1,0.8,0.7,1.7,1.5,2.1       C51.9,308.5,52.4,308.1,52.3,307.3z"/>
					
						<linearGradient id="SVGID_18_" gradientUnits="userSpaceOnUse" x1="256.1241" y1="26.0109" x2="259.694" y2="26.0109" gradientTransform="matrix(0.5791 0.8153 0.8153 -0.5791 -119.9236 111.768)">
						<stop offset="0.2098" style="stop-color:#FFC57F"/>
						<stop offset="0.2134" style="stop-color:#FFDCB3"/>
						<stop offset="0.7262" style="stop-color:#FFDCB3"/>
						<stop offset="0.7264" style="stop-color:#FFF4E6"/>
					</linearGradient>
					<path class="st36" d="M49.9,305.9c0.1,0.8,0.7,1.7,1.5,2.1c0.3,0.1,0.6,0.2,0.8,0.1c-0.2,0.2-0.6,0.3-1,0.1       c-0.7-0.3-1.4-1.3-1.5-2.1c0-0.5,0.1-0.8,0.4-0.9C49.9,305.4,49.9,305.6,49.9,305.9z"/>
				</g>
				<g>
					<path class="st23" d="M46.8,311c-0.1-0.8-0.7-1.7-1.5-2.1c-0.7-0.3-1.3,0-1.2,0.8c0.1,0.8,0.7,1.7,1.5,2.1       C46.3,312.2,46.9,311.8,46.8,311z"/>
					
						<linearGradient id="SVGID_19_" gradientUnits="userSpaceOnUse" x1="255.9183" y1="19.3599" x2="259.4879" y2="19.3599" gradientTransform="matrix(0.5791 0.8153 0.8153 -0.5791 -119.9236 111.768)">
						<stop offset="0.2098" style="stop-color:#FFC57F"/>
						<stop offset="0.2134" style="stop-color:#FFDCB3"/>
						<stop offset="0.7262" style="stop-color:#FFDCB3"/>
						<stop offset="0.7264" style="stop-color:#FFF4E6"/>
					</linearGradient>
					<path class="st37" d="M44.4,309.6c0.1,0.8,0.7,1.7,1.5,2.1c0.3,0.1,0.6,0.2,0.8,0.1c-0.2,0.2-0.6,0.3-1,0.1       c-0.7-0.3-1.4-1.3-1.5-2.1c0-0.5,0.1-0.8,0.4-0.9C44.4,309.1,44.3,309.3,44.4,309.6z"/>
				</g>
				<g>
					<path class="st23" d="M52.3,314.3c-0.1-0.8-0.7-1.7-1.5-2.1c-0.7-0.3-1.3,0-1.2,0.8c0.1,0.8,0.7,1.7,1.5,2.1       C51.9,315.5,52.4,315.1,52.3,314.3z"/>
					
						<linearGradient id="SVGID_20_" gradientUnits="userSpaceOnUse" x1="261.7888" y1="21.9874" x2="265.3586" y2="21.9874" gradientTransform="matrix(0.5791 0.8153 0.8153 -0.5791 -119.9236 111.768)">
						<stop offset="0.2098" style="stop-color:#FFC57F"/>
						<stop offset="0.2134" style="stop-color:#FFDCB3"/>
						<stop offset="0.7262" style="stop-color:#FFDCB3"/>
						<stop offset="0.7264" style="stop-color:#FFF4E6"/>
					</linearGradient>
					<path class="st38" d="M49.9,312.9c0.1,0.8,0.7,1.7,1.5,2.1c0.3,0.1,0.6,0.2,0.8,0.1c-0.2,0.2-0.6,0.3-1,0.1       c-0.7-0.3-1.4-1.3-1.5-2.1c0-0.5,0.1-0.8,0.4-0.9C49.9,312.3,49.9,312.6,49.9,312.9z"/>
				</g>
				<path class="st9" d="M63.4,299.2c0,0.1-0.1,0.2-0.3,0.3l-8.4,4.8c-0.3,0.2-0.6,0.2-1,0.2c-0.3,0-0.5-0.1-0.7-0.2l-1.8-1l-7-4      c0,0-0.1-0.1-0.1-0.2c0,0,0,0,0,0H63.4z"/>
				<path class="st9" d="M53.4,306.7v9.7c0,0.2,0,0.4-0.1,0.5L43.6,300c0,0,0.1,0,0.1,0c0.1,0,0.1,0,0.2,0.1l7,4l1.8,1      C53,305.4,53.4,306.1,53.4,306.7z"/>
				<path class="st9" d="M63.9,300.1l-9.5,16.8c-0.1,0-0.2-0.3-0.2-0.5v-9.7c0-0.6,0.4-1.3,0.8-1.5l0.2-0.1l1.4-0.8l7.1-4.1      C63.7,300.1,63.8,300.1,63.9,300.1z"/>
			</g>
		</g>
	</g>
	<path class="st39" d="M88,308.2c0,0.1,0,0.2,0,0.3L88,308.2L88,308.2z"/>
	<path class="st40" d="M88,308.2L88,308.2c0,0,0-0.1,0-0.1C88,308.1,88,308.2,88,308.2z"/>
</g>
<g xmlns="http://www.w3.org/2000/svg">
	<path class="st3" d="M371.2,291.3c-10.2,5.9-26.8,5.9-37-0.1c-5.4-3.1-7.9-7.2-7.7-11.2c0.2-3.7,2.7-7.3,7.6-10.1   c10.2-5.9,26.8-5.9,37,0.1c4.8,2.8,7.4,6.4,7.7,10.1C379.1,284.1,376.6,288.2,371.2,291.3z"/>
	<path class="st39" d="M371.6,276.5h-1.4c-1.2-2-3.2-3.9-5.9-5.5c-9.7-5.6-25.3-5.6-34.9-0.1c-2.8,1.6-4.8,3.5-5.9,5.5h-1.3v4.4h0   c0.1,3.6,2.5,7.1,7.3,9.9c9.7,5.6,25.3,5.6,34.9,0.1c4.8-2.7,7.1-6.3,7.2-10h0V276.5z"/>
	<path class="st41" d="M364.4,287c-9.6,5.5-25.2,5.5-34.9-0.1c-9.7-5.6-9.7-14.6-0.1-20.1c9.6-5.5,25.2-5.5,34.9,0.1   C374,272.4,374,281.5,364.4,287z"/>
	<path class="st42" d="M358.9,283.8c-6.6,3.8-17.3,3.8-24,0c-6.6-3.8-6.7-10-0.1-13.8c6.6-3.8,17.3-3.8,24,0   C365.5,273.8,365.5,280,358.9,283.8z"/>
	<path class="st39" d="M334.9,271.6c6.6-3.8,17.3-3.8,24,0c3,1.7,4.6,3.9,4.9,6.2c0.4-2.8-1.2-5.7-4.9-7.8c-6.6-3.8-17.4-3.9-24,0   c-3.6,2.1-5.3,4.9-4.9,7.7C330.4,275.4,332,273.3,334.9,271.6z"/>
	<path class="st40" d="M364.4,286.2c-9.6,5.5-25.2,5.5-34.9-0.1c-4.7-2.7-7.1-6.2-7.3-9.7c-0.2,3.8,2.2,7.6,7.3,10.6   c9.7,5.6,25.3,5.6,34.9,0.1c5-2.9,7.3-6.7,7.2-10.4C371.4,280.1,369,283.5,364.4,286.2z"/>
	<g>
		<path class="st39" d="M362.8,276.9v2.8c0,0.2,0,0.4,0,0.6c-0.8,1.3-2.1,2.4-3.9,3.5c-6.6,3.8-17.3,3.8-24-0.1    c-1.8-1-3.1-2.2-3.9-3.5c0-0.2-0.1-0.4-0.1-0.5v-2.8h0.8c0.8-1.3,2-2.5,3.8-3.6c6.2-3.6,16.3-3.6,22.5,0c1.8,1,3.1,2.2,3.8,3.5    H362.8z"/>
		<path class="st43" d="M358.2,283.7c-6.2,3.6-16.3,3.6-22.5,0c-6.2-3.6-6.3-9.4-0.1-13c6.2-3.6,16.3-3.6,22.5,0    C364.4,274.3,364.4,280.1,358.2,283.7z"/>
		<path class="st40" d="M358.2,283.2c-6.2,3.6-16.3,3.6-22.5,0c-3-1.7-4.6-4-4.7-6.3c-0.1,2.5,1.4,4.9,4.7,6.8    c6.2,3.6,16.3,3.6,22.5,0c3.2-1.9,4.7-4.3,4.6-6.7C362.7,279.2,361.2,281.5,358.2,283.2z"/>
	</g>
	<g>
		<g>
			<path class="st44" d="M352.7,284.8l-0.2-0.7c-0.4,0.1-0.8,0.2-1.2,0.3l0.1,0.7C351.9,285,352.3,285,352.7,284.8z"/>
			<path class="st44" d="M354.8,284.2l-0.2-0.7c-0.4,0.1-0.8,0.3-1.1,0.4l0.2,0.7C354,284.5,354.4,284.3,354.8,284.2z"/>
			<path class="st44" d="M356.9,283.3l-0.3-0.6c-0.4,0.2-0.7,0.4-1.1,0.5l0.3,0.7C356.1,283.7,356.5,283.5,356.9,283.3z"/>
		</g>
		<g>
			<path class="st44" d="M346,285.5l0-0.7c-0.4,0-0.8,0-1.2-0.1l-0.1,0.7C345.2,285.4,345.6,285.5,346,285.5z"/>
			<polygon class="st44" points="348.2,285.5 348.2,284.8 347,284.8 347,285.5    "/>
			<path class="st44" d="M350.5,285.3l-0.1-0.7c-0.4,0.1-0.8,0.1-1.2,0.1l0.1,0.7C349.6,285.4,350.1,285.3,350.5,285.3z"/>
		</g>
		<g>
			<path class="st44" d="M339.4,284.3l0.2-0.7c-0.4-0.1-0.8-0.3-1.1-0.4l-0.3,0.7C338.7,284,339,284.2,339.4,284.3z"/>
			<path class="st44" d="M341.6,284.9l0.2-0.7c-0.4-0.1-0.8-0.2-1.2-0.3l-0.2,0.7C340.8,284.7,341.2,284.8,341.6,284.9z"/>
			<path class="st44" d="M343.8,285.3l0.1-0.7c-0.4-0.1-0.8-0.1-1.2-0.2l-0.1,0.7C343,285.2,343.4,285.2,343.8,285.3z"/>
		</g>
		<g>
			<path class="st44" d="M333.8,280.7l0.5-0.5c-0.2-0.3-0.5-0.6-0.7-0.9l-0.6,0.4C333.2,280.1,333.5,280.4,333.8,280.7z"/>
			<path class="st44" d="M335.4,282.3l0.4-0.6c-0.3-0.3-0.6-0.5-0.9-0.7l-0.5,0.5C334.8,281.8,335.1,282,335.4,282.3z"/>
			<path class="st44" d="M337.4,283.4l0.3-0.6c-0.3-0.2-0.7-0.4-1-0.6l-0.4,0.6C336.6,283.1,337,283.2,337.4,283.4z"/>
		</g>
		<g>
			<path class="st44" d="M332.8,274.3l0.6,0.3c0.2-0.3,0.4-0.7,0.6-1l-0.6-0.4C333.3,273.6,333.1,273.9,332.8,274.3z"/>
			<path class="st44" d="M332.2,276.5l0.7,0c0-0.4,0.1-0.7,0.2-1.1l-0.7-0.2C332.3,275.7,332.2,276.1,332.2,276.5z"/>
			<path class="st44" d="M332.6,278.8l0.7-0.3c-0.1-0.3-0.2-0.7-0.3-1.1l-0.7,0.1C332.3,278,332.4,278.4,332.6,278.8z"/>
		</g>
		<g>
			<path class="st44" d="M338,270l0.3,0.7c0.4-0.1,0.7-0.3,1.1-0.4l-0.2-0.7C338.7,269.7,338.4,269.9,338,270z"/>
			<path class="st44" d="M336,271.1l0.4,0.6c0.3-0.2,0.7-0.4,1-0.6l-0.3-0.6C336.7,270.6,336.3,270.8,336,271.1z"/>
			<path class="st44" d="M334.2,272.5l0.5,0.5c0.3-0.3,0.6-0.5,0.9-0.8l-0.4-0.6C334.8,271.9,334.5,272.2,334.2,272.5z"/>
		</g>
		<g>
			<path class="st44" d="M344.5,268.4l0.1,0.7c0.4,0,0.8-0.1,1.2-0.1l0-0.7C345.3,268.3,344.9,268.4,344.5,268.4z"/>
			<path class="st44" d="M342.2,268.7l0.1,0.7c0.4-0.1,0.8-0.1,1.2-0.2l-0.1-0.7C343.1,268.6,342.7,268.6,342.2,268.7z"/>
			<polygon class="st44" points="340.1,269.2 340.3,269.9 341.5,269.6 341.3,268.9    "/>
		</g>
		<g>
			<polygon class="st44" points="351.1,268.7 351,269.4 352.2,269.6 352.4,268.9    "/>
			<path class="st44" d="M348.9,268.4l-0.1,0.7c0.4,0,0.8,0.1,1.2,0.1l0.1-0.7C349.8,268.4,349.3,268.4,348.9,268.4z"/>
			<path class="st44" d="M346.7,268.3l0,0.7c0.4,0,0.8,0,1.2,0l0-0.7C347.5,268.3,347.1,268.3,346.7,268.3z"/>
		</g>
		<g>
			<path class="st44" d="M357.4,270.9l-0.4,0.6c0.3,0.2,0.7,0.4,1,0.7l0.4-0.6C358.2,271.3,357.8,271.1,357.4,270.9z"/>
			<path class="st44" d="M355.4,269.9l-0.3,0.7c0.4,0.2,0.7,0.3,1.1,0.5l0.3-0.6C356.2,270.2,355.8,270.1,355.4,269.9z"/>
			<path class="st44" d="M353.3,269.2l-0.2,0.7c0.4,0.1,0.8,0.2,1.1,0.4l0.2-0.7C354.1,269.4,353.7,269.3,353.3,269.2z"/>
		</g>
		<g>
			<path class="st44" d="M361.6,276.1l-0.7,0.1c0,0.4,0.1,0.7,0,1.1l0.7,0.1C361.7,277,361.6,276.6,361.6,276.1z"/>
			<path class="st44" d="M360.7,274l-0.6,0.4c0.2,0.3,0.4,0.7,0.5,1l0.7-0.2C361.1,274.7,361,274.3,360.7,274z"/>
			<path class="st44" d="M359.3,272.3l-0.5,0.5c0.3,0.3,0.6,0.5,0.8,0.8l0.6-0.5C359.9,272.8,359.6,272.6,359.3,272.3z"/>
		</g>
		<g>
			<path class="st44" d="M358.8,282.1l-0.4-0.6c-0.3,0.3-0.6,0.5-1,0.7l0.4,0.6C358.1,282.6,358.4,282.3,358.8,282.1z"/>
			<path class="st44" d="M360.4,280.5l-0.6-0.4c-0.2,0.3-0.5,0.6-0.8,0.9l0.5,0.5C359.8,281.1,360.1,280.8,360.4,280.5z"/>
			<path class="st44" d="M361.4,278.4l-0.7-0.2c-0.1,0.4-0.3,0.7-0.4,1l0.6,0.3C361.1,279.2,361.3,278.8,361.4,278.4z"/>
		</g>
	</g>
	<path class="st39" d="M374.8,271.6h-1.4c-1.2-2-3.2-3.9-5.9-5.5c-9.7-5.6-25.3-5.6-34.9-0.1c-2.8,1.6-4.8,3.5-5.9,5.5h-1.3v4.4h0   c0.1,3.6,2.5,7.1,7.3,9.9c9.7,5.6,25.3,5.6,34.9,0.1c4.8-2.7,7.1-6.3,7.2-10h0V271.6z"/>
	<path class="st41" d="M367.7,282.1c-9.6,5.5-25.2,5.5-34.9-0.1c-9.7-5.6-9.7-14.6-0.1-20.1c9.6-5.5,25.2-5.5,34.9,0.1   C377.2,267.6,377.3,276.6,367.7,282.1z"/>
	<path class="st42" d="M362.2,279c-6.6,3.8-17.3,3.8-24,0c-6.6-3.8-6.7-10-0.1-13.8c6.6-3.8,17.3-3.8,24,0   C368.8,269,368.8,275.1,362.2,279z"/>
	<path class="st39" d="M338.1,266.7c6.6-3.8,17.3-3.8,24,0c3,1.7,4.6,3.9,4.9,6.2c0.4-2.8-1.2-5.7-4.9-7.8c-6.6-3.8-17.4-3.9-24,0   c-3.6,2.1-5.3,4.9-4.9,7.7C333.6,270.6,335.2,268.4,338.1,266.7z"/>
	<path class="st40" d="M367.7,281.3c-9.6,5.5-25.2,5.5-34.9-0.1c-4.7-2.7-7.1-6.2-7.3-9.7c-0.2,3.8,2.2,7.6,7.3,10.6   c9.7,5.6,25.3,5.6,34.9,0.1c5-2.9,7.3-6.7,7.2-10.4C374.6,275.2,372.2,278.6,367.7,281.3z"/>
	<g>
		<path class="st39" d="M366.1,272v2.8c0,0.2,0,0.4,0,0.6c-0.8,1.3-2.1,2.4-3.9,3.5c-6.6,3.8-17.3,3.8-24-0.1    c-1.8-1-3.1-2.2-3.9-3.5c0-0.2-0.1-0.4-0.1-0.5V272h0.8c0.8-1.3,2-2.5,3.8-3.6c6.2-3.6,16.3-3.6,22.5,0c1.8,1,3.1,2.2,3.8,3.5    H366.1z"/>
		<path class="st43" d="M361.5,278.8c-6.2,3.6-16.3,3.6-22.5,0c-6.2-3.6-6.3-9.4-0.1-13c6.2-3.6,16.3-3.6,22.5,0    C367.6,269.4,367.7,275.2,361.5,278.8z"/>
		<path class="st40" d="M361.5,278.3c-6.2,3.6-16.3,3.6-22.5,0c-3-1.7-4.6-4-4.7-6.3c-0.1,2.5,1.4,4.9,4.7,6.8    c6.2,3.6,16.3,3.6,22.5,0c3.2-1.9,4.7-4.3,4.6-6.7C366,274.3,364.4,276.6,361.5,278.3z"/>
	</g>
	<g>
		<g>
			<path class="st44" d="M355.9,280l-0.2-0.7c-0.4,0.1-0.8,0.2-1.2,0.3l0.1,0.7C355.1,280.1,355.5,280.1,355.9,280z"/>
			<path class="st44" d="M358.1,279.3l-0.2-0.7c-0.4,0.1-0.8,0.3-1.1,0.4l0.2,0.7C357.3,279.6,357.7,279.4,358.1,279.3z"/>
			<path class="st44" d="M360.1,278.4l-0.3-0.6c-0.4,0.2-0.7,0.4-1.1,0.5l0.3,0.7C359.4,278.8,359.7,278.6,360.1,278.4z"/>
		</g>
		<g>
			<path class="st44" d="M349.3,280.6l0-0.7c-0.4,0-0.8,0-1.2-0.1l-0.1,0.7C348.4,280.6,348.9,280.6,349.3,280.6z"/>
			<polygon class="st44" points="351.5,280.6 351.5,279.9 350.3,279.9 350.3,280.6    "/>
			<path class="st44" d="M353.7,280.4l-0.1-0.7c-0.4,0.1-0.8,0.1-1.2,0.1l0.1,0.7C352.9,280.5,353.3,280.4,353.7,280.4z"/>
		</g>
		<g>
			<path class="st44" d="M342.7,279.4l0.2-0.7c-0.4-0.1-0.8-0.3-1.1-0.4l-0.3,0.7C341.9,279.1,342.3,279.3,342.7,279.4z"/>
			<path class="st44" d="M344.8,280l0.2-0.7c-0.4-0.1-0.8-0.2-1.2-0.3l-0.2,0.7C344,279.8,344.4,279.9,344.8,280z"/>
			<path class="st44" d="M347,280.4l0.1-0.7c-0.4-0.1-0.8-0.1-1.2-0.2l-0.1,0.7C346.2,280.3,346.6,280.4,347,280.4z"/>
		</g>
		<g>
			<path class="st44" d="M337,275.9l0.5-0.5c-0.2-0.3-0.5-0.6-0.7-0.9l-0.6,0.4C336.5,275.2,336.7,275.5,337,275.9z"/>
			<path class="st44" d="M338.7,277.4l0.4-0.6c-0.3-0.3-0.6-0.5-0.9-0.7l-0.5,0.5C338,276.9,338.4,277.1,338.7,277.4z"/>
			<path class="st44" d="M340.6,278.5l0.3-0.6c-0.3-0.2-0.7-0.4-1-0.6l-0.4,0.6C339.9,278.2,340.2,278.3,340.6,278.5z"/>
		</g>
		<g>
			<path class="st44" d="M336.1,269.4l0.6,0.3c0.2-0.3,0.4-0.7,0.6-1l-0.6-0.4C336.5,268.7,336.3,269.1,336.1,269.4z"/>
			<path class="st44" d="M335.5,271.6l0.7,0c0-0.4,0.1-0.7,0.2-1.1l-0.7-0.2C335.6,270.8,335.5,271.2,335.5,271.6z"/>
			<path class="st44" d="M335.8,273.9l0.7-0.3c-0.1-0.3-0.2-0.7-0.3-1.1l-0.7,0.1C335.6,273.1,335.6,273.5,335.8,273.9z"/>
		</g>
		<g>
			<path class="st44" d="M341.2,265.1l0.3,0.7c0.4-0.1,0.7-0.3,1.1-0.4l-0.2-0.7C342,264.8,341.6,265,341.2,265.1z"/>
			<path class="st44" d="M339.2,266.2l0.4,0.6c0.3-0.2,0.7-0.4,1-0.6l-0.3-0.6C339.9,265.8,339.6,266,339.2,266.2z"/>
			<path class="st44" d="M337.5,267.6l0.5,0.5c0.3-0.3,0.6-0.5,0.9-0.8l-0.4-0.6C338.1,267,337.8,267.3,337.5,267.6z"/>
		</g>
		<g>
			<path class="st44" d="M347.7,263.5l0.1,0.7c0.4,0,0.8-0.1,1.2-0.1l0-0.7C348.5,263.4,348.1,263.5,347.7,263.5z"/>
			<path class="st44" d="M345.5,263.8l0.1,0.7c0.4-0.1,0.8-0.1,1.2-0.2l-0.1-0.7C346.3,263.7,345.9,263.7,345.5,263.8z"/>
			<polygon class="st44" points="343.3,264.4 343.5,265 344.7,264.7 344.5,264    "/>
		</g>
		<g>
			<polygon class="st44" points="354.4,263.8 354.3,264.5 355.5,264.7 355.6,264    "/>
			<path class="st44" d="M352.2,263.5l-0.1,0.7c0.4,0,0.8,0.1,1.2,0.1l0.1-0.7C353,263.6,352.6,263.5,352.2,263.5z"/>
			<path class="st44" d="M350,263.4l0,0.7c0.4,0,0.8,0,1.2,0l0-0.7C350.8,263.4,350.4,263.4,350,263.4z"/>
		</g>
		<g>
			<path class="st44" d="M360.7,266l-0.4,0.6c0.3,0.2,0.7,0.4,1,0.7l0.4-0.6C361.4,266.5,361,266.3,360.7,266z"/>
			<path class="st44" d="M358.7,265l-0.3,0.7c0.4,0.2,0.7,0.3,1.1,0.5l0.3-0.6C359.5,265.3,359.1,265.2,358.7,265z"/>
			<path class="st44" d="M356.6,264.3l-0.2,0.7c0.4,0.1,0.8,0.2,1.1,0.4l0.2-0.7C357.4,264.5,357,264.4,356.6,264.3z"/>
		</g>
		<g>
			<path class="st44" d="M364.8,271.2l-0.7,0.1c0,0.4,0.1,0.7,0,1.1l0.7,0.1C364.9,272.1,364.9,271.7,364.8,271.2z"/>
			<path class="st44" d="M364,269.1l-0.6,0.4c0.2,0.3,0.4,0.7,0.5,1l0.7-0.2C364.4,269.8,364.2,269.5,364,269.1z"/>
			<path class="st44" d="M362.5,267.4l-0.5,0.5c0.3,0.3,0.6,0.5,0.8,0.8l0.6-0.5C363.2,267.9,362.8,267.7,362.5,267.4z"/>
		</g>
		<g>
			<path class="st44" d="M362,277.2l-0.4-0.6c-0.3,0.3-0.6,0.5-1,0.7l0.4,0.6C361.3,277.7,361.7,277.4,362,277.2z"/>
			<path class="st44" d="M363.6,275.6l-0.6-0.4c-0.2,0.3-0.5,0.6-0.8,0.9l0.5,0.5C363.1,276.2,363.4,275.9,363.6,275.6z"/>
			<path class="st44" d="M364.7,273.6l-0.7-0.2c-0.1,0.4-0.3,0.7-0.4,1l0.6,0.3C364.4,274.4,364.5,274,364.7,273.6z"/>
		</g>
	</g>
	<path class="st39" d="M371.4,266.4H370c-1.2-2-3.2-3.9-5.9-5.5c-9.7-5.6-25.3-5.6-34.9-0.1c-2.8,1.6-4.8,3.5-5.9,5.5H322v4.4h0   c0.1,3.6,2.5,7.1,7.3,9.9c9.7,5.6,25.3,5.6,34.9,0.1c4.8-2.7,7.1-6.3,7.2-10h0V266.4z"/>
	<path class="st41" d="M364.2,276.9c-9.6,5.5-25.2,5.5-34.9-0.1c-9.7-5.6-9.7-14.6-0.1-20.1c9.6-5.5,25.2-5.5,34.9,0.1   C373.7,262.4,373.8,271.4,364.2,276.9z"/>
	<path class="st42" d="M358.7,273.8c-6.6,3.8-17.3,3.8-24,0c-6.6-3.8-6.7-10-0.1-13.8s17.3-3.8,24,0   C365.3,263.8,365.3,270,358.7,273.8z"/>
	<path class="st39" d="M334.7,261.5c6.6-3.8,17.3-3.8,24,0c3,1.7,4.6,3.9,4.9,6.2c0.4-2.8-1.2-5.7-4.9-7.8c-6.6-3.8-17.4-3.9-24,0   c-3.6,2.1-5.3,4.9-4.9,7.7C330.1,265.4,331.8,263.2,334.7,261.5z"/>
	<path class="st40" d="M364.2,276.1c-9.6,5.5-25.2,5.5-34.9-0.1c-4.7-2.7-7.1-6.2-7.3-9.7c-0.2,3.8,2.2,7.6,7.3,10.6   c9.7,5.6,25.3,5.6,34.9,0.1c5-2.9,7.3-6.7,7.2-10.4C371.2,270,368.8,273.4,364.2,276.1z"/>
	<g>
		<path class="st39" d="M362.6,266.8v2.8c0,0.2,0,0.4,0,0.6c-0.8,1.3-2.1,2.4-3.9,3.5c-6.6,3.8-17.3,3.8-24-0.1    c-1.8-1-3.1-2.2-3.9-3.5c0-0.2-0.1-0.4-0.1-0.5v-2.8h0.8c0.8-1.3,2-2.5,3.8-3.6c6.2-3.6,16.3-3.6,22.5,0c1.8,1,3.1,2.2,3.8,3.5    H362.6z"/>
		<path class="st43" d="M358,273.6c-6.2,3.6-16.3,3.6-22.5,0c-6.2-3.6-6.3-9.4-0.1-13c6.2-3.6,16.3-3.6,22.5,0    C364.2,264.2,364.2,270.1,358,273.6z"/>
		<path class="st40" d="M358,273.1c-6.2,3.6-16.3,3.6-22.5,0c-3-1.7-4.6-4-4.7-6.3c-0.1,2.5,1.4,4.9,4.7,6.8    c6.2,3.6,16.3,3.6,22.5,0c3.2-1.9,4.7-4.3,4.6-6.7C362.5,269.2,361,271.4,358,273.1z"/>
	</g>
	<g>
		<g>
			<path class="st44" d="M352.5,274.8l-0.2-0.7c-0.4,0.1-0.8,0.2-1.2,0.3l0.1,0.7C351.7,274.9,352.1,274.9,352.5,274.8z"/>
			<path class="st44" d="M354.6,274.1l-0.2-0.7c-0.4,0.1-0.8,0.3-1.1,0.4l0.2,0.7C353.8,274.4,354.2,274.3,354.6,274.1z"/>
			<path class="st44" d="M356.7,273.2l-0.3-0.6c-0.4,0.2-0.7,0.4-1.1,0.5l0.3,0.7C355.9,273.6,356.3,273.4,356.7,273.2z"/>
		</g>
		<g>
			<path class="st44" d="M345.8,275.4l0-0.7c-0.4,0-0.8,0-1.2-0.1l-0.1,0.7C345,275.4,345.4,275.4,345.8,275.4z"/>
			<polygon class="st44" points="348,275.4 348,274.7 346.8,274.7 346.8,275.4    "/>
			<path class="st44" d="M350.3,275.2l-0.1-0.7c-0.4,0.1-0.8,0.1-1.2,0.1l0.1,0.7C349.4,275.3,349.8,275.2,350.3,275.2z"/>
		</g>
		<g>
			<path class="st44" d="M339.2,274.2l0.2-0.7c-0.4-0.1-0.8-0.3-1.1-0.4l-0.3,0.7C338.4,273.9,338.8,274.1,339.2,274.2z"/>
			<path class="st44" d="M341.4,274.8l0.2-0.7c-0.4-0.1-0.8-0.2-1.2-0.3l-0.2,0.7C340.6,274.6,341,274.7,341.4,274.8z"/>
			<path class="st44" d="M343.6,275.2l0.1-0.7c-0.4-0.1-0.8-0.1-1.2-0.2l-0.1,0.7C342.7,275.1,343.2,275.2,343.6,275.2z"/>
		</g>
		<g>
			<path class="st44" d="M333.6,270.7l0.5-0.5c-0.2-0.3-0.5-0.6-0.7-0.9l-0.6,0.4C333,270,333.3,270.3,333.6,270.7z"/>
			<path class="st44" d="M335.2,272.2l0.4-0.6c-0.3-0.3-0.6-0.5-0.9-0.7l-0.5,0.5C334.5,271.7,334.9,271.9,335.2,272.2z"/>
			<path class="st44" d="M337.1,273.3l0.3-0.6c-0.3-0.2-0.7-0.4-1-0.6l-0.4,0.6C336.4,273,336.8,273.1,337.1,273.3z"/>
		</g>
		<g>
			<path class="st44" d="M332.6,264.2l0.6,0.3c0.2-0.3,0.4-0.7,0.6-1l-0.6-0.4C333,263.5,332.8,263.9,332.6,264.2z"/>
			<path class="st44" d="M332,266.4l0.7,0c0-0.4,0.1-0.7,0.2-1.1l-0.7-0.2C332.1,265.6,332,266,332,266.4z"/>
			<path class="st44" d="M332.4,268.7l0.7-0.3c-0.1-0.3-0.2-0.7-0.3-1.1l-0.7,0.1C332.1,267.9,332.2,268.3,332.4,268.7z"/>
		</g>
		<g>
			<path class="st44" d="M337.8,259.9l0.3,0.7c0.4-0.1,0.7-0.3,1.1-0.4l-0.2-0.7C338.5,259.6,338.1,259.8,337.8,259.9z"/>
			<path class="st44" d="M335.8,261l0.4,0.6c0.3-0.2,0.7-0.4,1-0.6l-0.3-0.6C336.5,260.6,336.1,260.8,335.8,261z"/>
			<path class="st44" d="M334,262.4l0.5,0.5c0.3-0.3,0.6-0.5,0.9-0.8l-0.4-0.6C334.6,261.8,334.3,262.1,334,262.4z"/>
		</g>
		<g>
			<path class="st44" d="M344.3,258.3l0.1,0.7c0.4,0,0.8-0.1,1.2-0.1l0-0.7C345.1,258.2,344.7,258.3,344.3,258.3z"/>
			<path class="st44" d="M342,258.6l0.1,0.7c0.4-0.1,0.8-0.1,1.2-0.2l-0.1-0.7C342.9,258.5,342.4,258.5,342,258.6z"/>
			<polygon class="st44" points="339.9,259.2 340.1,259.8 341.2,259.5 341.1,258.8    "/>
		</g>
		<g>
			<polygon class="st44" points="350.9,258.6 350.8,259.3 352,259.5 352.2,258.8    "/>
			<path class="st44" d="M348.7,258.3l-0.1,0.7c0.4,0,0.8,0.1,1.2,0.1l0.1-0.7C349.5,258.4,349.1,258.3,348.7,258.3z"/>
			<path class="st44" d="M346.5,258.2l0,0.7c0.4,0,0.8,0,1.2,0l0-0.7C347.3,258.2,346.9,258.2,346.5,258.2z"/>
		</g>
		<g>
			<path class="st44" d="M357.2,260.8l-0.4,0.6c0.3,0.2,0.7,0.4,1,0.7l0.4-0.6C358,261.3,357.6,261.1,357.2,260.8z"/>
			<path class="st44" d="M355.2,259.8l-0.3,0.7c0.4,0.2,0.7,0.3,1.1,0.5l0.3-0.6C356,260.1,355.6,260,355.2,259.8z"/>
			<path class="st44" d="M353.1,259.1l-0.2,0.7c0.4,0.1,0.8,0.2,1.1,0.4l0.2-0.7C353.9,259.3,353.5,259.2,353.1,259.1z"/>
		</g>
		<g>
			<path class="st44" d="M361.4,266l-0.7,0.1c0,0.4,0.1,0.7,0,1.1l0.7,0.1C361.5,266.9,361.4,266.5,361.4,266z"/>
			<path class="st44" d="M360.5,263.9l-0.6,0.4c0.2,0.3,0.4,0.7,0.5,1l0.7-0.2C360.9,264.7,360.8,264.3,360.5,263.9z"/>
			<path class="st44" d="M359.1,262.2l-0.5,0.5c0.3,0.3,0.6,0.5,0.8,0.8l0.6-0.5C359.7,262.7,359.4,262.5,359.1,262.2z"/>
		</g>
		<g>
			<path class="st44" d="M358.6,272l-0.4-0.6c-0.3,0.3-0.6,0.5-1,0.7l0.4,0.6C357.9,272.5,358.2,272.3,358.6,272z"/>
			<path class="st44" d="M360.2,270.4l-0.6-0.4c-0.2,0.3-0.5,0.6-0.8,0.9l0.5,0.5C359.6,271,359.9,270.7,360.2,270.4z"/>
			<path class="st44" d="M361.2,268.4l-0.7-0.2c-0.1,0.4-0.3,0.7-0.4,1l0.6,0.3C360.9,269.2,361.1,268.8,361.2,268.4z"/>
		</g>
	</g>
	<path class="st39" d="M376,263.7h-1.4c-1.2-2-3.2-3.9-5.9-5.5c-9.7-5.6-25.3-5.6-34.9-0.1c-2.8,1.6-4.8,3.5-5.9,5.5h-1.3v4.4h0   c0.1,3.6,2.5,7.1,7.3,9.9c9.7,5.6,25.3,5.6,34.9,0.1c4.8-2.7,7.1-6.3,7.2-10h0V263.7z"/>
	
		<ellipse transform="matrix(5.418246e-03 -1 1 5.418246e-03 85.3745 613.9214)" class="st41" cx="351.3" cy="264" rx="14.2" ry="24.7"/>
	<path class="st42" d="M363.3,271c-6.6,3.8-17.3,3.8-24,0c-6.6-3.8-6.7-10-0.1-13.8c6.6-3.8,17.3-3.8,24,0   C369.9,261,369.9,267.2,363.3,271z"/>
	<path class="st39" d="M339.3,258.8c6.6-3.8,17.3-3.8,24,0c3,1.7,4.6,3.9,4.9,6.2c0.4-2.8-1.2-5.7-4.9-7.8c-6.6-3.8-17.4-3.9-24,0   c-3.6,2.1-5.3,4.9-4.9,7.7C334.8,262.6,336.4,260.4,339.3,258.8z"/>
	<path class="st40" d="M368.8,273.3c-9.6,5.5-25.2,5.5-34.9-0.1c-4.7-2.7-7.1-6.2-7.3-9.7c-0.2,3.8,2.2,7.6,7.3,10.6   c9.7,5.6,25.3,5.6,34.9,0.1c5-2.9,7.3-6.7,7.2-10.4C375.8,267.2,373.4,270.6,368.8,273.3z"/>
	<g>
		<path class="st39" d="M367.2,264.1v2.8c0,0.2,0,0.4,0,0.6c-0.8,1.3-2.1,2.4-3.9,3.5c-6.6,3.8-17.3,3.8-24-0.1    c-1.8-1-3.1-2.2-3.9-3.5c0-0.2-0.1-0.4-0.1-0.5v-2.8h0.8c0.8-1.3,2-2.5,3.8-3.6c6.2-3.6,16.3-3.6,22.5,0c1.8,1,3.1,2.2,3.8,3.5    H367.2z"/>
		<path class="st43" d="M362.6,270.9c-6.2,3.6-16.3,3.6-22.5,0c-6.2-3.6-6.3-9.4-0.1-13c6.2-3.6,16.3-3.6,22.5,0    C368.8,261.5,368.8,267.3,362.6,270.9z"/>
		<path class="st40" d="M362.6,270.3c-6.2,3.6-16.3,3.6-22.5,0c-3-1.7-4.6-4-4.7-6.3c-0.1,2.5,1.4,4.9,4.7,6.8    c6.2,3.6,16.3,3.6,22.5,0c3.2-1.8,4.7-4.3,4.6-6.7C367.1,266.4,365.6,268.6,362.6,270.3z"/>
	</g>
	<g>
		<g>
			<path class="st44" d="M357.1,272l-0.2-0.7c-0.4,0.1-0.8,0.2-1.2,0.3l0.1,0.7C356.3,272.2,356.7,272.1,357.1,272z"/>
			<path class="st44" d="M359.2,271.3l-0.2-0.7c-0.4,0.1-0.8,0.3-1.1,0.4l0.2,0.7C358.4,271.6,358.8,271.5,359.2,271.3z"/>
			<path class="st44" d="M361.3,270.4l-0.3-0.6c-0.4,0.2-0.7,0.4-1.1,0.5l0.3,0.7C360.5,270.8,360.9,270.6,361.3,270.4z"/>
		</g>
		<g>
			<path class="st44" d="M350.4,272.6l0-0.7c-0.4,0-0.8,0-1.2-0.1l-0.1,0.7C349.6,272.6,350,272.6,350.4,272.6z"/>
			<polygon class="st44" points="352.7,272.6 352.6,271.9 351.4,271.9 351.4,272.7    "/>
			<path class="st44" d="M354.9,272.4l-0.1-0.7c-0.4,0.1-0.8,0.1-1.2,0.1l0.1,0.7C354,272.5,354.5,272.5,354.9,272.4z"/>
		</g>
		<g>
			<path class="st44" d="M343.8,271.4l0.2-0.7c-0.4-0.1-0.8-0.3-1.1-0.4l-0.3,0.7C343.1,271.2,343.4,271.3,343.8,271.4z"/>
			<path class="st44" d="M346,272.1l0.2-0.7c-0.4-0.1-0.8-0.2-1.2-0.3l-0.2,0.7C345.2,271.8,345.6,272,346,272.1z"/>
			<path class="st44" d="M348.2,272.4l0.1-0.7c-0.4-0.1-0.8-0.1-1.2-0.2l-0.1,0.7C347.4,272.3,347.8,272.4,348.2,272.4z"/>
		</g>
		<g>
			<path class="st44" d="M338.2,267.9l0.5-0.5c-0.2-0.3-0.5-0.6-0.7-0.9l-0.6,0.4C337.6,267.2,337.9,267.6,338.2,267.9z"/>
			<path class="st44" d="M339.8,269.4l0.4-0.6c-0.3-0.3-0.6-0.5-0.9-0.7l-0.5,0.5C339.2,268.9,339.5,269.1,339.8,269.4z"/>
			<path class="st44" d="M341.8,270.6l0.3-0.6c-0.3-0.2-0.7-0.4-1-0.6l-0.4,0.6C341,270.2,341.4,270.4,341.8,270.6z"/>
		</g>
		<g>
			<path class="st44" d="M337.2,261.4l0.6,0.3c0.2-0.3,0.4-0.7,0.6-1l-0.6-0.4C337.7,260.7,337.5,261.1,337.2,261.4z"/>
			<path class="st44" d="M336.6,263.7l0.7,0c0-0.4,0.1-0.7,0.2-1.1l-0.7-0.2C336.7,262.8,336.6,263.2,336.6,263.7z"/>
			<path class="st44" d="M337,265.9l0.7-0.3c-0.1-0.3-0.2-0.7-0.3-1.1l-0.7,0.1C336.7,265.1,336.8,265.5,337,265.9z"/>
		</g>
		<g>
			<path class="st44" d="M342.4,257.2l0.3,0.7c0.4-0.1,0.7-0.3,1.1-0.4l-0.2-0.7C343.1,256.8,342.8,257,342.4,257.2z"/>
			<path class="st44" d="M340.4,258.2l0.4,0.6c0.3-0.2,0.7-0.4,1-0.6l-0.3-0.6C341.1,257.8,340.7,258,340.4,258.2z"/>
			<path class="st44" d="M338.6,259.6l0.5,0.5c0.3-0.3,0.6-0.5,0.9-0.8l-0.4-0.6C339.2,259,338.9,259.3,338.6,259.6z"/>
		</g>
		<g>
			<path class="st44" d="M348.9,255.5l0.1,0.7c0.4,0,0.8-0.1,1.2-0.1l0-0.7C349.7,255.5,349.3,255.5,348.9,255.5z"/>
			<path class="st44" d="M346.7,255.9l0.1,0.7c0.4-0.1,0.8-0.1,1.2-0.2l-0.1-0.7C347.5,255.7,347.1,255.8,346.7,255.9z"/>
			<polygon class="st44" points="344.5,256.4 344.7,257.1 345.9,256.8 345.7,256.1    "/>
		</g>
		<g>
			<polygon class="st44" points="355.5,255.8 355.4,256.5 356.6,256.8 356.8,256.1    "/>
			<path class="st44" d="M353.3,255.5l-0.1,0.7c0.4,0,0.8,0.1,1.2,0.1l0.1-0.7C354.2,255.6,353.7,255.6,353.3,255.5z"/>
			<path class="st44" d="M351.1,255.4l0,0.7c0.4,0,0.8,0,1.2,0l0-0.7C351.9,255.4,351.5,255.4,351.1,255.4z"/>
		</g>
		<g>
			<path class="st44" d="M361.9,258.1l-0.4,0.6c0.3,0.2,0.7,0.4,1,0.7l0.4-0.6C362.6,258.5,362.2,258.3,361.9,258.1z"/>
			<path class="st44" d="M359.8,257l-0.3,0.7c0.4,0.2,0.7,0.3,1.1,0.5l0.3-0.6C360.6,257.4,360.2,257.2,359.8,257z"/>
			<path class="st44" d="M357.7,256.3l-0.2,0.7c0.4,0.1,0.8,0.2,1.1,0.4l0.2-0.7C358.5,256.6,358.1,256.4,357.7,256.3z"/>
		</g>
		<g>
			<path class="st44" d="M366,263.3l-0.7,0.1c0,0.4,0.1,0.7,0,1.1l0.7,0.1C366.1,264.1,366,263.7,366,263.3z"/>
			<path class="st44" d="M365.1,261.1l-0.6,0.4c0.2,0.3,0.4,0.7,0.5,1l0.7-0.2C365.6,261.9,365.4,261.5,365.1,261.1z"/>
			<path class="st44" d="M363.7,259.4l-0.5,0.5c0.3,0.3,0.6,0.5,0.8,0.8l0.6-0.5C364.3,260,364,259.7,363.7,259.4z"/>
		</g>
		<g>
			<path class="st44" d="M363.2,269.2l-0.4-0.6c-0.3,0.3-0.6,0.5-1,0.7l0.4,0.6C362.5,269.7,362.8,269.5,363.2,269.2z"/>
			<path class="st44" d="M364.8,267.6l-0.6-0.4c-0.2,0.3-0.5,0.6-0.8,0.9l0.5,0.5C364.2,268.3,364.5,267.9,364.8,267.6z"/>
			<path class="st44" d="M365.8,265.6l-0.7-0.2c-0.1,0.4-0.3,0.7-0.4,1l0.6,0.3C365.5,266.4,365.7,266,365.8,265.6z"/>
		</g>
	</g>
	<path class="st39" d="M372.1,259.2h-1.4c-1.2-2-3.2-3.9-5.9-5.5c-9.7-5.6-25.3-5.6-34.9-0.1c-2.8,1.6-4.8,3.5-5.9,5.5h-1.3v4.4h0   c0.1,3.6,2.5,7.1,7.3,9.9c9.7,5.6,25.3,5.6,34.9,0.1c4.8-2.7,7.1-6.3,7.2-10h0V259.2z"/>
	<path class="st41" d="M364.9,269.6c-9.6,5.5-25.2,5.5-34.9-0.1c-9.7-5.6-9.7-14.6-0.1-20.1c9.6-5.5,25.2-5.5,34.9,0.1   C374.5,255.1,374.5,264.1,364.9,269.6z"/>
	<path class="st42" d="M359.4,266.5c-6.6,3.8-17.3,3.8-24,0c-6.6-3.8-6.7-10-0.1-13.8c6.6-3.8,17.3-3.8,24,0   C366,256.5,366,262.7,359.4,266.5z"/>
	<path class="st39" d="M335.4,254.3c6.6-3.8,17.3-3.8,24,0c3,1.7,4.6,3.9,4.9,6.2c0.4-2.8-1.2-5.7-4.9-7.8c-6.6-3.8-17.4-3.9-24,0   c-3.6,2.1-5.3,4.9-4.9,7.7C330.9,258.1,332.5,255.9,335.4,254.3z"/>
	<path class="st40" d="M364.9,268.8c-9.6,5.5-25.2,5.5-34.9-0.1c-4.7-2.7-7.1-6.2-7.3-9.7c-0.2,3.8,2.2,7.6,7.3,10.6   c9.7,5.6,25.3,5.6,34.9,0.1c5-2.9,7.3-6.7,7.2-10.4C371.9,262.7,369.5,266.1,364.9,268.8z"/>
	<g>
		<path class="st39" d="M363.3,259.6v2.8c0,0.2,0,0.4,0,0.6c-0.8,1.3-2.1,2.4-3.9,3.5c-6.6,3.8-17.3,3.8-24-0.1    c-1.8-1-3.1-2.2-3.9-3.5c0-0.2-0.1-0.4-0.1-0.5v-2.8h0.8c0.8-1.3,2-2.5,3.8-3.6c6.2-3.6,16.3-3.6,22.5,0c1.8,1,3.1,2.2,3.8,3.5    H363.3z"/>
		<path class="st43" d="M358.7,266.4c-6.2,3.6-16.3,3.6-22.5,0c-6.2-3.6-6.3-9.4-0.1-13c6.2-3.6,16.3-3.6,22.5,0    C364.9,257,364.9,262.8,358.7,266.4z"/>
		<path class="st40" d="M358.7,265.8c-6.2,3.6-16.3,3.6-22.5,0c-3-1.7-4.6-4-4.7-6.3c-0.1,2.5,1.4,4.9,4.7,6.8    c6.2,3.6,16.3,3.6,22.5,0c3.2-1.9,4.7-4.3,4.6-6.7C363.2,261.9,361.7,264.1,358.7,265.8z"/>
	</g>
	<g>
		<g>
			<path class="st44" d="M353.2,267.5l-0.2-0.7c-0.4,0.1-0.8,0.2-1.2,0.3l0.1,0.7C352.4,267.7,352.8,267.6,353.2,267.5z"/>
			<path class="st44" d="M355.3,266.8l-0.2-0.7c-0.4,0.1-0.8,0.3-1.1,0.4l0.2,0.7C354.5,267.1,354.9,267,355.3,266.8z"/>
			<path class="st44" d="M357.4,265.9l-0.3-0.6c-0.4,0.2-0.7,0.4-1.1,0.5l0.3,0.7C356.6,266.3,357,266.1,357.4,265.9z"/>
		</g>
		<g>
			<path class="st44" d="M346.5,268.1l0-0.7c-0.4,0-0.8,0-1.2-0.1l-0.1,0.7C345.7,268.1,346.1,268.1,346.5,268.1z"/>
			<polygon class="st44" points="348.8,268.1 348.7,267.4 347.5,267.4 347.5,268.2    "/>
			<path class="st44" d="M351,267.9l-0.1-0.7c-0.4,0.1-0.8,0.1-1.2,0.1l0.1,0.7C350.2,268,350.6,268,351,267.9z"/>
		</g>
		<g>
			<path class="st44" d="M339.9,266.9l0.2-0.7c-0.4-0.1-0.8-0.3-1.1-0.4l-0.3,0.7C339.2,266.7,339.6,266.8,339.9,266.9z"/>
			<path class="st44" d="M342.1,267.6l0.2-0.7c-0.4-0.1-0.8-0.2-1.2-0.3l-0.2,0.7C341.3,267.3,341.7,267.5,342.1,267.6z"/>
			<path class="st44" d="M344.3,267.9l0.1-0.7c-0.4-0.1-0.8-0.1-1.2-0.2l-0.1,0.7C343.5,267.8,343.9,267.9,344.3,267.9z"/>
		</g>
		<g>
			<path class="st44" d="M334.3,263.4l0.5-0.5c-0.2-0.3-0.5-0.6-0.7-0.9l-0.6,0.4C333.7,262.7,334,263.1,334.3,263.4z"/>
			<path class="st44" d="M335.9,264.9l0.4-0.6c-0.3-0.3-0.6-0.5-0.9-0.7l-0.5,0.5C335.3,264.4,335.6,264.6,335.9,264.9z"/>
			<path class="st44" d="M337.9,266.1l0.3-0.6c-0.3-0.2-0.7-0.4-1-0.6l-0.4,0.6C337.1,265.7,337.5,265.9,337.9,266.1z"/>
		</g>
		<g>
			<path class="st44" d="M333.3,257l0.6,0.3c0.2-0.3,0.4-0.7,0.6-1l-0.6-0.4C333.8,256.2,333.6,256.6,333.3,257z"/>
			<path class="st44" d="M332.7,259.2l0.7,0c0-0.4,0.1-0.7,0.2-1.1l-0.7-0.2C332.8,258.3,332.7,258.7,332.7,259.2z"/>
			<path class="st44" d="M333.1,261.4l0.7-0.3c-0.1-0.3-0.2-0.7-0.3-1.1l-0.7,0.1C332.8,260.6,332.9,261,333.1,261.4z"/>
		</g>
		<g>
			<path class="st44" d="M338.5,252.7l0.3,0.7c0.4-0.1,0.7-0.3,1.1-0.4l-0.2-0.7C339.2,252.3,338.9,252.5,338.5,252.7z"/>
			<path class="st44" d="M336.5,253.7l0.4,0.6c0.3-0.2,0.7-0.4,1-0.6l-0.3-0.6C337.2,253.3,336.8,253.5,336.5,253.7z"/>
			<path class="st44" d="M334.7,255.1l0.5,0.5c0.3-0.3,0.6-0.5,0.9-0.8l-0.4-0.6C335.3,254.6,335,254.8,334.7,255.1z"/>
		</g>
		<g>
			<path class="st44" d="M345,251l0.1,0.7c0.4,0,0.8-0.1,1.2-0.1l0-0.7C345.8,251,345.4,251,345,251z"/>
			<path class="st44" d="M342.8,251.4l0.1,0.7c0.4-0.1,0.8-0.1,1.2-0.2l-0.1-0.7C343.6,251.2,343.2,251.3,342.8,251.4z"/>
			<polygon class="st44" points="340.6,251.9 340.8,252.6 342,252.3 341.8,251.6    "/>
		</g>
		<g>
			<polygon class="st44" points="351.7,251.3 351.5,252 352.7,252.3 352.9,251.6    "/>
			<path class="st44" d="M349.4,251l-0.1,0.7c0.4,0,0.8,0.1,1.2,0.1l0.1-0.7C350.3,251.1,349.9,251.1,349.4,251z"/>
			<path class="st44" d="M347.2,250.9l0,0.7c0.4,0,0.8,0,1.2,0l0-0.7C348,251,347.6,250.9,347.2,250.9z"/>
		</g>
		<g>
			<path class="st44" d="M358,253.6l-0.4,0.6c0.3,0.2,0.7,0.4,1,0.7l0.4-0.6C358.7,254,358.3,253.8,358,253.6z"/>
			<path class="st44" d="M356,252.6l-0.3,0.7c0.4,0.2,0.7,0.3,1.1,0.5l0.3-0.6C356.7,252.9,356.3,252.7,356,252.6z"/>
			<path class="st44" d="M353.8,251.8l-0.2,0.7c0.4,0.1,0.8,0.2,1.1,0.4l0.2-0.7C354.6,252.1,354.3,251.9,353.8,251.8z"/>
		</g>
		<g>
			<path class="st44" d="M362.1,258.8l-0.7,0.1c0,0.4,0.1,0.7,0,1.1l0.7,0.1C362.2,259.6,362.1,259.2,362.1,258.8z"/>
			<path class="st44" d="M361.3,256.6l-0.6,0.4c0.2,0.3,0.4,0.7,0.5,1l0.7-0.2C361.7,257.4,361.5,257,361.3,256.6z"/>
			<path class="st44" d="M359.8,254.9l-0.5,0.5c0.3,0.3,0.6,0.5,0.8,0.8l0.6-0.5C360.4,255.5,360.1,255.2,359.8,254.9z"/>
		</g>
		<g>
			<path class="st44" d="M359.3,264.7l-0.4-0.6c-0.3,0.3-0.6,0.5-1,0.7l0.4,0.6C358.6,265.2,359,265,359.3,264.7z"/>
			<path class="st44" d="M360.9,263.1l-0.6-0.4c-0.2,0.3-0.5,0.6-0.8,0.9l0.5,0.5C360.3,263.8,360.6,263.4,360.9,263.1z"/>
			<path class="st44" d="M361.9,261.1l-0.7-0.2c-0.1,0.4-0.3,0.7-0.4,1l0.6,0.3C361.6,261.9,361.8,261.5,361.9,261.1z"/>
		</g>
	</g>
	<path class="st39" d="M374.3,253.5H373c-1.2-2-3.2-3.9-5.9-5.5c-9.7-5.6-25.3-5.6-34.9-0.1c-2.8,1.6-4.8,3.5-5.9,5.5H325v4.4h0   c0.1,3.6,2.5,7.1,7.3,9.9c9.7,5.6,25.3,5.6,34.9,0.1c4.8-2.7,7.1-6.3,7.2-10h0V253.5z"/>
	<path class="st41" d="M367.2,264c-9.6,5.5-25.2,5.5-34.9-0.1c-9.7-5.6-9.7-14.6-0.1-20.1c9.6-5.5,25.2-5.5,34.9,0.1   C376.7,249.5,376.8,258.5,367.2,264z"/>
	<path class="st42" d="M361.7,260.9c-6.6,3.8-17.3,3.8-24,0c-6.6-3.8-6.7-10-0.1-13.8c6.6-3.8,17.3-3.8,24,0   C368.3,250.9,368.3,257.1,361.7,260.9z"/>
	<path class="st40" d="M367.2,263.2c-9.6,5.5-25.2,5.5-34.9-0.1c-4.7-2.7-7.1-6.2-7.3-9.7c-0.2,3.8,2.2,7.6,7.3,10.6   c9.7,5.6,25.3,5.6,34.9,0.1c5-2.9,7.3-6.7,7.2-10.4C374.1,257.1,371.8,260.5,367.2,263.2z"/>
	<g>
		<path class="st39" d="M365.6,254v2.8c0,0.2,0,0.4,0,0.6c-0.8,1.3-2.1,2.4-3.9,3.5c-6.6,3.8-17.3,3.8-24-0.1    c-1.8-1-3.1-2.2-3.9-3.5c0-0.2-0.1-0.4-0.1-0.5V254h0.8c0.8-1.3,2-2.5,3.8-3.6c6.2-3.6,16.3-3.6,22.5,0c1.8,1,3.1,2.2,3.8,3.5    H365.6z"/>
		<path class="st43" d="M361,260.7c-6.2,3.6-16.3,3.6-22.5,0c-6.2-3.6-6.3-9.4-0.1-13c6.2-3.6,16.3-3.6,22.5,0    C367.1,251.3,367.2,257.2,361,260.7z"/>
		<path class="st40" d="M361,260.2c-6.2,3.6-16.3,3.6-22.5,0c-3-1.7-4.6-4-4.7-6.3c-0.1,2.5,1.4,4.9,4.7,6.8    c6.2,3.6,16.3,3.6,22.5,0c3.2-1.8,4.7-4.3,4.6-6.7C365.5,256.3,363.9,258.5,361,260.2z"/>
	</g>
	<g>
		<g>
			<path class="st44" d="M355.4,261.9l-0.2-0.7c-0.4,0.1-0.8,0.2-1.2,0.2l0.1,0.7C354.6,262.1,355,262,355.4,261.9z"/>
			<path class="st44" d="M357.6,261.2l-0.2-0.7c-0.4,0.1-0.8,0.3-1.1,0.4l0.2,0.7C356.8,261.5,357.2,261.4,357.6,261.2z"/>
			<path class="st44" d="M359.6,260.3l-0.3-0.6c-0.4,0.2-0.7,0.4-1.1,0.5l0.3,0.7C358.9,260.7,359.3,260.5,359.6,260.3z"/>
		</g>
		<g>
			<path class="st44" d="M348.8,262.5l0-0.7c-0.4,0-0.8,0-1.2-0.1l-0.1,0.7C348,262.5,348.4,262.5,348.8,262.5z"/>
			<polygon class="st44" points="351,262.5 351,261.8 349.8,261.8 349.8,262.5    "/>
			<path class="st44" d="M353.2,262.3l-0.1-0.7c-0.4,0.1-0.8,0.1-1.2,0.1l0.1,0.7C352.4,262.4,352.8,262.4,353.2,262.3z"/>
		</g>
		<g>
			<path class="st44" d="M342.2,261.3l0.2-0.7c-0.4-0.1-0.8-0.3-1.1-0.4l-0.3,0.7C341.4,261,341.8,261.2,342.2,261.3z"/>
			<path class="st44" d="M344.4,261.9l0.2-0.7c-0.4-0.1-0.8-0.2-1.2-0.3l-0.2,0.7C343.5,261.7,343.9,261.9,344.4,261.9z"/>
			<path class="st44" d="M346.5,262.3l0.1-0.7c-0.4-0.1-0.8-0.1-1.2-0.2l-0.1,0.7C345.7,262.2,346.1,262.3,346.5,262.3z"/>
		</g>
		<g>
			<path class="st44" d="M336.5,257.8l0.5-0.5c-0.2-0.3-0.5-0.6-0.7-0.9l-0.6,0.4C336,257.1,336.3,257.4,336.5,257.8z"/>
			<path class="st44" d="M338.2,259.3l0.4-0.6c-0.3-0.3-0.6-0.5-0.9-0.7l-0.5,0.5C337.5,258.8,337.9,259,338.2,259.3z"/>
			<path class="st44" d="M340.1,260.5l0.3-0.6c-0.3-0.2-0.7-0.4-1-0.6l-0.4,0.6C339.4,260.1,339.8,260.3,340.1,260.5z"/>
		</g>
		<g>
			<path class="st44" d="M335.6,251.3l0.6,0.3c0.2-0.3,0.4-0.7,0.6-1l-0.6-0.4C336,250.6,335.8,251,335.6,251.3z"/>
			<path class="st44" d="M335,253.5l0.7,0c0-0.4,0.1-0.7,0.2-1.1l-0.7-0.2C335.1,252.7,335,253.1,335,253.5z"/>
			<path class="st44" d="M335.3,255.8l0.7-0.3c-0.1-0.3-0.2-0.7-0.3-1.1l-0.7,0.1C335.1,255,335.2,255.4,335.3,255.8z"/>
		</g>
		<g>
			<path class="st44" d="M340.7,247.1l0.3,0.7c0.4-0.1,0.7-0.3,1.1-0.4l-0.2-0.7C341.5,246.7,341.1,246.9,340.7,247.1z"/>
			<path class="st44" d="M338.8,248.1l0.4,0.6c0.3-0.2,0.7-0.4,1-0.6l-0.3-0.6C339.5,247.7,339.1,247.9,338.8,248.1z"/>
			<path class="st44" d="M337,249.5l0.5,0.5c0.3-0.3,0.6-0.5,0.9-0.8l-0.4-0.6C337.6,248.9,337.3,249.2,337,249.5z"/>
		</g>
		<g>
			<path class="st44" d="M347.2,245.4l0.1,0.7c0.4,0,0.8-0.1,1.2-0.1l0-0.7C348.1,245.4,347.6,245.4,347.2,245.4z"/>
			<path class="st44" d="M345,245.7l0.1,0.7c0.4-0.1,0.8-0.1,1.2-0.2l-0.1-0.7C345.8,245.6,345.4,245.7,345,245.7z"/>
			<polygon class="st44" points="342.8,246.3 343.1,247 344.2,246.6 344.1,245.9    "/>
		</g>
		<g>
			<polygon class="st44" points="353.9,245.7 353.8,246.4 355,246.6 355.1,245.9    "/>
			<path class="st44" d="M351.7,245.4l-0.1,0.7c0.4,0,0.8,0.1,1.2,0.1l0.1-0.7C352.5,245.5,352.1,245.4,351.7,245.4z"/>
			<path class="st44" d="M349.5,245.3l0,0.7c0.4,0,0.8,0,1.2,0l0-0.7C350.3,245.3,349.9,245.3,349.5,245.3z"/>
		</g>
		<g>
			<path class="st44" d="M360.2,247.9l-0.4,0.6c0.3,0.2,0.7,0.4,1,0.7l0.4-0.6C360.9,248.4,360.6,248.2,360.2,247.9z"/>
			<path class="st44" d="M358.2,246.9l-0.3,0.7c0.4,0.2,0.7,0.3,1.1,0.5l0.3-0.6C359,247.3,358.6,247.1,358.2,246.9z"/>
			<path class="st44" d="M356.1,246.2l-0.2,0.7c0.4,0.1,0.8,0.2,1.1,0.4l0.2-0.7C356.9,246.5,356.5,246.3,356.1,246.2z"/>
		</g>
		<g>
			<path class="st44" d="M364.3,253.2l-0.7,0.1c0,0.4,0.1,0.7,0,1.1l0.7,0.1C364.4,254,364.4,253.6,364.3,253.2z"/>
			<path class="st44" d="M363.5,251l-0.6,0.4c0.2,0.3,0.4,0.7,0.5,1l0.7-0.2C363.9,251.8,363.8,251.4,363.5,251z"/>
			<path class="st44" d="M362,249.3l-0.5,0.5c0.3,0.3,0.6,0.5,0.8,0.8l0.6-0.5C362.7,249.9,362.3,249.6,362,249.3z"/>
		</g>
		<g>
			<path class="st44" d="M361.5,259.1l-0.4-0.6c-0.3,0.3-0.6,0.5-1,0.7l0.4,0.6C360.9,259.6,361.2,259.4,361.5,259.1z"/>
			<path class="st44" d="M363.1,257.5l-0.6-0.4c-0.2,0.3-0.5,0.6-0.8,0.9l0.5,0.5C362.6,258.2,362.9,257.8,363.1,257.5z"/>
			<path class="st44" d="M364.2,255.5l-0.7-0.2c-0.1,0.4-0.3,0.7-0.4,1l0.6,0.3C363.9,256.3,364.1,255.9,364.2,255.5z"/>
		</g>
	</g>
	<path class="st39" d="M370.9,245.5h-1.4c-1.2-2-3.2-3.9-5.9-5.5c-9.7-5.6-25.3-5.6-34.9-0.1c-2.8,1.6-4.8,3.5-5.9,5.5h-1.3v4.4h0   c0.1,3.6,2.5,7.1,7.3,9.9c9.7,5.6,25.3,5.6,34.9,0.1c4.8-2.7,7.1-6.3,7.2-10h0V245.5z"/>
	<path class="st41" d="M363.7,256c-9.6,5.5-25.2,5.5-34.9-0.1c-9.7-5.6-9.7-14.6-0.1-20.1c9.6-5.5,25.2-5.5,34.9,0.1   C373.3,241.4,373.3,250.5,363.7,256z"/>
	<path class="st40" d="M363.7,255.2c-9.6,5.5-25.2,5.5-34.9-0.1c-4.7-2.7-7.1-6.2-7.3-9.7c-0.2,3.8,2.2,7.6,7.3,10.6   c9.7,5.6,25.3,5.6,34.9,0.1c5-2.9,7.3-6.7,7.2-10.4C370.7,249.1,368.3,252.5,363.7,255.2z"/>
</g>
<g xmlns="http://www.w3.org/2000/svg">
	<path class="st3" d="M413.4,312.5c-10.2,5.9-26.8,5.9-37-0.1c-5.4-3.1-7.9-7.2-7.7-11.2c0.2-3.7,2.7-7.3,7.6-10.1   c10.2-5.9,26.7-5.9,37,0.1c4.8,2.8,7.4,6.4,7.7,10.1C421.3,305.3,418.7,309.4,413.4,312.5z"/>
	<path class="st45" d="M413.7,297.7h-1.4c-1.2-2-3.2-3.9-5.9-5.5c-9.7-5.6-25.3-5.6-34.9-0.1c-2.8,1.6-4.8,3.5-5.9,5.5h-1.3v4.4h0   c0.1,3.6,2.5,7.1,7.3,9.9c9.7,5.6,25.3,5.6,34.9,0.1c4.8-2.7,7.1-6.3,7.2-10h0V297.7z"/>
	<path class="st2" d="M406.5,308.2c-9.6,5.5-25.2,5.5-34.9-0.1c-9.7-5.6-9.7-14.6-0.1-20.1c9.6-5.5,25.2-5.5,34.9,0.1   C416.1,293.6,416.1,302.6,406.5,308.2z"/>
	<path class="st46" d="M401.1,305c-6.6,3.8-17.3,3.8-24,0c-6.6-3.8-6.7-10-0.1-13.8c6.6-3.8,17.3-3.8,24,0   C407.6,295,407.7,301.2,401.1,305z"/>
	<linearGradient id="SVGID_21_" gradientUnits="userSpaceOnUse" x1="372.0896" y1="293.6219" x2="405.9798" y2="293.6219">
		<stop offset="0.2174" style="stop-color:#5D7A40"/>
		<stop offset="0.2177" style="stop-color:#83A263"/>
		<stop offset="0.7242" style="stop-color:#83A263"/>
		<stop offset="0.7264" style="stop-color:#A1C77A"/>
	</linearGradient>
	<path class="st47" d="M377,292.8c6.6-3.8,17.3-3.8,24,0c3,1.7,4.6,3.9,4.9,6.2c0.4-2.8-1.2-5.7-4.9-7.8c-6.6-3.8-17.4-3.9-24,0   c-3.6,2.1-5.3,4.9-4.9,7.7C372.5,296.6,374.1,294.5,377,292.8z"/>
	<path class="st16" d="M406.5,307.3c-9.6,5.5-25.2,5.5-34.9-0.1c-4.7-2.7-7.1-6.2-7.3-9.7c-0.2,3.8,2.2,7.6,7.3,10.6   c9.7,5.6,25.3,5.6,34.9,0.1c5-2.9,7.3-6.7,7.2-10.4C413.5,301.2,411.1,304.7,406.5,307.3z"/>
	<g>
		<linearGradient id="SVGID_22_" gradientUnits="userSpaceOnUse" x1="373.1133" y1="299.8499" x2="404.9498" y2="299.8499">
			<stop offset="0.2174" style="stop-color:#5D7A40"/>
			<stop offset="0.2177" style="stop-color:#83A263"/>
			<stop offset="0.7242" style="stop-color:#83A263"/>
			<stop offset="0.7264" style="stop-color:#A1C77A"/>
		</linearGradient>
		<path class="st48" d="M404.9,298.1v2.8c0,0.2,0,0.4,0,0.6c-0.8,1.3-2.1,2.4-3.9,3.5c-6.6,3.8-17.3,3.8-24-0.1    c-1.8-1-3.1-2.2-3.9-3.5c0-0.2-0.1-0.4-0.1-0.5v-2.8h0.8c0.8-1.3,2-2.5,3.8-3.6c6.2-3.6,16.3-3.6,22.5,0c1.8,1,3.1,2.2,3.8,3.5    H404.9z"/>
		<path class="st2" d="M400.3,304.9c-6.2,3.6-16.3,3.6-22.5,0c-6.2-3.6-6.3-9.4-0.1-13c6.2-3.6,16.3-3.6,22.5,0    C406.5,295.5,406.5,301.3,400.3,304.9z"/>
		<path class="st16" d="M400.3,304.3c-6.2,3.6-16.3,3.6-22.5,0c-3-1.7-4.6-4-4.7-6.3c-0.1,2.5,1.4,4.9,4.7,6.8    c6.2,3.6,16.3,3.6,22.5,0c3.2-1.9,4.7-4.3,4.6-6.7C404.8,300.4,403.3,302.6,400.3,304.3z"/>
	</g>
	<g>
		<g>
			<path class="st49" d="M394.8,306l-0.2-0.7c-0.4,0.1-0.8,0.2-1.2,0.2l0.1,0.7C394,306.2,394.4,306.1,394.8,306z"/>
			<path class="st49" d="M396.9,305.4l-0.2-0.7c-0.4,0.1-0.8,0.3-1.1,0.4l0.2,0.7C396.2,305.6,396.5,305.5,396.9,305.4z"/>
			<path class="st49" d="M399,304.4l-0.3-0.6c-0.4,0.2-0.7,0.4-1.1,0.5l0.3,0.7C398.2,304.8,398.6,304.6,399,304.4z"/>
		</g>
		<g>
			<path class="st49" d="M388.1,306.6l0-0.7c-0.4,0-0.8,0-1.2-0.1l-0.1,0.7C387.3,306.6,387.7,306.6,388.1,306.6z"/>
			<polygon class="st49" points="390.4,306.6 390.3,305.9 389.1,306 389.1,306.7    "/>
			<path class="st49" d="M392.6,306.4l-0.1-0.7c-0.4,0.1-0.8,0.1-1.2,0.1l0.1,0.7C391.8,306.5,392.2,306.5,392.6,306.4z"/>
		</g>
		<g>
			<path class="st49" d="M381.6,305.5l0.2-0.7c-0.4-0.1-0.8-0.3-1.1-0.4l-0.3,0.7C380.8,305.2,381.2,305.3,381.6,305.5z"/>
			<path class="st49" d="M383.7,306.1l0.2-0.7c-0.4-0.1-0.8-0.2-1.2-0.3l-0.2,0.7C382.9,305.9,383.3,306,383.7,306.1z"/>
			<path class="st49" d="M385.9,306.5l0.1-0.7c-0.4-0.1-0.8-0.1-1.2-0.2l-0.1,0.7C385.1,306.4,385.5,306.4,385.9,306.5z"/>
		</g>
		<g>
			<path class="st49" d="M375.9,301.9l0.5-0.5c-0.2-0.3-0.5-0.6-0.7-0.9l-0.6,0.4C375.3,301.2,375.6,301.6,375.9,301.9z"/>
			<path class="st49" d="M377.6,303.4l0.4-0.6c-0.3-0.3-0.6-0.5-0.9-0.7l-0.5,0.5C376.9,302.9,377.2,303.2,377.6,303.4z"/>
			<path class="st49" d="M379.5,304.6l0.3-0.6c-0.3-0.2-0.7-0.4-1-0.6l-0.4,0.6C378.7,304.2,379.1,304.4,379.5,304.6z"/>
		</g>
		<g>
			<path class="st49" d="M375,295.5l0.6,0.3c0.2-0.3,0.4-0.7,0.6-1l-0.6-0.4C375.4,294.7,375.2,295.1,375,295.5z"/>
			<path class="st49" d="M374.3,297.7l0.7,0c0-0.4,0.1-0.7,0.2-1.1l-0.7-0.2C374.5,296.8,374.3,297.2,374.3,297.7z"/>
			<path class="st49" d="M374.7,299.9l0.7-0.3c-0.1-0.3-0.2-0.7-0.3-1.1l-0.7,0.1C374.4,299.1,374.5,299.5,374.7,299.9z"/>
		</g>
		<g>
			<path class="st49" d="M380.1,291.2l0.3,0.7c0.4-0.1,0.7-0.3,1.1-0.4l-0.2-0.7C380.8,290.8,380.5,291,380.1,291.2z"/>
			<path class="st49" d="M378.1,292.2l0.4,0.6c0.3-0.2,0.7-0.4,1-0.6l-0.3-0.6C378.8,291.8,378.5,292,378.1,292.2z"/>
			<path class="st49" d="M376.3,293.6l0.5,0.5c0.3-0.3,0.6-0.5,0.9-0.8l-0.4-0.6C377,293.1,376.6,293.3,376.3,293.6z"/>
		</g>
		<g>
			<path class="st49" d="M386.6,289.6l0.1,0.7c0.4,0,0.8-0.1,1.2-0.1l0-0.7C387.4,289.5,387,289.5,386.6,289.6z"/>
			<path class="st49" d="M384.4,289.9l0.1,0.7c0.4-0.1,0.8-0.1,1.2-0.2l-0.1-0.7C385.2,289.7,384.8,289.8,384.4,289.9z"/>
			<polygon class="st49" points="382.2,290.4 382.4,291.1 383.6,290.8 383.4,290.1    "/>
		</g>
		<g>
			<polygon class="st49" points="393.3,289.8 393.1,290.5 394.3,290.8 394.5,290.1    "/>
			<path class="st49" d="M391,289.5l-0.1,0.7c0.4,0,0.8,0.1,1.2,0.1l0.1-0.7C391.9,289.6,391.5,289.6,391,289.5z"/>
			<path class="st49" d="M388.8,289.4l0,0.7c0.4,0,0.8,0,1.2,0l0-0.7C389.7,289.5,389.2,289.4,388.8,289.4z"/>
		</g>
		<g>
			<path class="st49" d="M399.6,292.1l-0.4,0.6c0.3,0.2,0.7,0.4,1,0.7l0.4-0.6C400.3,292.5,399.9,292.3,399.6,292.1z"/>
			<path class="st49" d="M397.6,291.1l-0.3,0.7c0.4,0.2,0.7,0.3,1.1,0.5l0.3-0.6C398.3,291.4,397.9,291.2,397.6,291.1z"/>
			<path class="st49" d="M395.5,290.3l-0.2,0.7c0.4,0.1,0.8,0.2,1.1,0.4l0.2-0.7C396.2,290.6,395.9,290.4,395.5,290.3z"/>
		</g>
		<g>
			<path class="st49" d="M403.7,297.3l-0.7,0.1c0,0.4,0.1,0.7,0,1.1l0.7,0.1C403.8,298.1,403.7,297.7,403.7,297.3z"/>
			<path class="st49" d="M402.9,295.1l-0.6,0.4c0.2,0.3,0.4,0.7,0.5,1l0.7-0.2C403.3,295.9,403.1,295.5,402.9,295.1z"/>
			<path class="st49" d="M401.4,293.4l-0.5,0.5c0.3,0.3,0.6,0.5,0.8,0.8l0.6-0.5C402,294,401.7,293.7,401.4,293.4z"/>
		</g>
		<g>
			<path class="st49" d="M400.9,303.2l-0.4-0.6c-0.3,0.3-0.6,0.5-1,0.7l0.4,0.6C400.2,303.7,400.6,303.5,400.9,303.2z"/>
			<path class="st49" d="M402.5,301.6l-0.6-0.4c-0.2,0.3-0.5,0.6-0.8,0.9l0.5,0.5C402,302.3,402.2,302,402.5,301.6z"/>
			<path class="st49" d="M403.5,299.6l-0.7-0.2c-0.1,0.4-0.3,0.7-0.4,1l0.6,0.3C403.3,300.4,403.4,300,403.5,299.6z"/>
		</g>
	</g>
	<path class="st45" d="M417.5,292.4h-1.4c-1.2-2-3.2-3.9-5.9-5.5c-9.7-5.6-25.3-5.6-34.9-0.1c-2.8,1.6-4.8,3.5-5.9,5.5h-1.3v4.4h0   c0.1,3.6,2.5,7.1,7.3,9.9c9.7,5.6,25.3,5.6,34.9,0.1c4.8-2.7,7.1-6.3,7.2-10h0V292.4z"/>
	<path class="st2" d="M410.4,302.9c-9.6,5.5-25.2,5.5-34.9-0.1c-9.7-5.6-9.7-14.6-0.1-20.1c9.6-5.5,25.2-5.5,34.9,0.1   C419.9,288.4,420,297.4,410.4,302.9z"/>
	<path class="st46" d="M404.9,299.8c-6.6,3.8-17.3,3.8-24,0c-6.6-3.8-6.7-10-0.1-13.8c6.6-3.8,17.3-3.8,24,0   C411.5,289.8,411.5,295.9,404.9,299.8z"/>
	<linearGradient id="SVGID_23_" gradientUnits="userSpaceOnUse" x1="375.9433" y1="288.378" x2="409.8336" y2="288.378">
		<stop offset="0.2174" style="stop-color:#5D7A40"/>
		<stop offset="0.2177" style="stop-color:#83A263"/>
		<stop offset="0.7242" style="stop-color:#83A263"/>
		<stop offset="0.7264" style="stop-color:#A1C77A"/>
	</linearGradient>
	<path class="st50" d="M380.9,287.5c6.6-3.8,17.3-3.8,24,0c3,1.7,4.6,3.9,4.9,6.2c0.4-2.8-1.2-5.7-4.9-7.8c-6.6-3.8-17.4-3.9-24,0   c-3.6,2.1-5.3,4.9-4.9,7.7C376.3,291.4,377.9,289.2,380.9,287.5z"/>
	<path class="st16" d="M410.4,302.1c-9.6,5.5-25.2,5.5-34.9-0.1c-4.7-2.7-7.1-6.2-7.3-9.7c-0.2,3.8,2.2,7.6,7.3,10.6   c9.7,5.6,25.3,5.6,34.9,0.1c5-2.9,7.3-6.7,7.2-10.4C417.3,296,415,299.4,410.4,302.1z"/>
	<g>
		<linearGradient id="SVGID_24_" gradientUnits="userSpaceOnUse" x1="376.9668" y1="294.606" x2="408.8036" y2="294.606">
			<stop offset="0.2174" style="stop-color:#5D7A40"/>
			<stop offset="0.2177" style="stop-color:#83A263"/>
			<stop offset="0.7242" style="stop-color:#83A263"/>
			<stop offset="0.7264" style="stop-color:#A1C77A"/>
		</linearGradient>
		<path class="st51" d="M408.8,292.8v2.8c0,0.2,0,0.4,0,0.6c-0.8,1.3-2.1,2.4-3.9,3.5c-6.6,3.8-17.3,3.8-24-0.1    c-1.8-1-3.1-2.2-3.9-3.5c0-0.2-0.1-0.4-0.1-0.5v-2.8h0.8c0.8-1.3,2-2.5,3.8-3.6c6.2-3.6,16.3-3.6,22.5,0c1.8,1,3.1,2.2,3.8,3.5    H408.8z"/>
		<path class="st2" d="M404.2,299.6c-6.2,3.6-16.3,3.6-22.5,0c-6.2-3.6-6.3-9.4-0.1-13c6.2-3.6,16.3-3.6,22.5,0    C410.4,290.2,410.4,296,404.2,299.6z"/>
		<path class="st16" d="M404.2,299.1c-6.2,3.6-16.3,3.6-22.5,0c-3-1.7-4.6-4-4.7-6.3c-0.1,2.5,1.4,4.9,4.7,6.8    c6.2,3.6,16.3,3.6,22.5,0c3.2-1.9,4.7-4.3,4.6-6.7C408.7,295.1,407.1,297.4,404.2,299.1z"/>
	</g>
	<g>
		<g>
			<path class="st49" d="M398.7,300.8l-0.2-0.7c-0.4,0.1-0.8,0.2-1.2,0.2l0.1,0.7C397.8,300.9,398.3,300.9,398.7,300.8z"/>
			<path class="st49" d="M400.8,300.1l-0.2-0.7c-0.4,0.1-0.8,0.3-1.1,0.4l0.2,0.7C400,300.4,400.4,300.2,400.8,300.1z"/>
			<path class="st49" d="M402.8,299.2l-0.3-0.6c-0.4,0.2-0.7,0.4-1.1,0.5l0.3,0.7C402.1,299.6,402.5,299.4,402.8,299.2z"/>
		</g>
		<g>
			<path class="st49" d="M392,301.4l0-0.7c-0.4,0-0.8,0-1.2-0.1l-0.1,0.7C391.2,301.4,391.6,301.4,392,301.4z"/>
			<polygon class="st49" points="394.2,301.4 394.2,300.7 393,300.7 393,301.4    "/>
			<path class="st49" d="M396.4,301.2l-0.1-0.7c-0.4,0.1-0.8,0.1-1.2,0.1l0.1,0.7C395.6,301.3,396,301.2,396.4,301.2z"/>
		</g>
		<g>
			<path class="st49" d="M385.4,300.2l0.2-0.7c-0.4-0.1-0.8-0.3-1.1-0.4l-0.3,0.7C384.6,299.9,385,300.1,385.4,300.2z"/>
			<path class="st49" d="M387.6,300.8l0.2-0.7c-0.4-0.1-0.8-0.2-1.2-0.3l-0.2,0.7C386.8,300.6,387.2,300.7,387.6,300.8z"/>
			<path class="st49" d="M389.8,301.2l0.1-0.7c-0.4-0.1-0.8-0.1-1.2-0.2l-0.1,0.7C388.9,301.1,389.3,301.2,389.8,301.2z"/>
		</g>
		<g>
			<path class="st49" d="M379.7,296.7l0.5-0.5c-0.2-0.3-0.5-0.6-0.7-0.9l-0.6,0.4C379.2,296,379.5,296.3,379.7,296.7z"/>
			<path class="st49" d="M381.4,298.2l0.4-0.6c-0.3-0.3-0.6-0.5-0.9-0.7l-0.5,0.5C380.7,297.7,381.1,297.9,381.4,298.2z"/>
			<path class="st49" d="M383.3,299.3l0.3-0.6c-0.3-0.2-0.7-0.4-1-0.6l-0.4,0.6C382.6,299,383,299.1,383.3,299.3z"/>
		</g>
		<g>
			<path class="st49" d="M378.8,290.2l0.6,0.3c0.2-0.3,0.4-0.7,0.6-1l-0.6-0.4C379.2,289.5,379,289.9,378.8,290.2z"/>
			<path class="st49" d="M378.2,292.4l0.7,0c0-0.4,0.1-0.7,0.2-1.1l-0.7-0.2C378.3,291.6,378.2,292,378.2,292.4z"/>
			<path class="st49" d="M378.5,294.7l0.7-0.3c-0.1-0.3-0.2-0.7-0.3-1.1l-0.7,0.1C378.3,293.9,378.4,294.3,378.5,294.7z"/>
		</g>
		<g>
			<path class="st49" d="M383.9,285.9l0.3,0.7c0.4-0.1,0.7-0.3,1.1-0.4l-0.2-0.7C384.7,285.6,384.3,285.8,383.9,285.9z"/>
			<path class="st49" d="M382,287l0.4,0.6c0.3-0.2,0.7-0.4,1-0.6l-0.3-0.6C382.7,286.6,382.3,286.8,382,287z"/>
			<path class="st49" d="M380.2,288.4l0.5,0.5c0.3-0.3,0.6-0.5,0.9-0.8l-0.4-0.6C380.8,287.8,380.5,288.1,380.2,288.4z"/>
		</g>
		<g>
			<path class="st49" d="M390.4,284.3l0.1,0.7c0.4,0,0.8-0.1,1.2-0.1l0-0.7C391.3,284.2,390.8,284.3,390.4,284.3z"/>
			<path class="st49" d="M388.2,284.6l0.1,0.7c0.4-0.1,0.8-0.1,1.2-0.2l-0.1-0.7C389,284.5,388.6,284.5,388.2,284.6z"/>
			<polygon class="st49" points="386.1,285.2 386.3,285.8 387.4,285.5 387.3,284.8    "/>
		</g>
		<g>
			<polygon class="st49" points="397.1,284.6 397,285.3 398.2,285.5 398.3,284.8    "/>
			<path class="st49" d="M394.9,284.3l-0.1,0.7c0.4,0,0.8,0.1,1.2,0.1l0.1-0.7C395.7,284.4,395.3,284.3,394.9,284.3z"/>
			<path class="st49" d="M392.7,284.2l0,0.7c0.4,0,0.8,0,1.2,0l0-0.7C393.5,284.2,393.1,284.2,392.7,284.2z"/>
		</g>
		<g>
			<path class="st49" d="M403.4,286.8l-0.4,0.6c0.3,0.2,0.7,0.4,1,0.7l0.4-0.6C404.1,287.3,403.8,287.1,403.4,286.8z"/>
			<path class="st49" d="M401.4,285.8l-0.3,0.7c0.4,0.2,0.7,0.3,1.1,0.5l0.3-0.6C402.2,286.1,401.8,286,401.4,285.8z"/>
			<path class="st49" d="M399.3,285.1l-0.2,0.7c0.4,0.1,0.8,0.2,1.1,0.4l0.2-0.7C400.1,285.3,399.7,285.2,399.3,285.1z"/>
		</g>
		<g>
			<path class="st49" d="M407.6,292l-0.7,0.1c0,0.4,0.1,0.7,0,1.1l0.7,0.1C407.6,292.9,407.6,292.5,407.6,292z"/>
			<path class="st49" d="M406.7,289.9l-0.6,0.4c0.2,0.3,0.4,0.7,0.5,1l0.7-0.2C407.1,290.6,407,290.3,406.7,289.9z"/>
			<path class="st49" d="M405.3,288.2l-0.5,0.5c0.3,0.3,0.6,0.5,0.8,0.8l0.6-0.5C405.9,288.7,405.6,288.5,405.3,288.2z"/>
		</g>
		<g>
			<path class="st49" d="M404.7,298l-0.4-0.6c-0.3,0.3-0.6,0.5-1,0.7l0.4,0.6C404.1,298.5,404.4,298.2,404.7,298z"/>
			<path class="st49" d="M406.3,296.4l-0.6-0.4c-0.2,0.3-0.5,0.6-0.8,0.9l0.5,0.5C405.8,297,406.1,296.7,406.3,296.4z"/>
			<path class="st49" d="M407.4,294.4l-0.7-0.2c-0.1,0.4-0.3,0.7-0.4,1l0.6,0.3C407.1,295.2,407.3,294.8,407.4,294.4z"/>
		</g>
	</g>
	<path class="st45" d="M412.9,285.3h-1.4c-1.2-2-3.2-3.9-5.9-5.5c-9.7-5.6-25.3-5.6-34.9-0.1c-2.8,1.6-4.8,3.5-5.9,5.5h-1.3v4.4h0   c0.1,3.6,2.5,7.1,7.3,9.9c9.7,5.6,25.3,5.6,34.9,0.1c4.8-2.7,7.1-6.3,7.2-10h0V285.3z"/>
	<path class="st2" d="M405.7,295.8c-9.6,5.5-25.2,5.5-34.9-0.1c-9.7-5.6-9.7-14.6-0.1-20.1c9.6-5.5,25.2-5.5,34.9,0.1   C415.3,281.2,415.3,290.2,405.7,295.8z"/>
	<path class="st16" d="M405.7,294.9c-9.6,5.5-25.2,5.5-34.9-0.1c-4.7-2.7-7.1-6.2-7.3-9.7c-0.2,3.8,2.2,7.6,7.3,10.6   c9.7,5.6,25.3,5.6,34.9,0.1c5-2.9,7.3-6.7,7.2-10.4C412.7,288.8,410.3,292.3,405.7,294.9z"/>
</g>
</svg>