<svg xmlns="http://www.w3.org/2000/svg" xmlns:xlink="http://www.w3.org/1999/xlink" version="1.1" id="Layer_1" x="0px" y="0px" viewBox="0 0 823 823" style="enable-background:new 0 0 823 823;" xml:space="preserve">
<style xmlns="http://www.w3.org/2000/svg" type="text/css">
	.st0{clip-path:url(#SVGID_2_);}
	.st1{opacity:0.33;fill:#00aef0;}
	.st2{opacity:0.46;}
	.st3{fill:#00aef0;}
	.st4{fill:#2A94F4;}
	.st5{fill:#FFFFFF;}
	.st6{fill:#CCE9FF;}
	.st7{fill:#FFE3CA;}
	.st8{fill:#0B4870;}
	.st9{fill:#0E538C;}
	.st10{fill:#F7F7F7;}
	.st11{fill:#FCD2B1;}
	.st12{fill:#E89CC3;}
	.st13{fill:#4D8AF0;}
	.st14{fill:#00455B;}
	.st15{fill:#6EA5F4;}
</style>
<g xmlns="http://www.w3.org/2000/svg">
	<defs>
		<rect id="SVGID_1_" width="823" height="823"/>
	</defs>
	<clipPath id="SVGID_2_">
		<use xmlns:xlink="http://www.w3.org/1999/xlink" xlink:href="#SVGID_1_" style="overflow:visible;"/>
	</clipPath>
	<g class="st0">
		<path class="st1" d="M897,439.2c0-0.4-0.1-0.8-0.1-1.2c-2.4-19.1-16.1-35.3-35.3-40.4c-1.4-0.4-2.8-0.7-4.2-0.9    c-2.5-0.4-5-0.7-7.5-0.7c-0.5-30.6-22.7-57.5-53.9-62.9c-33.6-5.8-65.6,15.3-74,47.7c-0.9-0.2-1.7-0.4-2.6-0.5    c-1.9-21-17.7-38.9-39.4-42.7c-24.7-4.3-48.1,11.2-54.3,35c-0.6-0.1-1.3-0.3-1.9-0.4c-3.9-0.7-7.7-0.7-11.3-0.1    c-9.2,1.4-17.4,6.4-22.9,13.7c-1.9-0.9-4-1.6-6.1-1.9c-0.9-0.2-1.8-0.3-2.7-0.3c-7-10.1-18-17.5-31.1-19.8    c-12.5-2.2-24.7,0.8-34.5,7.3c-9.3-16.1-25.4-28.1-45.2-31.6c-33.6-5.8-65.6,15.3-74,47.7c-0.5-0.1-1.1-0.2-1.6-0.3    c-8-6-16.5-9.4-24.7-10.9c-4.7-0.8-9.4-1-13.9-0.5c-5.9-18.9-19-35.1-36.7-44.6c-7.1-3.8-14.9-6.6-23.2-8    c-1.4-0.2-2.8-0.4-4.2-0.6c4.7-53-32-101.7-85.4-110.9c-39.6-6.9-77.9,9.9-100.4,40c-3.7-3.1-7.8-5.8-12.1-8.1    c-7.1-3.8-14.9-6.6-23.2-8c-1.4-0.2-2.8-0.4-4.2-0.6c4.7-53-32-101.7-85.4-110.9c-49.7-8.6-97.3,19.9-114.4,65.4    c-3.8-1.3-7.6-2.3-11.7-3c-2.3-0.4-4.5-0.7-6.8-0.8c-0.4,0-0.8,0-1.2-0.1c3.9,50.2,1.3,100-2.3,150c29.5,27.5,54.9,56.2,48.7,68.7    c-0.3,0.5-0.6,1.1-0.8,1.7c-2.9,6.1-5,12.7-6.2,19.7l-0.1,0.5c-1.3,7.7-0.6,15.4,1.8,22.3l619.2,130.4L828.3,634l30.1-174.3    l32.3,5.6c2.9-3.6,4.9-8,5.8-12.8l0.1-0.3C897.3,447.8,897.5,443.4,897,439.2z"/>
		<g class="st2">
			<path class="st3" d="M978,221c-0.2-0.3-0.5-0.6-0.7-0.9c-12.2-14.8-32.5-21.2-51.4-15.2c-1.3,0.4-2.7,0.9-4,1.5     c-2.4,1-4.6,2.2-6.7,3.4c-16.8-25.5-49.9-36.4-79.2-24.2c-31.5,13.1-47.2,48-37,79.9c-0.8,0.3-1.7,0.6-2.5,0.9     c-12.9-16.7-35.7-23.4-56.1-14.9c-23.1,9.6-34.7,35.2-27.1,58.7c-0.6,0.2-1.2,0.4-1.8,0.7c-3.6,1.5-6.8,3.5-9.6,6     c-7,6.1-11.3,14.7-12,23.8c-2.1,0.3-4.2,0.8-6.2,1.7c-0.8,0.3-1.6,0.7-2.4,1.2c-11.4-4.8-24.5-5.2-36.8-0.1     c-11.7,4.9-20.5,13.9-25.3,24.6c-16.5-8.6-36.6-10.1-55.1-2.4c-31.5,13.1-47.2,48-37,79.9c-0.5,0.2-1,0.4-1.5,0.6     c-10-0.8-19,0.8-26.7,4.1c-4.4,1.8-8.5,4.2-12,7c-15.1-12.8-34.8-19.5-54.9-18c-8,0.6-16.1,2.4-23.9,5.7     c-1.3,0.6-2.6,1.1-3.9,1.8c-24.4-47.3-81.4-68.7-131.5-48c-37.1,15.4-60.5,50-63.4,87.5c-4.8-0.6-9.7-0.7-14.6-0.4     c-8,0.6-16.1,2.4-23.9,5.7c-1.3,0.6-2.6,1.1-3.9,1.8c-24.4-47.3-81.4-68.7-131.5-48c-46.6,19.4-71.5,68.8-61.6,116.5     c-3.8,0.9-7.7,2.2-11.4,3.7c-2.1,0.9-4.2,1.9-6.2,2.9c-0.3,0.2-0.7,0.4-1,0.6c30.2,40.3,54.7,83.8,78.4,127.9     c39.7,7.5,76.5,18.1,77.9,31.9c0.1,0.6,0.1,1.2,0.2,1.9c0.8,6.7,2.6,13.4,5.3,20l0.2,0.5c3.1,7.2,7.8,13.3,13.5,17.9l592.8-221.4     l301-125.1L956.4,259l30.2-12.6c0.5-4.6-0.1-9.4-2-13.9l-0.1-0.3C982.8,228.1,980.6,224.3,978,221z"/>
		</g>
		<path class="st4" d="M1074.2,496.3c-0.2-0.6-0.3-1.2-0.5-1.8c-8.9-29.2-34.8-51-66.2-53.7c-2.2-0.2-4.5-0.3-6.8-0.3    c-4.1,0-8.1,0.3-12,0.9c-9.1-47.8-51.1-83.9-101.6-83.9c-54.2,0-98.6,41.7-103,94.7c-1.4-0.1-2.8-0.1-4.3-0.1    c-8.5,0-16.6,1.4-24.2,3.9c-4.7,1.6-9.1,3.6-13.3,6c-17.1-33.5-51.9-56.5-92.1-56.5c-54.2,0-98.6,41.7-103,94.7    c-1.4-0.1-2.8-0.1-4.3-0.1c-8.5,0-16.6,1.4-24.2,3.9c-19,6.4-34.7,20.1-43.8,37.7c-4.4-1.2-9-1.9-13.8-1.9    c-8.4,0-17.3,1.9-26.2,6.5c-0.5,0-1.1,0-1.6,0c-2.8-33.4-30.7-59.6-64.8-59.6c-20.1,0-38,9.1-49.9,23.4    c-8.6-8.1-20.1-13.1-32.8-13.1c-13.3,0-25.3,5.4-34,14.2c-0.9-0.1-1.8-0.1-2.7-0.1c-2.2,0-4.4,0.3-6.4,0.9    c-4.2-8.2-11.4-14.5-20.2-17.4c-3.5-1.2-7.3-1.8-11.2-1.8c-0.7,0-1.3,0-2,0.1c-2-24.5-22.5-43.7-47.6-43.7    c-22.1,0-40.6,15-46.1,35.3c-0.9,0-1.8,0-2.7,0.1c-2.8-33.4-30.7-59.6-64.8-59.6c-31.7,0-58.1,22.7-63.9,52.8    c-2.5-0.4-5-0.6-7.5-0.6c-1.4,0-2.9,0.1-4.3,0.2c-19.7,1.7-36,15.4-41.6,33.8c-0.1,0.4-0.2,0.7-0.3,1.1c-1.1,4.1-1.8,8.4-1.8,12.9    v0.3c0,4.9,1.3,9.6,3.5,13.6H-35V716h326l632.4-23c3.5-6.4,5.6-13.8,5.6-21.7v-0.5c0-7.1-1-14-2.8-20.5c-0.2-0.6-0.3-1.2-0.5-1.8    c-8.9-29.2-34.8-51-66.2-53.7c-2.2-0.2-4.5-0.3-6.8-0.3c-4.1,0-8.1,0.3-12,0.9c-0.9-4.8-2.2-9.5-3.7-14c1.9-5,3-10.4,3-16.1v-0.5    c0-7.1-1-14-2.8-20.5c-0.2-0.6-0.3-1.2-0.5-1.8c-0.4-1.2-0.8-2.4-1.2-3.5h235.9c3.5-6.4,5.6-13.8,5.6-21.7v-0.5    C1077,509.7,1076,502.8,1074.2,496.3z"/>
		<ellipse class="st5" cx="411.5" cy="757.2" rx="454" ry="186.2"/>
		<ellipse class="st6" cx="432" cy="639" rx="130" ry="45"/>
		<path class="st3" d="M464.9,363.1c0,0,32.2,14.8,50.9-16.7l-10.2-7.4c0,0-30,18.2-55.7-4.8C449.9,334.2,444.5,350.1,464.9,363.1z"/>
		<path class="st7" d="M316.2,253.3c0,0-0.1,0.2-0.2,0.5c-0.7,1.8-2.2,8,2.4,17.2c0.3-0.9,8.8-19.2,8.8-19.2"/>
		<g>
			<path class="st7" d="M536.7,399.3c0,0,48-3.3,43.1,2.6c0,0-1.7,1.9-10.9,2.2c-2.3,0.1-8.2,0.4-11.8,2.5c0,0-7.1,2.6-9.5,7     c0,0,3.8,4.1,5.4,4.7c6.1,2.1,4.6,2.5,4.9,5.8c0,0-8.3-2.1-11.1-2.9c0,0-12.4-6.2-15.4-10.8C528.4,405.7,527.3,404.6,536.7,399.3     z"/>
		</g>
		<path class="st4" d="M482.4,345.5c0,0,12.1,40.4,52.3,51.4c0,0-2.3,10.1-4.6,16c0,0-39.4-1.7-61-32.9    C469,380,465.7,342.1,482.4,345.5z"/>
		<path class="st7" d="M447.4,545.9l-0.8,28.6c0,0,13.9,5.9,17.8,0v-27L447.4,545.9z"/>
		<polygon class="st7" points="403.4,554.4 406.5,586.4 422.7,580.5 423.5,571.2 421.2,548.5   "/>
		<path class="st8" d="M396,433.3v95l4.4,32.2c0,0,14.8,0,26.6-8.1l-4.4-25.8l8.9-72.5l11.8,70.9l1.5,24.2c0,0,13.3,6.4,22.2,0    l1.5-35.4l1.5-87C469.9,426.9,401.9,407.5,396,433.3z"/>
		<path class="st9" d="M467,568.8c0,0-16.7,8.2-22.6-6.7l-3.6,43.3c0,0,12.3,31.6,33.2,19.5c0,0,9.1-4.3-8.3-25.3L467,568.8z"/>
		<path class="st8" d="M475.1,615.6c0,0,4.3,5.3,1,13.5c0,0-7.8,8.9-21.9,1.2c0,0-11.6-6.7-15.5-20.3c0,0,0.4-6.3,2.1-6.8    c0,0,12.2,21.5,19.6,21.4C460.5,624.7,476.7,626.7,475.1,615.6z"/>
		<path class="st9" d="M403.4,575.3c0,0,17.4,6.1,21.8-9.5l8.1,42.6c0,0-8.9,32.9-30.9,23.5c0,0-9.5-3.2,5.6-26.2L403.4,575.3z"/>
		<path class="st8" d="M400.2,622.9c0,0-3.7,5.8,0.4,13.6c0,0,8.6,7.9,21.9-1.6c0,0,10.8-8.1,13.3-22.1c0,0-1-6.2-2.8-6.5    c0,0-9.8,22.8-17.2,23.7C415.7,630.1,399.8,634.1,400.2,622.9z"/>
		<path class="st10" d="M407.8,423.7c0,0,34.3,13.1,48.9,4.3l3.3-85.4l-39.5-7.9C420.5,334.7,397.4,394.7,407.8,423.7z"/>
		<path class="st4" d="M392,364.8c0,0-18.8-11.4-37-30c-6.1-6.2-12.3-13.3-17.6-21c-8-11.6-14.2-24.7-16.2-38.6l10.8-12.7    c0,0,29.1,53.5,66.9,62.2C398.9,324.6,417.2,360,392,364.8z"/>
		<path class="st4" d="M451.3,372.1c0,0-7.7,55.4,3.8,66.2c6.7,6.4,38.9-3.4,34.5-9.8c-20-29-8.4-82.6-8.4-82.6    S453.4,368,451.3,372.1z"/>
		<path class="st4" d="M403.8,331.3l-8.9,10.3c0,0-19.6,63.3-10.7,93.4c0,0,37.6,4.3,35.4-2.9c-12.4-39.7-2.5-71.5-2.5-71.5    L403.8,331.3z"/>
		<path class="st9" d="M459.3,333.1l23.2,12.4c0,0-17.8,27-31.4,26.9L459.3,333.1z"/>
		<path class="st9" d="M424.7,324.5l-25.8,0.2c0,0,5.2,32.7,17.5,39.1L424.7,324.5z"/>
		<path class="st3" d="M432.1,314.9c0,0-21.9,4.4-9.9,27.1c0,0,33.9,18.3,46.6-2.2C468.7,339.9,475,300,432.1,314.9z"/>
		<path class="st11" d="M432.4,299.1l2.8,31.8c0,0,2.4,5.5,14.6,3.3c4.9-0.9,9.6-1.7,11.4-7.2l-2.9-30.9L432.4,299.1z"/>
		<path class="st7" d="M400.6,270.3c0,0-8.3,3.9-1.6,22.2l2.4,2l3.5-10.1L400.6,270.3z"/>
		<path class="st7" d="M502.3,258.7c0,0,13.7,69.7-58.2,72.1c0,0-56.7-7.3-43.4-46.6c0,0,1.4-20.5,1.8-26.1c1-14.8-3-26.7,23.7-35.1    C426.3,222.9,484.6,207.5,502.3,258.7z"/>
		<path class="st3" d="M398.6,261.2c0,0-1.3-41.4,26.4-44.5c18.2-16.9,49.9-5.6,49.9-5.6c34.8,15.2,33.5,55.5,31.3,73.7    c-0.8,6.4-3.5,5.6-3.5,5.6c-1.5-9.8-7.6-11.8-7.6-11.8c-10,2.9-39.1-23.6-39.1-23.6c-27.1-17.4-44.5-4.2-45.4-5.2    c-0.5,1.7-3-10.2-7.3,16.9c0,0-1.3,25.7-2.9,13.4C399.9,275.8,397.3,271.8,398.6,261.2z"/>
		<path class="st7" d="M497.8,281.5c0,0,24.7,0.6,9.2,20.8c0,0-12.3,14.1-19.1,5.4C487.9,307.7,485.4,285.2,497.8,281.5z"/>
		<path class="st3" d="M486.5,264.9c0,0,8,15.7,4.4,34.3c0,0,2.9,0.1,5.8-5.1c2.9-5.1,6.2-12.8,3.7-21    C500.4,273.1,496.4,263.9,486.5,264.9z"/>
		<path class="st12" d="M409.7,217.5c0,0-10.1,3.8-6.5,13.4c0,0,1,1.8,2.6-0.5c0,0,3.8-7,8.2-9.2    C413.9,221.2,413.9,216.3,409.7,217.5z"/>
		<path class="st3" d="M430.1,244.7c0,0,14.3,20.7,25.4,23.2c0,0-7.3-11.9-9.1-22C446.4,245.9,429.1,233.9,430.1,244.7z"/>
		<path class="st4" d="M499.7,258.7c0,0,8.8,1.7,7.1,15.8c0,0,8.8-17.6-3.9-23.6L499.7,258.7z"/>
		<polygon class="st13" points="458.5,233 456.1,240.3 494.6,261.5 501.1,257.5 503.7,249.4   "/>
		<path class="st9" d="M456.1,240.3c-2.9,10.5,5,22.4,17.7,26.5c12.6,4.1,25.2-1,28.1-11.5c2.9-10.5-5-22.4-17.7-26.5    C471.6,224.7,459,229.8,456.1,240.3z"/>
		<path class="st4" d="M457.8,235c-2.9,10.5,5,22.4,17.7,26.5c12.6,4.1,25.2-1,28.1-11.5c2.9-10.5-5-22.4-17.7-26.5    C473.3,219.4,460.7,224.5,457.8,235z"/>
		<path class="st6" d="M463.1,236.8c-2.2,8,3.8,17.1,13.5,20.3c8.1,2.6,16.1,0.4,19.8-5.1c0.8-1.1,1.3-2.3,1.7-3.7    c2.2-8-3.9-17.1-13.5-20.3c-6.1-2-12.2-1.2-16.4,1.7C465.8,231.4,464,233.8,463.1,236.8z"/>
		<polygon class="st10" points="476.3,237.3 488.3,258.1 494.7,254.6 480.9,236.9   "/>
		<path class="st4" d="M461.5,228.5l-3.8,7.4c0,0-6.2-5.2-17.2-1.8l2.9-6.5C443.4,227.6,451.8,221.8,461.5,228.5z"/>
		<polygon class="st9" points="394.9,402.7 384.1,418.7 386.4,423.8 398,405.3   "/>
		<polygon class="st9" points="462.9,402.7 473.7,418.7 471.4,423.8 459.8,405.3   "/>
		<polygon class="st9" points="533.1,392.6 526.2,413.7 534.7,415.4 541.6,396   "/>
		<path class="st14" d="M345.3,225.9h21.3l0.1-4.7l0.2-9.9l0.3-13.8c-11-3.3-15.1,11.5-15.1,11.5L345.3,225.9z"/>
		<path class="st9" d="M347.7,225.9H369l0.1-4.7l0.2-9.9l0.3-13.8c-11-3.3-15.1,11.5-15.1,11.5L347.7,225.9z"/>
		<path class="st6" d="M342.4,255.1c0,0,24-5.4,26.9-27.8c0.3-2,0-8,0-8h-28.1C341.1,219.3,332,245.4,342.4,255.1z"/>
		<rect x="285.4" y="219.3" class="st6" width="57" height="35.8"/>
		<path class="st9" d="M285.7,219.3c0,0-32.2,4-31.4,23.3c0,0,2.1,12.7,33.2,12.5C287.5,255.1,291.7,227.5,285.7,219.3z"/>
		<path class="st7" d="M329.6,242.4c0,0-6.8-2.4-5.9,10.6c0,0-12.4,13.1-2.4,22.1L330,262v-7.6C330,254.4,331.1,248.3,329.6,242.4z"/>
		<path class="st8" d="M367.1,241.3l4.3-0.1v1.6c0,0-10.9,5.1-31.6,2.3c0,0-20.7-2.5-33-12l0.2-1.6l38.5,9.4L367.1,241.3z"/>
		<path class="st9" d="M306.9,231.6c0,0,2.4,1.5,6.7,3.5c2,0.9,4.5,2,7.3,3c12,4.4,30.4,8.4,50.4,3.2l-22.6-6.1l-8.1-2.2l-5-1.4    H306.9z"/>
		<path class="st9" d="M334.3,265.3c0,0-9.2,12.7-12.6,14.5l-2-5.8l10.6-14.8L334.3,265.3z"/>
		<polygon class="st15" points="398.5,231.4 398.9,239.2 441.9,242 446.5,235.5 445.9,227   "/>
		<path class="st9" d="M398.9,239.2c1.1,10.9,12.7,18.4,25.8,16.7c13.1-1.6,22.8-11.8,21.7-22.7c-1.1-10.9-12.7-18.4-25.8-16.7    C407.5,218.1,397.8,228.3,398.9,239.2z"/>
		<path class="st4" d="M398.5,233.6c1.1,10.9,12.7,18.4,25.8,16.7c13.1-1.6,22.8-11.8,21.7-22.7c-1.1-10.9-12.7-18.4-25.8-16.7    C407.1,212.5,397.4,222.7,398.5,233.6z"/>
		<path class="st6" d="M404.1,232.9c0.9,8.3,9.7,14.1,19.8,12.8c8.4-1,14.9-6.6,16.4-13.3c0.3-1.3,0.4-2.7,0.2-4.1    c-0.9-8.3-9.7-14.1-19.8-12.8c-6.3,0.8-11.7,4.2-14.5,8.7C404.6,226.8,403.8,229.8,404.1,232.9z"/>
		<polygon class="st10" points="417.1,226.6 435.7,240.6 440.3,234.5 421.2,224.2   "/>
		<path id="XMLID_7_" class="st3" d="M293.2,165.6c-3.3,1.6-5,3.3-6.5,6.5c-0.5,1-1.8,1-2.3,0c-1.6-3.3-3.3-5-6.5-6.5    c-1-0.5-1-1.8,0-2.3c3.3-1.6,5-3.3,6.5-6.5c0.5-1,1.8-1,2.3,0c1.6,3.3,3.3,5,6.5,6.5C294.2,163.8,294.2,165.2,293.2,165.6z"/>
		<path id="XMLID_6_" class="st3" d="M175.5,300.9c5.9,2.8,9,6,11.9,11.9c0.9,1.8,3.4,1.8,4.2,0c2.8-5.9,6-9,11.9-11.9    c1.8-0.9,1.8-3.4,0-4.2c-5.9-2.8-9-6-11.9-11.9c-0.9-1.8-3.4-1.8-4.2,0c-2.8,5.9-6,9-11.9,11.9C173.7,297.5,173.7,300,175.5,300.9    z"/>
		<path id="XMLID_5_" class="st3" d="M207.2,276.2c3.3,1.6,5,3.3,6.5,6.5c0.5,1,1.8,1,2.3,0c1.6-3.3,3.3-5,6.5-6.5    c1-0.5,1-1.8,0-2.3c-3.3-1.6-5-3.3-6.5-6.5c-0.5-1-1.8-1-2.3,0c-1.6,3.3-3.3,5-6.5,6.5C206.2,274.3,206.2,275.7,207.2,276.2z"/>
		<path id="XMLID_4_" class="st3" d="M690.7,256.9c-5.9,2.8-9,6-11.9,11.9c-0.9,1.8-3.4,1.8-4.2,0c-2.8-5.9-6-9-11.9-11.9    c-1.8-0.9-1.8-3.4,0-4.2c5.9-2.8,9-6,11.9-11.9c0.9-1.8,3.4-1.8,4.2,0c2.8,5.9,6,9,11.9,11.9C692.4,253.5,692.4,256,690.7,256.9z"/>
		<path id="XMLID_3_" class="st3" d="M659,232.2c-3.3,1.6-5,3.3-6.5,6.5c-0.5,1-1.8,1-2.3,0c-1.6-3.3-3.3-5-6.5-6.5    c-1-0.5-1-1.8,0-2.3c3.3-1.6,5-3.3,6.5-6.5c0.5-1,1.8-1,2.3,0c1.6,3.3,3.3,5,6.5,6.5C660,230.3,660,231.7,659,232.2z"/>
		<path id="XMLID_2_" class="st3" d="M596.2,284.6c-3.3,1.6-5,3.3-6.5,6.5c-0.5,1-1.8,1-2.3,0c-1.6-3.3-3.3-5-6.5-6.5    c-1-0.5-1-1.8,0-2.3c3.3-1.6,5-3.3,6.5-6.5c0.5-1,1.8-1,2.3,0c1.6,3.3,3.3,5,6.5,6.5C597.2,282.8,597.2,284.2,596.2,284.6z"/>
	</g>
</g>
</svg>