<svg width="779" height="765" viewBox="0 0 779 765" fill="none" xmlns="http://www.w3.org/2000/svg">
<path opacity="0.1" d="M689.259 147.738V524.517C689.258 530.412 686.873 536.065 682.629 540.233C678.385 544.402 672.63 546.746 666.628 546.749H108.274C102.272 546.746 96.5165 544.402 92.2729 540.233C88.0292 536.065 85.6444 530.412 85.6426 524.517V147.745C85.6444 141.851 88.0292 136.198 92.2729 132.029C96.5165 127.861 102.272 125.517 108.274 125.513H666.628C672.63 125.517 678.385 127.861 682.629 132.029C686.873 136.198 689.258 141.851 689.259 147.745V147.738Z" fill="#00345E"/>
<path d="M473.029 685.613H301.873L336.101 552.383H438.801L473.029 685.613V685.613Z" fill="#ABC6C6"/>
<path d="M450.723 598.769H324.179L336.101 552.383H438.8L450.723 598.769Z" fill="#8CA8A0"/>
<path d="M689.259 178.864V555.643C689.258 561.537 686.873 567.19 682.629 571.359C678.385 575.527 672.63 577.871 666.628 577.875H108.274C102.272 577.871 96.5165 575.527 92.2729 571.359C88.0292 567.19 85.6444 561.537 85.6426 555.643V178.864C85.6444 172.969 88.0292 167.317 92.2729 163.148C96.5165 158.979 102.272 156.636 108.274 156.632H666.628C672.63 156.636 678.385 158.979 682.629 163.148C686.873 167.317 689.258 172.969 689.259 178.864Z" fill="white"/>
<path d="M340.464 503.19C340.612 491.049 345.628 479.453 354.423 470.919C363.219 462.384 375.086 457.598 387.451 457.598C399.816 457.598 411.682 462.384 420.478 470.919C429.274 479.453 434.29 491.049 434.438 503.19H340.464Z" fill="#00345E"/>
<path d="M689.259 228.016V178.857C689.256 172.964 686.87 167.314 682.626 163.148C678.383 158.982 672.628 156.64 666.628 156.639H108.274C102.274 156.64 96.5193 158.982 92.2757 163.148C88.032 167.314 85.6462 172.964 85.6426 178.857V228.016H689.259Z" fill="#5D5FEF"/>
<path d="M85.6428 503.19V555.636C85.6428 561.531 88.0269 567.185 92.271 571.354C96.5151 575.523 102.271 577.866 108.274 577.867H666.628C672.631 577.866 678.387 575.523 682.631 571.354C686.875 567.185 689.259 561.531 689.259 555.636V503.19H85.636H85.6428Z" fill="#CAD9E0"/>
<path d="M514.79 503.19C514.79 434.128 457.781 378.136 387.454 378.136C317.121 378.136 260.105 434.128 260.105 503.197H211.942C211.942 408.004 290.52 330.839 387.454 330.839C484.389 330.839 562.967 408.004 562.967 503.197H514.79V503.19Z" fill="#5D5FEF"/>
<path d="M387.448 378.136C317.121 378.136 260.105 434.128 260.105 503.197H211.942C211.942 408.004 290.52 330.839 387.454 330.839V378.136H387.448Z" fill="#4D9ABF"/>
<path d="M518.529 388.594L484.389 422.121C472.453 408.316 457.599 397.23 440.859 389.633C424.119 382.036 405.895 378.111 387.454 378.13V330.833C439.573 330.833 486.401 353.151 518.529 388.594Z" fill="#76C2B5"/>
<path d="M387.454 330.833V378.13C369.013 378.109 350.788 382.033 334.047 389.629C317.306 397.224 302.45 408.31 290.513 422.114L256.372 388.594C288.501 353.151 335.329 330.833 387.447 330.833H387.454Z" fill="#006686"/>
<path d="M383.417 472.331L383.627 472.464L381.216 475.95C380.139 477.574 379.753 479.549 380.141 481.449C380.53 483.35 381.661 485.025 383.292 486.117C384.923 487.208 386.925 487.628 388.868 487.287C390.812 486.946 392.541 485.87 393.686 484.291L396.098 480.812L396.308 480.945C397.961 481.927 399.935 482.249 401.822 481.845C403.71 481.441 405.368 480.342 406.456 478.775C407.544 477.207 407.979 475.29 407.671 473.417C407.364 471.544 406.337 469.858 404.802 468.705L404.599 468.559L434.018 426.131C435.064 424.508 435.426 422.548 435.029 420.667C434.632 418.786 433.507 417.129 431.89 416.047C430.273 414.965 428.292 414.542 426.364 414.867C424.435 415.192 422.711 416.24 421.554 417.79L392.122 460.217L391.918 460.084C391.101 459.532 390.18 459.145 389.209 458.944C388.239 458.744 387.237 458.734 386.262 458.915C385.288 459.096 384.359 459.465 383.53 460C382.701 460.535 381.988 461.226 381.432 462.033C380.874 462.838 380.483 463.742 380.282 464.695C380.08 465.648 380.071 466.631 380.256 467.587C380.441 468.543 380.816 469.454 381.359 470.268C381.903 471.082 382.605 471.783 383.424 472.331H383.417Z" fill="#00345E"/>
<path d="M244.03 272.606H143.546C141.495 272.606 139.528 271.806 138.078 270.382C136.628 268.958 135.814 267.027 135.814 265.013C135.814 262.999 136.628 261.067 138.078 259.643C139.528 258.219 141.495 257.419 143.546 257.419H244.03C246.081 257.419 248.048 258.219 249.498 259.643C250.948 261.067 251.763 262.999 251.763 265.013C251.763 267.027 250.948 268.958 249.498 270.382C248.048 271.806 246.081 272.606 244.03 272.606V272.606Z" fill="#CAD9E0"/>
<path d="M216.867 300.758H170.709C168.66 300.758 166.694 299.959 165.244 298.535C163.795 297.112 162.98 295.181 162.98 293.168C162.98 291.155 163.795 289.225 165.244 287.801C166.694 286.378 168.66 285.578 170.709 285.578H216.867C218.917 285.578 220.883 286.378 222.332 287.801C223.782 289.225 224.596 291.155 224.596 293.168C224.596 295.181 223.782 297.112 222.332 298.535C220.883 299.959 218.917 300.758 216.867 300.758Z" fill="#00CEBD"/>
<path d="M631.356 272.606H530.872C528.821 272.606 526.854 271.806 525.404 270.382C523.954 268.958 523.139 267.027 523.139 265.013C523.139 262.999 523.954 261.067 525.404 259.643C526.854 258.219 528.821 257.419 530.872 257.419H631.356C633.407 257.419 635.373 258.219 636.824 259.643C638.274 261.067 639.088 262.999 639.088 265.013C639.088 267.027 638.274 268.958 636.824 270.382C635.373 271.806 633.407 272.606 631.356 272.606V272.606Z" fill="#CAD9E0"/>
<path d="M604.192 300.758H558.035C555.985 300.758 554.019 299.959 552.57 298.535C551.12 297.112 550.306 295.181 550.306 293.168C550.306 291.155 551.12 289.225 552.57 287.801C554.019 286.378 555.985 285.578 558.035 285.578H604.192C606.242 285.578 608.208 286.378 609.658 287.801C611.107 289.225 611.922 291.155 611.922 293.168C611.922 295.181 611.107 297.112 609.658 298.535C608.208 299.959 606.242 300.758 604.192 300.758V300.758Z" fill="#00CEBD"/>
<path d="M204.118 374.857H183.458C180.951 374.857 178.933 372.861 178.933 370.413V334.106C178.933 331.644 180.958 329.655 183.458 329.655H204.118C206.624 329.655 208.65 331.651 208.65 334.106V370.413C208.65 372.868 206.618 374.857 204.118 374.857ZM591.444 374.857H570.783C568.277 374.857 566.252 372.861 566.252 370.413V334.106C566.252 331.644 568.284 329.655 570.783 329.655H591.444C593.95 329.655 595.969 331.651 595.969 334.106V370.413C595.969 372.868 593.943 374.857 591.444 374.857Z" fill="#E6E6E6"/>
<path d="M412.972 301.45C415.208 301.45 417.353 300.578 418.935 299.024C420.517 297.471 421.405 295.365 421.405 293.168C421.405 290.972 420.517 288.865 418.935 287.312C417.353 285.759 415.208 284.886 412.972 284.886C410.735 284.886 408.59 285.759 407.008 287.312C405.427 288.865 404.538 290.972 404.538 293.168C404.538 295.365 405.427 297.471 407.008 299.024C408.59 300.578 410.735 301.45 412.972 301.45V301.45ZM387.454 301.45C389.691 301.45 391.836 300.578 393.418 299.024C394.999 297.471 395.888 295.365 395.888 293.168C395.888 290.972 394.999 288.865 393.418 287.312C391.836 285.759 389.691 284.886 387.454 284.886C385.218 284.886 383.072 285.759 381.491 287.312C379.909 288.865 379.021 290.972 379.021 293.168C379.021 295.365 379.909 297.471 381.491 299.024C383.072 300.578 385.218 301.45 387.454 301.45V301.45ZM361.93 301.45C364.167 301.45 366.312 300.578 367.894 299.024C369.475 297.471 370.364 295.365 370.364 293.168C370.364 290.972 369.475 288.865 367.894 287.312C366.312 285.759 364.167 284.886 361.93 284.886C359.693 284.886 357.548 285.759 355.967 287.312C354.385 288.865 353.497 290.972 353.497 293.168C353.497 295.365 354.385 297.471 355.967 299.024C357.548 300.578 359.693 301.45 361.93 301.45V301.45Z" fill="#00CEBD"/>
<path d="M143.112 184.811C138.94 184.811 135.566 188.13 135.566 192.221V192.434C135.625 194.36 136.446 196.188 137.854 197.53C139.262 198.872 141.147 199.622 143.109 199.622C145.071 199.622 146.956 198.872 148.364 197.53C149.773 196.188 150.593 194.36 150.652 192.434V192.221C150.652 188.13 147.278 184.811 143.112 184.811ZM172.274 184.811C168.108 184.811 164.728 188.13 164.728 192.221V192.434C164.728 194.399 165.523 196.284 166.938 197.674C168.353 199.064 170.273 199.844 172.274 199.844C174.275 199.844 176.195 199.064 177.61 197.674C179.025 196.284 179.82 194.399 179.82 192.434V192.221C179.82 188.13 176.433 184.811 172.274 184.811ZM201.429 184.811C197.263 184.811 193.89 188.13 193.89 192.221V192.434C193.948 194.36 194.769 196.188 196.177 197.53C197.585 198.872 199.47 199.622 201.432 199.622C203.395 199.622 205.28 198.872 206.688 197.53C208.096 196.188 208.916 194.36 208.975 192.434V192.221C208.975 188.13 205.602 184.811 201.429 184.811Z" fill="#00345E"/>
<path d="M666.621 149.222H108.281C100.279 149.231 92.6075 152.357 86.9498 157.914C81.2921 163.471 78.1106 171.006 78.1034 178.864V555.643C78.1124 563.5 81.2947 571.033 86.9522 576.589C92.6097 582.144 100.28 585.27 108.281 585.278H319.864L295.993 678.196H272.86C270.859 678.196 268.939 678.977 267.524 680.366C266.109 681.756 265.314 683.641 265.314 685.606C265.314 687.572 266.109 689.457 267.524 690.846C268.939 692.236 270.859 693.017 272.86 693.017H502.042C504.043 693.017 505.963 692.236 507.378 690.846C508.793 689.457 509.588 687.572 509.588 685.606C509.588 683.641 508.793 681.756 507.378 680.366C505.963 678.977 504.043 678.196 502.042 678.196H478.902L455.031 585.278H666.628C674.63 585.27 682.301 582.144 687.959 576.586C693.617 571.029 696.798 563.495 696.806 555.636V503.191C696.806 499.099 693.425 495.787 689.259 495.787C689.117 495.787 688.982 495.82 688.846 495.827C688.704 495.82 688.568 495.787 688.426 495.787H93.1889V235.421H681.713V462.373C681.713 464.338 682.508 466.223 683.924 467.613C685.339 469.003 687.258 469.783 689.259 469.783C691.261 469.783 693.18 469.003 694.595 467.613C696.011 466.223 696.806 464.338 696.806 462.373V178.857C696.798 170.999 693.617 163.464 687.959 157.907C682.301 152.35 674.63 149.224 666.628 149.215L666.621 149.222ZM463.336 678.196H311.566L335.438 585.278H439.478L463.336 678.189V678.196ZM681.713 510.601V555.636C681.71 559.565 680.119 563.332 677.291 566.11C674.463 568.889 670.628 570.452 666.628 570.457H108.274C104.274 570.452 100.439 568.889 97.6109 566.11C94.7828 563.332 93.1925 559.565 93.1889 555.636V510.601H681.713ZM93.1889 220.613V178.864C93.1889 170.688 99.956 164.043 108.274 164.043H666.628C674.946 164.043 681.713 170.695 681.713 178.864V220.606H93.1889V220.613Z" fill="#00345E"/>
</svg>
