<svg width="616" height="616" viewBox="0 0 616 616" fill="none" xmlns="http://www.w3.org/2000/svg">
<path opacity="0.1" d="M564.288 218.236V161.205C564.288 154.617 558.942 149.271 552.354 149.271H485.424C478.835 149.271 473.49 154.611 473.49 161.205V198.561C462.318 196.361 450.874 195.896 439.561 197.185C438.144 177.338 431.916 158.135 421.414 141.236C424.871 139.006 427.788 136.034 429.953 132.536C432.118 129.038 433.478 125.102 433.932 121.013C434.387 116.925 433.926 112.786 432.582 108.898C431.238 105.01 429.045 101.47 426.162 98.5349C423.279 95.5998 419.779 93.3435 415.916 91.9296C412.053 90.5158 407.923 89.9799 403.827 90.3609C399.731 90.7418 395.771 92.0301 392.234 94.1322C388.698 96.2343 385.674 99.0974 383.382 102.514C363.489 89.6621 340.302 82.8439 316.619 82.882C251.558 82.882 198.277 133.287 193.681 197.185C134.893 190.516 80.7388 231.306 71.4345 290.319C67.7245 313.616 71.5569 337.489 82.3725 358.454H66.5708C61.6106 358.454 57.5879 362.471 57.5879 367.431V451.614C57.5879 456.574 61.6053 460.592 66.5708 460.592H195.888C200.848 460.592 204.865 456.574 204.865 451.62V421.495C284.147 426.631 419.624 425.282 469.328 417.44C529.969 407.868 571.369 350.955 561.803 290.313C558.258 267.632 547.745 246.615 531.72 230.176H552.343C555.509 230.174 558.545 228.916 560.784 226.677C563.023 224.438 564.281 221.402 564.283 218.236H564.288ZM161.269 144.857C168.419 143.166 174.606 138.704 178.467 132.453C182.328 126.201 183.547 118.671 181.857 111.521C180.166 104.37 175.704 98.1835 169.452 94.3226C163.2 90.4616 155.671 89.2423 148.52 90.9328C144.979 91.7699 141.638 93.2962 138.687 95.4245C135.737 97.5529 133.234 100.242 131.322 103.337C129.41 106.433 128.127 109.875 127.545 113.466C126.964 117.058 127.095 120.728 127.932 124.269C128.769 127.81 130.296 131.151 132.424 134.102C134.552 137.053 137.241 139.555 140.337 141.467C146.588 145.328 154.118 146.548 161.269 144.857V144.857Z" fill="#00345E"/>
<path d="M561.803 315.37C552.493 256.362 498.344 215.578 439.561 222.241C434.966 158.354 381.684 107.944 316.619 107.944C251.558 107.944 198.272 158.349 193.681 222.241C134.888 215.572 80.7388 256.362 71.4292 315.38C61.8678 376.016 103.274 432.935 163.915 442.496C223.978 451.966 409.27 451.977 469.333 442.496C529.969 432.924 571.375 376.011 561.803 315.37V315.37Z" fill="#5D5FEF"/>
<path d="M543.505 269.551H485.424C483.857 269.552 482.305 269.244 480.856 268.644C479.408 268.045 478.092 267.166 476.984 266.057C475.875 264.949 474.996 263.633 474.397 262.185C473.797 260.737 473.489 259.184 473.49 257.617V223.619C501.913 229.244 527.027 245.719 543.505 269.551V269.551Z" fill="#A8CFC8"/>
<path d="M451.582 282.353V444.687C385.573 451.238 247.675 451.238 181.661 444.687V282.353C181.661 280.376 183.263 278.774 185.239 278.774H447.998C449.98 278.774 451.582 280.376 451.582 282.353Z" fill="#CCFFF0"/>
<path d="M403.057 300.409L394.931 289.519H238.306L230.181 300.409C221.996 311.39 229.827 326.999 243.513 326.999H276.75V449.261C302.895 449.711 330.353 449.711 356.493 449.261V326.999H389.725C403.416 326.999 411.242 311.39 403.057 300.409Z" fill="#46EFB2"/>
<path d="M243.513 312.675H276.745V508.793C276.745 515.382 282.085 520.728 288.674 520.728H344.564C351.152 520.728 356.498 515.382 356.498 508.793V312.675H389.724C403.416 312.675 411.247 297.061 403.062 286.091L329.946 188.141C328.397 186.068 326.385 184.384 324.071 183.224C321.757 182.064 319.204 181.46 316.616 181.46C314.028 181.46 311.475 182.064 309.161 183.224C306.847 184.384 304.835 186.068 303.286 188.141L230.186 286.091C221.99 297.061 229.822 312.675 243.513 312.675Z" fill="#4D9ABF"/>
<path d="M195.893 485.655H66.5708C61.6106 485.655 57.5879 481.638 57.5879 476.678V392.495C57.5879 387.534 61.6053 383.512 66.5708 383.512H195.888C200.848 383.512 204.865 387.529 204.865 392.495V476.678C204.865 481.633 200.848 485.655 195.888 485.655H195.893Z" fill="white"/>
<path d="M103.327 454.913C102.543 454.915 101.767 454.761 101.042 454.462C100.318 454.162 99.6599 453.722 99.1062 453.167L84.74 438.806C84.1855 438.252 83.7456 437.594 83.4454 436.87C83.1453 436.146 82.9908 435.369 82.9908 434.585C82.9908 433.801 83.1453 433.025 83.4454 432.301C83.7456 431.577 84.1855 430.919 84.74 430.364L99.1062 416.004C100.234 414.928 101.737 414.336 103.295 414.354C104.854 414.372 106.343 414.999 107.445 416.101C108.547 417.203 109.174 418.693 109.192 420.251C109.211 421.809 108.619 423.313 107.543 424.44L97.3975 434.585L107.543 444.731C108.376 445.565 108.943 446.628 109.172 447.784C109.402 448.941 109.284 450.139 108.833 451.229C108.382 452.318 107.618 453.249 106.638 453.905C105.658 454.561 104.506 454.912 103.327 454.913V454.913ZM159.137 414.252C160.663 414.252 162.19 414.836 163.358 416.004L177.719 430.364C180.049 432.694 180.049 436.471 177.719 438.806L163.358 453.162C162.239 454.281 160.721 454.91 159.139 454.911C157.556 454.911 156.038 454.283 154.919 453.164C153.799 452.046 153.17 450.528 153.169 448.945C153.169 447.363 153.797 445.845 154.916 444.725L165.061 434.58L154.916 424.435C154.081 423.6 153.512 422.537 153.281 421.379C153.051 420.221 153.169 419.021 153.621 417.93C154.073 416.839 154.838 415.907 155.82 415.251C156.802 414.596 157.956 414.246 159.137 414.247V414.252ZM123.114 454.919C122.071 454.919 121.047 454.646 120.142 454.126C119.238 453.607 118.486 452.86 117.96 451.959C117.434 451.059 117.154 450.036 117.147 448.993C117.139 447.951 117.405 446.924 117.918 446.016L134.149 417.289C134.941 415.939 136.231 414.954 137.743 414.546C139.255 414.139 140.866 414.342 142.229 415.111C143.592 415.881 144.599 417.155 145.031 418.66C145.463 420.164 145.287 421.779 144.54 423.154L128.315 451.882C127.796 452.804 127.04 453.571 126.126 454.104C125.212 454.638 124.173 454.919 123.114 454.919V454.919Z" fill="#5D5FEF"/>
<path d="M552.349 255.233H485.424C482.259 255.233 479.223 253.975 476.985 251.737C474.747 249.499 473.49 246.463 473.49 243.298V186.262C473.49 179.673 478.83 174.328 485.424 174.328H552.349C558.942 174.328 564.283 179.673 564.283 186.262V243.298C564.283 249.887 558.942 255.233 552.349 255.233V255.233Z" fill="white"/>
<path d="M510.771 235.113C509.729 235.112 508.705 234.838 507.801 234.319C506.898 233.799 506.146 233.052 505.621 232.151C505.096 231.251 504.816 230.229 504.809 229.186C504.802 228.144 505.068 227.118 505.581 226.21L521.8 197.483C522.186 196.801 522.702 196.201 523.319 195.719C523.936 195.236 524.643 194.879 525.398 194.669C526.153 194.459 526.942 194.4 527.72 194.495C528.497 194.59 529.249 194.838 529.931 195.223C530.614 195.608 531.213 196.125 531.696 196.742C532.179 197.359 532.536 198.065 532.746 198.82C532.955 199.575 533.015 200.365 532.92 201.142C532.825 201.92 532.577 202.672 532.192 203.354L515.972 232.076C515.453 232.997 514.698 233.764 513.785 234.297C512.872 234.831 511.834 235.113 510.776 235.113H510.771Z" fill="#00345E"/>
<path d="M361.705 477.315C365.343 477.315 368.947 476.598 372.309 475.206C375.67 473.813 378.725 471.772 381.298 469.199C383.871 466.626 385.912 463.571 387.305 460.21C388.697 456.848 389.414 453.245 389.414 449.606C389.414 445.967 388.697 442.364 387.305 439.002C385.912 435.64 383.871 432.585 381.298 430.012C378.725 427.439 375.67 425.398 372.309 424.006C368.947 422.613 365.343 421.896 361.705 421.896C354.356 421.896 347.308 424.816 342.111 430.012C336.915 435.209 333.995 442.257 333.995 449.606C333.995 456.955 336.915 464.003 342.111 469.199C347.308 474.396 354.356 477.315 361.705 477.315V477.315Z" fill="white"/>
<path d="M154.905 170.728C162.254 170.728 169.302 167.808 174.499 162.612C179.695 157.415 182.614 150.367 182.614 143.018C182.614 135.669 179.695 128.621 174.499 123.425C169.302 118.228 162.254 115.309 154.905 115.309C147.556 115.309 140.508 118.228 135.312 123.425C130.115 128.621 127.196 135.669 127.196 143.018C127.196 150.367 130.115 157.415 135.312 162.612C140.508 167.808 147.556 170.728 154.905 170.728V170.728ZM406.388 170.728C413.737 170.728 420.785 167.808 425.982 162.612C431.178 157.415 434.098 150.367 434.098 143.018C434.098 135.669 431.178 128.621 425.982 123.425C420.785 118.228 413.737 115.309 406.388 115.309C399.04 115.309 391.992 118.228 386.795 123.425C381.599 128.621 378.679 135.669 378.679 143.018C378.679 150.367 381.599 157.415 386.795 162.612C391.992 167.808 399.04 170.728 406.388 170.728V170.728Z" fill="#E6E6E6"/>
<path d="M570.25 243.299V186.263C570.244 181.518 568.357 176.97 565.002 173.615C561.647 170.26 557.098 168.373 552.354 168.367H535.32C534.522 168.343 533.727 168.48 532.982 168.769C532.238 169.057 531.559 169.493 530.986 170.049C530.412 170.605 529.957 171.271 529.646 172.007C529.334 172.742 529.174 173.533 529.174 174.331C529.174 175.13 529.334 175.921 529.646 176.656C529.957 177.392 530.412 178.057 530.986 178.614C531.559 179.17 532.238 179.605 532.982 179.894C533.727 180.183 534.522 180.32 535.32 180.296H552.354C555.643 180.296 558.321 182.974 558.321 186.263V243.299C558.321 246.588 555.643 249.266 552.354 249.266H485.424C482.135 249.266 479.457 246.588 479.457 243.299V186.263C479.457 182.974 482.135 180.296 485.424 180.296H502.458C503.256 180.32 504.051 180.183 504.796 179.894C505.54 179.605 506.219 179.17 506.792 178.614C507.365 178.057 507.821 177.392 508.132 176.656C508.443 175.921 508.604 175.13 508.604 174.331C508.604 173.533 508.443 172.742 508.132 172.007C507.821 171.271 507.365 170.605 506.792 170.049C506.219 169.493 505.54 169.057 504.796 168.769C504.051 168.48 503.256 168.343 502.458 168.367H485.424C480.679 168.373 476.13 170.26 472.774 173.614C469.418 176.969 467.53 181.518 467.523 186.263V216.597C460.037 215.597 452.472 215.327 444.934 215.788C442.901 198.901 437.56 182.579 429.218 167.756C432.64 164.61 435.372 160.787 437.24 156.53C439.108 152.273 440.072 147.674 440.07 143.025C440.06 134.097 436.509 125.537 430.196 119.223C423.882 112.91 415.322 109.359 406.394 109.349C401.844 109.347 397.341 110.27 393.159 112.062C388.976 113.854 385.202 116.477 382.065 119.773C362.228 108.107 339.631 101.964 316.619 101.978C283.855 101.932 252.306 114.378 228.397 136.779C206.105 157.542 191.898 185.538 188.303 215.788C128.289 212.049 75.0127 254.355 65.537 314.455C62.1331 335.777 64.7297 357.625 73.0362 377.555H66.5709C62.6095 377.559 58.8115 379.135 56.0099 381.935C53.2084 384.736 51.6318 388.533 51.6262 392.494V476.678C51.6304 480.64 53.2063 484.439 56.0081 487.24C58.8098 490.042 62.6086 491.618 66.5709 491.622H195.888C199.85 491.618 203.649 490.042 206.451 487.24C209.253 484.439 210.828 480.64 210.833 476.678V452.895C228.311 453.918 248.848 454.684 270.772 455.123V508.795C270.772 518.667 278.807 526.697 288.674 526.697H344.558C349.303 526.691 353.853 524.804 357.208 521.449C360.564 518.094 362.453 513.546 362.46 508.801V483.261C370.459 483.071 378.131 480.043 384.103 474.718C390.075 469.392 393.958 462.116 395.06 454.191C428.088 452.948 454.046 450.95 470.26 448.39C485.465 446.033 500.052 440.684 513.177 432.651C526.301 424.619 537.701 414.063 546.719 401.595C555.804 389.177 562.335 375.08 565.936 360.121C569.536 345.161 570.134 329.637 567.695 314.445C564.661 295.049 556.777 276.735 544.774 261.201H552.348C562.215 261.201 570.245 253.166 570.245 243.299H570.25ZM406.394 121.278C418.382 121.278 428.136 131.032 428.136 143.025C428.129 148.79 425.835 154.317 421.758 158.393C417.681 162.469 412.154 164.762 406.389 164.767C400.623 164.76 395.097 162.467 391.021 158.389C386.944 154.312 384.652 148.785 384.646 143.02C384.654 137.255 386.947 131.728 391.024 127.652C395.101 123.576 400.629 121.283 406.394 121.278V121.278ZM198.904 476.683C198.904 478.338 197.554 479.683 195.893 479.683H66.5655C65.7694 479.681 65.0061 479.365 64.4422 478.803C63.8782 478.241 63.5594 477.479 63.5551 476.683V392.489C63.5551 390.829 64.905 389.479 66.5655 389.479H195.893C197.554 389.479 198.904 390.829 198.904 392.489V476.678V476.683ZM361.704 471.348C355.939 471.341 350.412 469.047 346.336 464.97C342.26 460.893 339.968 455.365 339.962 449.6C339.969 443.835 342.263 438.308 346.34 434.232C350.417 430.156 355.945 427.864 361.71 427.858C367.475 427.865 373.002 430.159 377.078 434.236C381.154 438.313 383.446 443.841 383.452 449.606C383.445 455.371 381.151 460.898 377.074 464.974C372.997 469.05 367.47 471.342 361.704 471.348V471.348ZM555.911 316.298C558.103 329.943 557.567 343.888 554.334 357.325C551.1 370.762 545.233 383.424 537.072 394.578C528.973 405.776 518.733 415.256 506.946 422.47C495.159 429.684 482.058 434.489 468.401 436.605C452.637 439.091 427.15 441.046 394.567 442.267C392.917 434.928 388.86 428.352 383.042 423.583C377.225 418.815 369.98 416.128 362.46 415.951V318.644H389.724C393.92 318.658 398.037 317.498 401.607 315.294C405.178 313.09 408.061 309.931 409.929 306.174C411.822 302.43 412.63 298.231 412.261 294.051C411.892 289.872 410.36 285.879 407.84 282.525L334.729 184.576C332.635 181.746 329.904 179.449 326.756 177.871C323.609 176.294 320.134 175.48 316.613 175.496C313.094 175.481 309.62 176.295 306.473 177.872C303.327 179.45 300.596 181.746 298.503 184.576L225.402 282.525C222.882 285.879 221.351 289.872 220.982 294.051C220.612 298.231 221.42 302.43 223.313 306.174C225.182 309.93 228.063 313.089 231.633 315.293C235.203 317.496 239.318 318.657 243.513 318.644H270.778V416.395C270.778 417.978 271.406 419.496 272.525 420.615C273.644 421.734 275.162 422.362 276.745 422.362C278.327 422.362 279.845 421.734 280.964 420.615C282.083 419.496 282.712 417.978 282.712 416.395V312.677C282.712 309.383 280.039 306.71 276.745 306.71H243.507C239.383 306.71 235.821 304.514 233.973 300.823C233.063 299.06 232.673 297.075 232.848 295.099C233.022 293.122 233.754 291.236 234.958 289.66L308.064 191.716C310.1 188.989 313.217 187.431 316.613 187.431C320.015 187.431 323.132 188.989 325.162 191.716L398.268 289.66C400.737 292.965 401.107 297.138 399.259 300.823C398.391 302.607 397.034 304.108 395.346 305.151C393.658 306.194 391.709 306.737 389.724 306.715H356.493C353.198 306.715 350.525 309.383 350.525 312.677V417.842C343.953 420.163 338.261 424.463 334.233 430.151C330.204 435.839 328.036 442.635 328.028 449.606C328.036 456.576 330.204 463.372 334.233 469.06C338.261 474.748 343.953 479.049 350.525 481.37V508.795C350.525 512.09 347.847 514.762 344.558 514.762H288.679C285.39 514.762 282.712 512.084 282.712 508.795V449.263C282.712 446.006 280.109 443.355 276.852 443.296C252.587 442.878 229.848 442.064 210.838 440.939V392.494C210.834 388.532 209.258 384.733 206.456 381.932C203.654 379.13 199.856 377.554 195.893 377.55H86.09C77.0543 358.49 73.9993 337.143 77.3268 316.314C81.4878 289.524 95.8562 265.384 117.421 248.953C138.985 232.522 166.073 225.075 193.006 228.172C193.806 228.266 194.617 228.197 195.389 227.968C196.161 227.74 196.879 227.356 197.498 226.842C198.118 226.328 198.626 225.693 198.993 224.976C199.36 224.259 199.577 223.475 199.632 222.671C201.738 193.204 214.929 165.628 236.549 145.495C258.249 125.164 286.883 113.87 316.619 113.912C337.283 113.897 357.582 119.353 375.455 129.725C373.644 133.923 372.712 138.448 372.717 143.02C372.727 151.947 376.278 160.507 382.59 166.82C388.902 173.133 397.461 176.685 406.389 176.696C410.904 176.696 415.205 175.802 419.137 174.179C427.428 189.099 432.367 205.647 433.61 222.671C433.668 223.473 433.887 224.255 434.255 224.97C434.622 225.685 435.13 226.319 435.749 226.832C436.367 227.346 437.083 227.73 437.853 227.96C438.623 228.19 439.432 228.263 440.231 228.172C449.311 227.146 458.485 227.308 467.523 228.655V243.299C467.523 253.166 475.557 261.201 485.424 261.201H529.16C543.376 276.487 552.693 295.678 555.911 316.303V316.298ZM154.905 176.696C163.834 176.686 172.394 173.135 178.707 166.822C185.021 160.508 188.572 151.948 188.582 143.02C188.572 134.091 185.021 125.531 178.707 119.218C172.394 112.905 163.834 109.353 154.905 109.343C145.977 109.353 137.417 112.905 131.103 119.218C124.79 125.531 121.239 134.091 121.229 143.02C121.239 151.948 124.79 160.508 131.103 166.822C137.417 173.135 145.977 176.686 154.905 176.696V176.696ZM154.905 121.278C166.893 121.278 176.647 131.032 176.647 143.025C176.639 148.789 174.345 154.315 170.268 158.39C166.191 162.465 160.664 164.756 154.9 164.762C149.137 164.753 143.612 162.46 139.537 158.384C135.462 154.308 133.17 148.783 133.163 143.02C133.163 131.032 142.912 121.278 154.905 121.278V121.278Z" fill="#00345E"/>
<path d="M389.419 388.22C391.188 388.22 392.884 387.518 394.135 386.267C395.385 385.016 396.088 383.32 396.088 381.551C396.088 379.783 395.385 378.086 394.135 376.836C392.884 375.585 391.188 374.882 389.419 374.882C387.65 374.882 385.954 375.585 384.704 376.836C383.453 378.086 382.75 379.783 382.75 381.551C382.75 383.32 383.453 385.016 384.704 386.267C385.954 387.518 387.65 388.22 389.419 388.22ZM389.419 368.037C391.188 368.037 392.884 367.334 394.135 366.083C395.385 364.833 396.088 363.137 396.088 361.368C396.088 359.599 395.385 357.903 394.135 356.652C392.884 355.402 391.188 354.699 389.419 354.699C387.65 354.699 385.954 355.402 384.704 356.652C383.453 357.903 382.75 359.599 382.75 361.368C382.75 363.137 383.453 364.833 384.704 366.083C385.954 367.334 387.65 368.037 389.419 368.037ZM389.419 347.859C391.188 347.859 392.884 347.156 394.135 345.905C395.385 344.655 396.088 342.959 396.088 341.19C396.088 339.421 395.385 337.725 394.135 336.474C392.884 335.224 391.188 334.521 389.419 334.521C387.65 334.521 385.954 335.224 384.704 336.474C383.453 337.725 382.75 339.421 382.75 341.19C382.75 342.959 383.453 344.655 384.704 345.905C385.954 347.156 387.65 347.859 389.419 347.859Z" fill="#00345E"/>
</svg>
