<svg width="639" height="639" viewBox="0 0 639 639" fill="none" xmlns="http://www.w3.org/2000/svg">
<path opacity="0.1" d="M530.637 61.8652H258.451C253.528 61.8652 248.808 63.8205 245.328 67.301C241.847 70.7814 239.892 75.5019 239.892 80.424V182.219H141.736C136.59 182.219 132.423 186.387 132.423 191.532V278.881C132.423 284.032 136.59 288.199 141.736 288.199H239.903V439.853H111.242C104.407 439.853 98.8561 445.393 98.8561 452.233V537.181C98.8561 544.016 104.402 549.561 111.242 549.561H416.778C423.613 549.561 429.158 544.021 429.158 537.181V487.745H530.626C533.063 487.745 535.476 487.265 537.728 486.332C539.979 485.399 542.025 484.032 543.749 482.309C545.472 480.586 546.839 478.54 547.772 476.288C548.704 474.037 549.184 471.623 549.184 469.186V80.424C549.183 75.5024 547.227 70.7827 543.747 67.3026C540.267 63.8225 535.547 61.8667 530.626 61.8652H530.637Z" fill="#00345E"/>
<path d="M549.19 106.419V495.175C549.19 500.097 547.235 504.818 543.754 508.298C540.274 511.779 535.553 513.734 530.631 513.734H258.45C253.528 513.734 248.808 511.779 245.327 508.298C241.847 504.818 239.892 500.097 239.892 495.175V106.419C239.892 101.497 241.847 96.7761 245.327 93.2956C248.808 89.8152 253.528 87.8599 258.45 87.8599H530.631C535.553 87.8599 540.274 89.8152 543.754 93.2956C547.235 96.7761 549.19 101.497 549.19 106.419V106.419Z" fill="white"/>
<path d="M239.897 465.842V495.175C239.899 500.096 241.854 504.816 245.334 508.296C248.815 511.776 253.534 513.732 258.456 513.734H530.631C533.068 513.734 535.481 513.254 537.733 512.321C539.985 511.388 542.031 510.021 543.754 508.298C545.477 506.575 546.844 504.529 547.777 502.277C548.71 500.025 549.19 497.612 549.19 495.175V465.836H239.897V465.842Z" fill="#D9E4E3"/>
<path d="M307.426 87.8601V513.734H258.45C253.529 513.733 248.809 511.777 245.329 508.297C241.849 504.817 239.893 500.097 239.892 495.175V106.413C239.896 101.493 241.853 96.7746 245.332 93.2951C248.812 89.8156 253.53 87.8589 258.45 87.8545H307.426V87.8601Z" fill="#E6E9ED"/>
<path d="M285.233 235.063V322.417C285.233 327.557 281.077 331.73 275.926 331.73H239.892V225.739H275.92C281.077 225.739 285.233 229.912 285.233 235.063V235.063Z" fill="#D9E4E3"/>
<path d="M549.19 147.459V106.419C549.19 101.497 547.235 96.7761 543.754 93.2956C540.274 89.8152 535.553 87.8599 530.631 87.8599H258.45C253.528 87.8599 248.808 89.8152 245.327 93.2956C241.847 96.7761 239.892 101.497 239.892 106.419V147.459H549.19Z" fill="#5D5FEF"/>
<path d="M400.681 286.806H381.2C377.96 286.806 375.071 289.174 374.76 292.396C374.675 293.258 374.772 294.127 375.044 294.949C375.316 295.771 375.756 296.527 376.338 297.168C376.919 297.809 377.629 298.321 378.42 298.672C379.211 299.022 380.067 299.203 380.933 299.203H400.675C401.505 299.228 402.331 299.086 403.105 298.786C403.879 298.485 404.584 298.033 405.18 297.455C405.775 296.877 406.249 296.185 406.572 295.421C406.895 294.656 407.062 293.835 407.062 293.005C407.062 292.175 406.895 291.353 406.572 290.589C406.249 289.825 405.775 289.133 405.18 288.555C404.584 287.977 403.879 287.524 403.105 287.224C402.331 286.924 401.505 286.782 400.675 286.806H400.681Z" fill="#CCFFF0"/>
<path d="M475.494 286.806H429.175C428.345 286.782 427.519 286.924 426.745 287.224C425.972 287.524 425.266 287.977 424.67 288.555C424.075 289.133 423.601 289.825 423.278 290.589C422.955 291.353 422.788 292.175 422.788 293.005C422.788 293.835 422.955 294.656 423.278 295.421C423.601 296.185 424.075 296.877 424.67 297.455C425.266 298.033 425.972 298.485 426.745 298.786C427.519 299.086 428.345 299.228 429.175 299.203H475.761C479.383 299.203 482.284 296.091 481.928 292.391C481.623 289.168 478.733 286.806 475.494 286.806Z" fill="#4D9ABF"/>
<path d="M445.255 312.76H381.2C377.96 312.76 375.071 315.127 374.765 318.35C374.68 319.212 374.776 320.081 375.047 320.903C375.318 321.725 375.758 322.482 376.339 323.123C376.92 323.765 377.629 324.278 378.42 324.629C379.211 324.98 380.067 325.162 380.933 325.162H445.255C446.9 325.162 448.477 324.509 449.64 323.346C450.803 322.183 451.456 320.606 451.456 318.961C451.456 317.317 450.803 315.739 449.64 314.577C448.477 313.414 446.9 312.76 445.255 312.76Z" fill="#CCFFF0"/>
<path d="M512.639 312.76H473.743C472.099 312.76 470.521 313.414 469.358 314.577C468.195 315.739 467.542 317.317 467.542 318.961C467.542 320.606 468.195 322.183 469.358 323.346C470.521 324.509 472.099 325.162 473.743 325.162H512.906C516.528 325.162 519.429 322.051 519.073 318.35C518.768 315.127 515.878 312.76 512.639 312.76Z" fill="#4D9ABF"/>
<path d="M426.68 338.72H381.2C377.96 338.72 375.071 341.087 374.76 344.31C374.675 345.171 374.772 346.041 375.044 346.863C375.316 347.685 375.756 348.44 376.338 349.081C376.919 349.723 377.629 350.235 378.42 350.585C379.211 350.936 380.067 351.117 380.933 351.117H426.68C427.509 351.142 428.336 351 429.109 350.699C429.883 350.399 430.589 349.946 431.184 349.368C431.78 348.79 432.253 348.099 432.577 347.334C432.9 346.57 433.067 345.748 433.067 344.918C433.067 344.088 432.9 343.267 432.577 342.503C432.253 341.738 431.78 341.046 431.184 340.468C430.589 339.89 429.883 339.438 429.109 339.137C428.336 338.837 427.509 338.695 426.68 338.72V338.72Z" fill="#CCFFF0"/>
<path d="M475.494 338.72H455.174C454.344 338.695 453.518 338.837 452.744 339.137C451.97 339.438 451.265 339.89 450.669 340.468C450.074 341.046 449.6 341.738 449.277 342.503C448.954 343.267 448.787 344.088 448.787 344.918C448.787 345.748 448.954 346.57 449.277 347.334C449.6 348.099 450.074 348.79 450.669 349.368C451.265 349.946 451.97 350.399 452.744 350.699C453.518 351 454.344 351.141 455.174 351.117H475.761C479.389 351.117 482.284 348.005 481.928 344.31C481.623 341.087 478.733 338.72 475.494 338.72ZM512.645 364.675H436.598C434.954 364.675 433.376 365.328 432.213 366.491C431.05 367.654 430.397 369.231 430.397 370.876C430.397 372.52 431.05 374.098 432.213 375.26C433.376 376.423 434.954 377.077 436.598 377.077H512.9C516.529 377.077 519.424 373.965 519.068 370.264C518.762 367.042 515.873 364.675 512.634 364.675H512.645Z" fill="#4D9ABF"/>
<path d="M408.104 364.674H381.2C377.96 364.674 375.071 367.041 374.76 370.264C374.674 371.126 374.77 371.996 375.042 372.818C375.313 373.641 375.754 374.397 376.336 375.039C376.917 375.681 377.627 376.194 378.418 376.544C379.21 376.895 380.067 377.076 380.933 377.076H408.104C409.749 377.076 411.326 376.423 412.489 375.26C413.652 374.097 414.305 372.52 414.305 370.875C414.305 369.23 413.652 367.653 412.489 366.49C411.326 365.327 409.749 364.674 408.104 364.674Z" fill="#CCFFF0"/>
<path d="M364.769 243.654H344.06C340.82 243.654 337.931 246.021 337.625 249.244C337.541 250.105 337.638 250.974 337.909 251.796C338.18 252.617 338.621 253.372 339.202 254.014C339.783 254.655 340.491 255.167 341.282 255.518C342.073 255.869 342.928 256.05 343.793 256.051H364.775C365.604 256.076 366.43 255.934 367.204 255.633C367.978 255.333 368.683 254.88 369.279 254.302C369.875 253.724 370.348 253.033 370.671 252.268C370.995 251.504 371.161 250.682 371.161 249.852C371.161 249.022 370.995 248.201 370.671 247.437C370.348 246.672 369.875 245.981 369.279 245.402C368.683 244.824 367.978 244.372 367.204 244.072C366.43 243.771 365.604 243.629 364.775 243.654H364.769ZM475.494 243.654H394.919C394.089 243.629 393.263 243.771 392.489 244.072C391.716 244.372 391.01 244.824 390.414 245.402C389.819 245.981 389.345 246.672 389.022 247.437C388.699 248.201 388.532 249.022 388.532 249.852C388.532 250.682 388.699 251.504 389.022 252.268C389.345 253.033 389.819 253.724 390.414 254.302C391.01 254.88 391.716 255.333 392.489 255.633C393.263 255.934 394.089 256.076 394.919 256.051H475.761C479.383 256.051 482.284 252.939 481.928 249.244C481.623 246.021 478.733 243.654 475.494 243.654V243.654ZM364.769 411.506H344.06C340.82 411.506 337.931 413.873 337.625 417.095C337.54 417.957 337.636 418.827 337.907 419.649C338.178 420.471 338.618 421.227 339.199 421.869C339.78 422.51 340.489 423.023 341.28 423.374C342.072 423.726 342.928 423.907 343.793 423.908H364.775C366.419 423.908 367.997 423.254 369.159 422.091C370.322 420.929 370.976 419.351 370.976 417.707C370.976 416.062 370.322 414.485 369.159 413.322C367.997 412.159 366.419 411.506 364.775 411.506H364.769ZM475.494 411.506H394.919C393.274 411.506 391.697 412.159 390.534 413.322C389.371 414.485 388.718 416.062 388.718 417.707C388.718 419.351 389.371 420.929 390.534 422.091C391.697 423.254 393.274 423.908 394.919 423.908H475.761C479.383 423.908 482.284 420.796 481.928 417.095C481.623 413.873 478.733 411.506 475.494 411.506V411.506Z" fill="#2D93B3"/>
<path d="M275.926 314.195H141.73C136.585 314.195 132.418 310.027 132.418 304.882V217.528C132.418 212.382 136.585 208.209 141.73 208.209H275.92C281.071 208.209 285.239 212.382 285.239 217.528V304.876C285.239 310.027 281.071 314.195 275.926 314.195V314.195Z" fill="#5D5FEF"/>
<path d="M179.87 282.299C178.287 282.299 176.703 281.693 175.492 280.488L160.589 265.58C160.014 265.005 159.557 264.322 159.246 263.571C158.935 262.82 158.775 262.014 158.775 261.201C158.775 260.388 158.935 259.582 159.246 258.831C159.557 258.08 160.014 257.397 160.589 256.822L175.492 241.92C176.665 240.821 178.22 240.221 179.828 240.247C181.436 240.274 182.97 240.924 184.107 242.061C185.244 243.198 185.895 244.733 185.921 246.34C185.948 247.948 185.348 249.503 184.249 250.677L173.725 261.201L184.249 271.725C185.117 272.59 185.709 273.694 185.949 274.896C186.189 276.098 186.067 277.345 185.598 278.477C185.129 279.61 184.334 280.578 183.315 281.258C182.295 281.939 181.096 282.301 179.87 282.299V282.299ZM237.78 240.108C239.364 240.108 240.948 240.709 242.159 241.92L257.067 256.822C259.484 259.245 259.484 263.162 257.067 265.585L242.159 280.488C240.985 281.587 239.43 282.187 237.822 282.16C236.215 282.134 234.68 281.483 233.543 280.346C232.406 279.209 231.756 277.675 231.729 276.067C231.703 274.459 232.303 272.904 233.402 271.731L243.926 261.201L233.402 250.677C232.535 249.811 231.945 248.708 231.706 247.507C231.467 246.306 231.59 245.061 232.059 243.929C232.527 242.798 233.321 241.831 234.34 241.151C235.358 240.471 236.556 240.108 237.78 240.108ZM200.407 282.299C199.325 282.3 198.261 282.017 197.322 281.478C196.383 280.939 195.602 280.163 195.057 279.228C194.511 278.293 194.22 277.231 194.214 276.148C194.207 275.066 194.484 274.001 195.017 273.059L211.854 243.253C212.661 241.824 214.003 240.774 215.585 240.334C217.167 239.894 218.859 240.101 220.288 240.909C221.718 241.716 222.768 243.059 223.208 244.64C223.647 246.222 223.441 247.914 222.633 249.343L205.803 279.154C205.263 280.11 204.479 280.904 203.531 281.457C202.582 282.01 201.505 282.3 200.407 282.299V282.299ZM416.784 575.55H111.242C109.615 575.551 108.005 575.231 106.502 574.609C105 573.987 103.634 573.076 102.484 571.926C101.334 570.776 100.422 569.411 99.799 567.909C99.1765 566.407 98.8561 564.796 98.8561 563.17V478.222C98.8561 471.388 104.402 465.842 111.242 465.842H416.778C423.613 465.842 429.158 471.382 429.158 478.222V563.17C429.158 570.005 423.618 575.55 416.778 575.55H416.784Z" fill="#F5F5F5"/>
<path d="M287.005 111.38C283.588 111.38 280.821 114.153 280.821 117.57V117.753C280.796 118.581 280.938 119.406 281.238 120.178C281.537 120.951 281.989 121.655 282.566 122.25C283.143 122.844 283.833 123.317 284.597 123.64C285.36 123.962 286.18 124.129 287.008 124.129C287.837 124.129 288.657 123.962 289.42 123.64C290.183 123.317 290.873 122.844 291.45 122.25C292.027 121.655 292.479 120.951 292.779 120.178C293.078 119.406 293.22 118.581 293.195 117.753V117.57C293.195 114.153 290.428 111.38 287.005 111.38ZM310.915 111.38C307.498 111.38 304.725 114.153 304.725 117.57V117.753C304.725 119.395 305.377 120.969 306.538 122.13C307.699 123.291 309.273 123.943 310.915 123.943C312.557 123.943 314.131 123.291 315.292 122.13C316.453 120.969 317.105 119.395 317.105 117.753V117.57C317.105 114.153 314.332 111.38 310.915 111.38V111.38ZM334.825 111.38C331.407 111.38 328.635 114.153 328.635 117.57V117.753C328.635 119.395 329.287 120.969 330.448 122.13C331.609 123.291 333.183 123.943 334.825 123.943C336.466 123.943 338.041 123.291 339.202 122.13C340.363 120.969 341.015 119.395 341.015 117.753V117.57C341.015 114.153 338.242 111.38 334.825 111.38V111.38Z" fill="#FCFEFF"/>
<path d="M530.637 81.6709H258.456C251.894 81.6783 245.604 84.2881 240.964 88.9278C236.324 93.5675 233.715 99.8581 233.707 106.42V174.131C233.707 175.773 234.359 177.348 235.52 178.508C236.681 179.669 238.255 180.321 239.897 180.321C241.539 180.321 243.113 179.669 244.274 178.508C245.435 177.348 246.087 175.773 246.087 174.131V153.645H543.005V495.171C543.002 498.451 541.698 501.596 539.377 503.915C537.057 506.234 533.912 507.538 530.631 507.539H435.353V478.223C435.353 467.983 427.019 459.653 416.783 459.653H273.992C273.164 459.628 272.339 459.77 271.567 460.07C270.794 460.37 270.09 460.821 269.496 461.398C268.901 461.975 268.428 462.666 268.106 463.429C267.783 464.192 267.617 465.012 267.617 465.84C267.617 466.669 267.783 467.489 268.106 468.252C268.428 469.015 268.901 469.706 269.496 470.282C270.09 470.859 270.794 471.311 271.567 471.611C272.339 471.911 273.164 472.052 273.992 472.028H416.778C420.195 472.028 422.973 474.806 422.973 478.223V563.166C422.973 566.583 420.195 569.361 416.778 569.361H111.247C107.83 569.361 105.052 566.583 105.052 563.166V478.223C105.052 474.806 107.83 472.028 111.247 472.028H239.897C243.314 472.028 246.087 469.26 246.087 465.838V320.39H275.926C280.036 320.386 283.976 318.751 286.883 315.845C289.789 312.938 291.424 308.998 291.428 304.887V217.528C291.424 213.418 289.789 209.477 286.883 206.571C283.976 203.664 280.036 202.03 275.926 202.025H141.736C137.624 202.028 133.682 203.662 130.775 206.569C127.867 209.475 126.232 213.417 126.227 217.528V255.018H119.91C112.688 255.027 105.765 257.899 100.659 263.005C95.5529 268.111 92.6804 275.034 92.6716 282.256V322.579C92.6716 337.599 104.89 349.818 119.91 349.818H169.374C173.334 349.82 177.131 351.395 179.932 354.195C182.732 356.996 184.307 360.793 184.31 364.753C184.305 368.713 182.73 372.509 179.93 375.308C177.13 378.107 173.333 379.681 169.374 379.684H119.91C112.688 379.693 105.765 382.565 100.659 387.671C95.5529 392.778 92.6804 399.701 92.6716 406.922C92.6716 421.941 104.89 434.16 119.91 434.16H167.123C175.314 434.16 181.982 440.828 181.982 449.018V459.653H111.241C106.318 459.659 101.598 461.618 98.1171 465.099C94.6358 468.58 92.6775 473.3 92.6716 478.223V563.171C92.6716 573.412 101.001 581.741 111.241 581.741H416.778C421.701 581.735 426.421 579.777 429.902 576.296C433.384 572.814 435.342 568.094 435.348 563.171V519.919H530.631C537.191 519.91 543.479 517.301 548.117 512.662C552.756 508.024 555.365 501.736 555.374 495.176V106.42C555.367 99.8591 552.758 93.5693 548.119 88.9297C543.481 84.2902 537.192 81.6797 530.631 81.6709H530.637ZM138.607 217.528C138.607 215.805 140.008 214.4 141.73 214.4H275.926C277.648 214.4 279.054 215.805 279.054 217.528V304.876C279.054 306.599 277.648 308.005 275.926 308.005H141.736C140.907 308.005 140.112 307.676 139.526 307.09C138.939 306.505 138.609 305.711 138.607 304.882V217.528V217.528ZM167.129 421.786H119.91C115.969 421.781 112.191 420.214 109.404 417.427C106.618 414.641 105.05 410.863 105.046 406.922C105.046 398.726 111.714 392.064 119.91 392.064H169.374C176.615 392.056 183.557 389.177 188.677 384.057C193.797 378.937 196.677 371.994 196.684 364.753C196.677 357.513 193.797 350.57 188.677 345.45C183.557 340.33 176.615 337.45 169.374 337.443H119.91C115.969 337.439 112.191 335.871 109.404 333.085C106.618 330.298 105.05 326.52 105.046 322.579V282.256C105.046 274.06 111.714 267.398 119.91 267.398H126.222V304.882C126.226 308.992 127.861 312.933 130.767 315.839C133.674 318.745 137.614 320.38 141.725 320.385H233.707V459.653H194.367V449.018C194.357 441.798 191.484 434.876 186.377 429.771C181.271 424.666 174.349 421.794 167.129 421.786V421.786ZM246.087 141.27V106.42C246.087 99.6018 251.633 94.0508 258.456 94.0508H530.631C537.454 94.0508 543.005 99.6018 543.005 106.42V141.27H246.087V141.27Z" fill="#00345E"/>
<path d="M283.527 361.935C283.527 360.293 282.875 358.719 281.714 357.558C280.553 356.397 278.979 355.745 277.337 355.745C275.696 355.745 274.121 356.397 272.96 357.558C271.799 358.719 271.147 360.293 271.147 361.935V362.118C271.147 363.76 271.799 365.335 272.96 366.495C274.121 367.656 275.696 368.308 277.337 368.308C278.979 368.308 280.553 367.656 281.714 366.495C282.875 365.335 283.527 363.76 283.527 362.118V361.935ZM277.337 411.877C273.92 411.877 271.147 414.644 271.147 418.067V418.245C271.147 419.887 271.799 421.461 272.96 422.622C274.121 423.783 275.696 424.435 277.337 424.435C278.979 424.435 280.553 423.783 281.714 422.622C282.875 421.461 283.527 419.887 283.527 418.245V418.067C283.527 414.644 280.754 411.877 277.337 411.877V411.877ZM133.69 496.736C133.715 495.908 133.573 495.083 133.273 494.311C132.974 493.539 132.522 492.834 131.945 492.24C131.368 491.645 130.677 491.173 129.914 490.85C129.151 490.527 128.331 490.361 127.503 490.361C126.674 490.361 125.854 490.527 125.091 490.85C124.328 491.173 123.638 491.645 123.061 492.24C122.484 492.834 122.032 493.539 121.732 494.311C121.432 495.083 121.291 495.908 121.316 496.736V496.875C121.316 498.517 121.968 500.091 123.129 501.252C124.289 502.413 125.864 503.065 127.506 503.065C129.147 503.065 130.722 502.413 131.883 501.252C133.043 500.091 133.696 498.517 133.696 496.875V496.736H133.69ZM164.029 496.736C164.029 495.095 163.376 493.52 162.216 492.359C161.055 491.198 159.48 490.546 157.839 490.546C156.197 490.546 154.623 491.198 153.462 492.359C152.301 493.52 151.649 495.095 151.649 496.736V496.875C151.649 498.517 152.301 500.091 153.462 501.252C154.623 502.413 156.197 503.065 157.839 503.065C159.48 503.065 161.055 502.413 162.216 501.252C163.376 500.091 164.029 498.517 164.029 496.875V496.736ZM188.177 503.065C191.595 503.065 194.362 500.292 194.362 496.875V496.736C194.386 495.908 194.245 495.083 193.945 494.311C193.645 493.539 193.194 492.834 192.617 492.24C192.04 491.645 191.349 491.173 190.586 490.85C189.823 490.527 189.003 490.361 188.174 490.361C187.346 490.361 186.526 490.527 185.763 490.85C185 491.173 184.309 491.645 183.732 492.24C183.155 492.834 182.704 493.539 182.404 494.311C182.104 495.083 181.962 495.908 181.987 496.736V496.875C181.987 500.292 184.754 503.065 188.177 503.065ZM224.7 496.875V496.736C224.7 495.095 224.048 493.52 222.887 492.359C221.726 491.198 220.152 490.546 218.51 490.546C216.869 490.546 215.294 491.198 214.133 492.359C212.973 493.52 212.32 495.095 212.32 496.736V496.875C212.32 498.517 212.973 500.091 214.133 501.252C215.294 502.413 216.869 503.065 218.51 503.065C220.152 503.065 221.726 502.413 222.887 501.252C224.048 500.091 224.7 498.517 224.7 496.875V496.875ZM255.033 496.875V496.736C255.058 495.908 254.916 495.083 254.617 494.311C254.317 493.539 253.865 492.834 253.288 492.24C252.711 491.645 252.021 491.173 251.258 490.85C250.495 490.527 249.675 490.361 248.846 490.361C248.018 490.361 247.198 490.527 246.435 490.85C245.672 491.173 244.981 491.645 244.404 492.24C243.827 492.834 243.375 493.539 243.076 494.311C242.776 495.083 242.634 495.908 242.659 496.736V496.875C242.634 497.703 242.776 498.528 243.076 499.3C243.375 500.073 243.827 500.777 244.404 501.372C244.981 501.966 245.672 502.439 246.435 502.761C247.198 503.084 248.018 503.251 248.846 503.251C249.675 503.251 250.495 503.084 251.258 502.761C252.021 502.439 252.711 501.966 253.288 501.372C253.865 500.777 254.317 500.073 254.617 499.3C254.916 498.528 255.058 497.703 255.033 496.875ZM285.372 496.875V496.736C285.372 495.095 284.72 493.52 283.559 492.359C282.398 491.198 280.824 490.546 279.182 490.546C277.54 490.546 275.966 491.198 274.805 492.359C273.644 493.52 272.992 495.095 272.992 496.736V496.875C272.992 498.517 273.644 500.091 274.805 501.252C275.966 502.413 277.54 503.065 279.182 503.065C280.824 503.065 282.398 502.413 283.559 501.252C284.72 500.091 285.372 498.517 285.372 496.875V496.875ZM315.705 496.875V496.736C315.73 495.908 315.588 495.083 315.288 494.311C314.989 493.539 314.537 492.834 313.96 492.24C313.383 491.645 312.692 491.173 311.929 490.85C311.166 490.527 310.346 490.361 309.518 490.361C308.689 490.361 307.869 490.527 307.106 490.85C306.343 491.173 305.653 491.645 305.076 492.24C304.499 492.834 304.047 493.539 303.747 494.311C303.447 495.083 303.306 495.908 303.331 496.736V496.875C303.306 497.703 303.447 498.528 303.747 499.3C304.047 500.073 304.499 500.777 305.076 501.372C305.653 501.966 306.343 502.439 307.106 502.761C307.869 503.084 308.689 503.251 309.518 503.251C310.346 503.251 311.166 503.084 311.929 502.761C312.692 502.439 313.383 501.966 313.96 501.372C314.537 500.777 314.989 500.073 315.288 499.3C315.588 498.528 315.73 497.703 315.705 496.875ZM339.854 503.065C343.271 503.065 346.044 500.292 346.044 496.875V496.736C346.044 495.095 345.391 493.52 344.231 492.359C343.07 491.198 341.495 490.546 339.854 490.546C338.212 490.546 336.638 491.198 335.477 492.359C334.316 493.52 333.664 495.095 333.664 496.736V496.875C333.664 500.292 336.431 503.065 339.854 503.065V503.065ZM370.187 503.065C373.61 503.065 376.377 500.292 376.377 496.875V496.736C376.377 495.923 376.217 495.118 375.905 494.367C375.594 493.616 375.138 492.934 374.564 492.359C373.989 491.785 373.306 491.329 372.555 491.017C371.804 490.706 371 490.546 370.187 490.546C369.374 490.546 368.569 490.706 367.818 491.017C367.067 491.329 366.385 491.785 365.81 492.359C365.235 492.934 364.779 493.616 364.468 494.367C364.157 495.118 363.997 495.923 363.997 496.736V496.875C363.997 500.292 366.775 503.065 370.187 503.065V503.065ZM400.525 503.065C403.943 503.065 406.715 500.292 406.715 496.875V496.736C406.715 495.095 406.063 493.52 404.902 492.359C403.741 491.198 402.167 490.546 400.525 490.546C398.884 490.546 397.309 491.198 396.148 492.359C394.987 493.52 394.335 495.095 394.335 496.736V496.875C394.335 500.292 397.108 503.065 400.525 503.065V503.065ZM136.479 520.629V520.768C136.479 522.41 137.132 523.984 138.292 525.145C139.453 526.306 141.028 526.958 142.669 526.958C144.311 526.958 145.885 526.306 147.046 525.145C148.207 523.984 148.859 522.41 148.859 520.768V520.629C148.859 518.988 148.207 517.413 147.046 516.252C145.885 515.092 144.311 514.439 142.669 514.439C141.028 514.439 139.453 515.092 138.292 516.252C137.132 517.413 136.479 518.988 136.479 520.629ZM166.818 520.629V520.768C166.818 522.41 167.47 523.984 168.631 525.145C169.792 526.306 171.366 526.958 173.008 526.958C174.65 526.958 176.224 526.306 177.385 525.145C178.546 523.984 179.198 522.41 179.198 520.768V520.629C179.198 518.988 178.546 517.413 177.385 516.252C176.224 515.092 174.65 514.439 173.008 514.439C171.366 514.439 169.792 515.092 168.631 516.252C167.47 517.413 166.818 518.988 166.818 520.629V520.629ZM209.537 520.768V520.629C209.537 518.988 208.884 517.413 207.724 516.252C206.563 515.092 204.988 514.439 203.347 514.439C201.705 514.439 200.13 515.092 198.97 516.252C197.809 517.413 197.157 518.988 197.157 520.629V520.768C197.132 521.596 197.273 522.421 197.573 523.193C197.873 523.966 198.325 524.67 198.902 525.265C199.479 525.859 200.169 526.332 200.932 526.655C201.695 526.977 202.515 527.144 203.344 527.144C204.172 527.144 204.992 526.977 205.755 526.655C206.518 526.332 207.209 525.859 207.786 525.265C208.363 524.67 208.815 523.966 209.114 523.193C209.414 522.421 209.556 521.596 209.531 520.768H209.537ZM239.87 520.768V520.629C239.87 518.988 239.217 517.413 238.057 516.252C236.896 515.092 235.321 514.439 233.68 514.439C232.038 514.439 230.464 515.092 229.303 516.252C228.142 517.413 227.49 518.988 227.49 520.629V520.768C227.465 521.596 227.607 522.421 227.906 523.193C228.206 523.966 228.658 524.67 229.235 525.265C229.812 525.859 230.502 526.332 231.265 526.655C232.028 526.977 232.848 527.144 233.677 527.144C234.505 527.144 235.325 526.977 236.088 526.655C236.851 526.332 237.542 525.859 238.119 525.265C238.696 524.67 239.148 523.966 239.447 523.193C239.747 522.421 239.889 521.596 239.864 520.768H239.87ZM264.013 514.439C260.595 514.439 257.823 517.206 257.823 520.629V520.768C257.823 522.41 258.475 523.984 259.636 525.145C260.797 526.306 262.371 526.958 264.013 526.958C265.654 526.958 267.229 526.306 268.39 525.145C269.55 523.984 270.203 522.41 270.203 520.768V520.629C270.203 517.206 267.43 514.439 264.013 514.439V514.439ZM300.541 520.768V520.629C300.541 518.988 299.889 517.413 298.728 516.252C297.567 515.092 295.993 514.439 294.351 514.439C292.71 514.439 291.135 515.092 289.974 516.252C288.813 517.413 288.161 518.988 288.161 520.629V520.768C288.161 522.41 288.813 523.984 289.974 525.145C291.135 526.306 292.71 526.958 294.351 526.958C295.993 526.958 297.567 526.306 298.728 525.145C299.889 523.984 300.541 522.41 300.541 520.768V520.768ZM330.874 520.768V520.629C330.874 518.988 330.222 517.413 329.061 516.252C327.9 515.092 326.326 514.439 324.684 514.439C323.043 514.439 321.468 515.092 320.307 516.252C319.147 517.413 318.494 518.988 318.494 520.629V520.768C318.494 522.41 319.147 523.984 320.307 525.145C321.468 526.306 323.043 526.958 324.684 526.958C326.326 526.958 327.9 526.306 329.061 525.145C330.222 523.984 330.874 522.41 330.874 520.768V520.768ZM361.213 520.768V520.629C361.213 518.988 360.561 517.413 359.4 516.252C358.239 515.092 356.665 514.439 355.023 514.439C353.381 514.439 351.807 515.092 350.646 516.252C349.485 517.413 348.833 518.988 348.833 520.629V520.768C348.833 522.41 349.485 523.984 350.646 525.145C351.807 526.306 353.381 526.958 355.023 526.958C356.665 526.958 358.239 526.306 359.4 525.145C360.561 523.984 361.213 522.41 361.213 520.768V520.768ZM391.546 520.768V520.629C391.546 519.816 391.386 519.012 391.075 518.261C390.764 517.51 390.308 516.827 389.733 516.252C389.158 515.678 388.476 515.222 387.725 514.911C386.974 514.599 386.169 514.439 385.356 514.439C384.543 514.439 383.738 514.599 382.987 514.911C382.236 515.222 381.554 515.678 380.979 516.252C380.404 516.827 379.948 517.51 379.637 518.261C379.326 519.012 379.166 519.816 379.166 520.629V520.768C379.166 521.581 379.326 522.386 379.637 523.137C379.948 523.888 380.404 524.57 380.979 525.145C381.554 525.72 382.236 526.176 382.987 526.487C383.738 526.798 384.543 526.958 385.356 526.958C386.169 526.958 386.974 526.798 387.725 526.487C388.476 526.176 389.158 525.72 389.733 525.145C390.308 524.57 390.764 523.888 391.075 523.137C391.386 522.386 391.546 521.581 391.546 520.768ZM127.506 538.327C124.088 538.327 121.316 541.1 121.316 544.517V544.661C121.316 546.303 121.968 547.877 123.129 549.038C124.289 550.199 125.864 550.851 127.506 550.851C129.147 550.851 130.722 550.199 131.883 549.038C133.043 547.877 133.696 546.303 133.696 544.661V544.517C133.696 541.1 130.917 538.327 127.506 538.327ZM157.839 538.327C154.421 538.327 151.649 541.1 151.649 544.517V544.661C151.649 546.303 152.301 547.877 153.462 549.038C154.623 550.199 156.197 550.851 157.839 550.851C159.48 550.851 161.055 550.199 162.216 549.038C163.376 547.877 164.029 546.303 164.029 544.661V544.517C164.029 541.1 161.256 538.327 157.839 538.327ZM181.987 544.661C181.987 548.079 184.754 550.851 188.177 550.851H309.515C311.157 550.851 312.731 550.199 313.892 549.038C315.053 547.877 315.705 546.303 315.705 544.661C315.705 543.02 315.053 541.445 313.892 540.284C312.731 539.123 311.157 538.471 309.515 538.471H188.177C184.76 538.471 181.987 541.238 181.987 544.661V544.661ZM333.664 544.661C333.639 545.489 333.781 546.314 334.08 547.086C334.38 547.859 334.832 548.563 335.409 549.158C335.986 549.752 336.676 550.225 337.439 550.548C338.202 550.87 339.022 551.037 339.851 551.037C340.679 551.037 341.499 550.87 342.262 550.548C343.025 550.225 343.716 549.752 344.293 549.158C344.87 548.563 345.322 547.859 345.621 547.086C345.921 546.314 346.063 545.489 346.038 544.661V544.517C346.063 543.689 345.921 542.864 345.621 542.092C345.322 541.319 344.87 540.615 344.293 540.02C343.716 539.426 343.025 538.953 342.262 538.63C341.499 538.308 340.679 538.141 339.851 538.141C339.022 538.141 338.202 538.308 337.439 538.63C336.676 538.953 335.986 539.426 335.409 540.02C334.832 540.615 334.38 541.319 334.08 542.092C333.781 542.864 333.639 543.689 333.664 544.517V544.661ZM363.997 544.661C363.997 546.303 364.649 547.877 365.81 549.038C366.971 550.199 368.545 550.851 370.187 550.851C371.828 550.851 373.403 550.199 374.564 549.038C375.724 547.877 376.377 546.303 376.377 544.661V544.517C376.377 542.875 375.724 541.301 374.564 540.14C373.403 538.979 371.828 538.327 370.187 538.327C368.545 538.327 366.971 538.979 365.81 540.14C364.649 541.301 363.997 542.875 363.997 544.517V544.661ZM394.335 544.661C394.335 546.303 394.987 547.877 396.148 549.038C397.309 550.199 398.884 550.851 400.525 550.851C402.167 550.851 403.741 550.199 404.902 549.038C406.063 547.877 406.715 546.303 406.715 544.661V544.517C406.715 542.875 406.063 541.301 404.902 540.14C403.741 538.979 402.167 538.327 400.525 538.327C398.884 538.327 397.309 538.979 396.148 540.14C394.987 541.301 394.335 542.875 394.335 544.517V544.661Z" fill="#00345E"/>
</svg>
