<svg width="831" height="821" viewBox="0 0 831 821" fill="none" xmlns="http://www.w3.org/2000/svg">
<path opacity="0.1" d="M730.146 366.129C729.648 362.299 727.754 358.779 724.818 356.23C721.882 353.68 718.106 352.276 714.198 352.279H676.983C655.984 239.938 569.922 150.135 458.821 122.435C459.182 119.529 459.391 116.574 459.391 113.568C459.391 73.796 426.758 41.5557 386.502 41.5557C346.245 41.5557 313.612 73.796 313.612 113.568C313.612 116.538 313.815 119.458 314.169 122.335C283.987 129.818 255.199 141.987 228.879 158.388C221.462 155.947 213.696 154.703 205.879 154.704C165.622 154.704 132.989 186.944 132.989 226.716C132.989 234.555 134.275 242.101 136.617 249.169C106.503 295.935 90.5498 350.231 90.637 405.658C90.637 566.974 223.004 697.756 386.285 697.756C437.307 697.829 487.471 684.795 531.855 659.933L574.308 686.012C580.045 689.536 586.666 691.403 593.421 691.403C600.176 691.403 606.797 689.536 612.534 686.012L721.836 618.869C723.824 617.65 725.519 616.017 726.801 614.083C728.083 612.149 728.921 609.962 729.257 607.674C733.527 578.49 736.266 533.777 736.266 483.653C736.266 437.113 733.91 395.242 730.153 366.129H730.146Z" fill="#00345E"/>
<path d="M386.278 726.35C549.566 726.35 681.933 595.575 681.933 434.253C681.933 272.937 549.566 142.162 386.278 142.162C222.997 142.162 90.6295 272.937 90.6295 434.26C90.6295 595.575 222.997 726.35 386.278 726.35V726.35Z" fill="#7879F1" fill-opacity="0.2"/>
<path d="M278.754 279.14C278.754 318.905 246.128 351.153 205.871 351.153C167.024 351.153 135.301 321.147 133.112 283.331C150.843 254.381 173.506 228.675 200.098 207.349C202.013 207.207 203.928 207.121 205.871 207.121C246.128 207.121 278.754 239.368 278.754 279.148V279.14ZM459.384 165.999C459.384 205.757 426.758 238.005 386.495 238.005C346.238 238.005 313.612 205.757 313.612 165.999C313.612 160.738 314.19 155.591 315.274 150.65C338.511 145 362.355 142.152 386.285 142.169C410.926 142.169 434.859 145.139 457.744 150.765C458.821 155.669 459.384 160.774 459.384 165.999V165.999ZM681.926 434.252C681.926 553.419 609.716 655.915 506.151 701.341L465.006 676.055C463.015 674.84 461.318 673.209 460.035 671.276C458.751 669.343 457.912 667.156 457.578 664.868C453.3 635.669 450.568 590.978 450.568 540.84C450.568 494.292 452.931 452.421 456.696 423.322C457.192 419.494 459.084 415.975 462.017 413.426C464.95 410.876 468.723 409.471 472.63 409.472H680.864C681.572 417.632 681.926 425.907 681.926 434.245V434.252Z" fill="#67CED0"/>
<path d="M205.871 327.328C246.12 327.328 278.761 295.08 278.761 255.308C278.761 215.543 246.12 183.296 205.871 183.296C165.614 183.296 132.981 215.536 132.981 255.308C132.981 295.08 165.614 327.328 205.871 327.328Z" fill="#006686"/>
<path d="M232.586 242.23C232.577 235.233 229.759 228.525 224.751 223.578C219.743 218.63 212.954 215.846 205.871 215.837C198.787 215.844 191.994 218.628 186.984 223.578C181.975 228.527 179.157 235.238 179.149 242.237C179.149 249.412 182.069 255.916 186.787 260.685C181.887 265.605 179.142 272.23 179.142 279.132C179.142 281.242 179.99 283.265 181.5 284.756C183.009 286.248 185.057 287.085 187.192 287.085C189.327 287.085 191.374 286.248 192.884 284.756C194.394 283.265 195.242 281.242 195.242 279.132C195.242 273.35 200.011 268.638 205.864 268.638C211.724 268.638 216.486 273.35 216.486 279.132C216.486 281.242 217.335 283.265 218.844 284.756C220.354 286.248 222.401 287.085 224.536 287.085C226.671 287.085 228.719 286.248 230.228 284.756C231.738 283.265 232.586 281.242 232.586 279.132C232.588 272.231 229.845 265.606 224.948 260.685C229.845 255.763 232.588 249.138 232.586 242.237V242.23ZM205.871 231.736C211.724 231.736 216.494 236.448 216.494 242.23C216.494 248.02 211.724 252.725 205.871 252.725C200.018 252.725 195.249 248.02 195.249 242.23C195.249 236.448 200.018 231.736 205.871 231.736Z" fill="#F5F5F5"/>
<path d="M386.495 214.175C426.744 214.175 459.384 181.935 459.384 142.163C459.384 102.398 426.751 70.1504 386.495 70.1504C346.245 70.1504 313.605 102.391 313.605 142.163C313.605 181.935 346.238 214.175 386.495 214.175Z" fill="#46EFB2"/>
<path d="M413.216 129.082C413.209 122.082 410.391 115.371 405.381 110.422C400.372 105.473 393.579 102.689 386.494 102.681C379.41 102.689 372.617 105.473 367.607 110.422C362.598 115.371 359.78 122.082 359.772 129.082C359.772 136.256 362.692 142.767 367.417 147.529C362.516 152.451 359.77 159.079 359.772 165.984C359.772 168.093 360.62 170.116 362.13 171.607C363.64 173.099 365.687 173.937 367.822 173.937C369.957 173.937 372.005 173.099 373.514 171.607C375.024 170.116 375.872 168.093 375.872 165.984C375.872 160.194 380.641 155.489 386.494 155.489C392.347 155.489 397.117 160.194 397.117 165.984C397.117 168.093 397.965 170.116 399.474 171.607C400.984 173.099 403.032 173.937 405.167 173.937C407.301 173.937 409.349 173.099 410.859 171.607C412.368 170.116 413.216 168.093 413.216 165.984C413.219 159.079 410.473 152.451 405.571 147.529C410.471 142.609 413.217 135.984 413.216 129.082V129.082ZM386.494 118.587C392.347 118.587 397.117 123.299 397.117 129.082C397.117 134.871 392.347 139.576 386.494 139.576C380.641 139.576 375.872 134.871 375.872 129.082C375.872 123.299 380.641 118.587 386.494 118.587Z" fill="#F5F5F5"/>
<path d="M278.038 773.147C318.288 773.147 350.928 740.907 350.928 701.134C350.928 661.362 318.295 629.122 278.038 629.122C237.789 629.122 205.149 661.362 205.149 701.134C205.149 740.907 237.782 773.147 278.038 773.147V773.147Z" fill="#006686"/>
<path d="M304.761 688.056C304.753 681.057 301.935 674.346 296.925 669.397C291.916 664.447 285.123 661.663 278.038 661.656C270.954 661.663 264.161 664.447 259.152 669.397C254.142 674.346 251.324 681.057 251.316 688.056C251.316 695.231 254.236 701.742 258.954 706.504C254.057 711.425 251.314 718.05 251.316 724.951C251.316 727.061 252.165 729.083 253.674 730.575C255.184 732.066 257.231 732.904 259.366 732.904C261.501 732.904 263.549 732.066 265.058 730.575C266.568 729.083 267.416 727.061 267.416 724.951C267.416 719.169 272.185 714.457 278.038 714.457C283.892 714.457 288.661 719.169 288.661 724.951C288.661 727.061 289.509 729.083 291.019 730.575C292.528 732.066 294.576 732.904 296.711 732.904C298.846 732.904 300.893 732.066 302.403 730.575C303.912 729.083 304.761 727.061 304.761 724.951C304.762 718.049 302.016 711.423 297.115 706.504C302.015 701.584 304.761 694.958 304.761 688.056V688.056ZM278.038 677.562C283.892 677.562 288.661 682.274 288.661 688.056C288.661 693.839 283.892 698.551 278.038 698.551C272.185 698.551 267.416 693.839 267.416 688.056C267.416 682.274 272.185 677.562 278.038 677.562Z" fill="#F5F5F5"/>
<path d="M721.828 647.462C723.816 646.245 725.51 644.613 726.792 642.68C728.074 640.748 728.913 638.562 729.249 636.275C733.52 607.076 736.259 562.371 736.259 512.247C736.259 465.7 733.903 423.836 730.145 394.723C729.648 390.893 727.754 387.373 724.818 384.824C721.882 382.274 718.106 380.869 714.198 380.873H472.629C464.551 380.873 457.708 386.799 456.689 394.723C452.931 423.836 450.575 465.707 450.575 512.247C450.575 562.371 453.307 607.084 457.585 636.275C457.921 638.561 458.758 640.747 460.039 642.679C461.32 644.612 463.012 646.244 464.999 647.462L574.3 714.606C580.038 718.13 586.658 719.997 593.413 719.997C600.169 719.997 606.789 718.13 612.526 714.606L721.828 647.462V647.462Z" fill="#5D5FEF"/>
<path d="M738.131 393.722C737.375 387.977 734.53 382.699 730.127 378.873C725.723 375.047 720.062 372.933 714.198 372.926H570.811C566.366 338.623 558.208 306.268 546.964 277.105C567.776 269.202 587.069 259.742 604.325 248.869C627.038 274.934 644.771 304.856 656.664 337.18C657.007 338.185 657.55 339.111 658.261 339.905C658.972 340.699 659.837 341.344 660.804 341.803C661.771 342.262 662.821 342.525 663.893 342.578C664.964 342.63 666.036 342.47 667.044 342.108C668.052 341.745 668.977 341.187 669.763 340.466C670.55 339.745 671.183 338.877 671.625 337.911C672.067 336.945 672.309 335.902 672.337 334.842C672.365 333.782 672.178 332.728 671.788 331.74C655.241 286.778 628.054 246.375 592.494 213.9C556.933 181.426 514.031 157.82 467.362 145.052C467.398 144.096 467.434 143.132 467.434 142.161C467.434 98.0696 431.123 62.2026 386.502 62.2026C341.866 62.2026 305.555 98.0696 305.555 142.161C305.555 143.089 305.591 144.003 305.628 144.917C278.188 152.369 251.953 163.617 227.701 178.328C220.597 176.351 213.252 175.347 205.871 175.344C161.243 175.344 124.932 211.218 124.932 255.309C124.932 299.4 161.243 335.274 205.864 335.274C206.681 335.274 207.476 335.239 208.278 335.217C201.883 364.481 198.4 395.043 197.894 426.305H98.7953C99.7154 390.925 107.371 356.033 121.362 323.452C121.813 322.485 122.063 321.438 122.097 320.374C122.131 319.31 121.948 318.25 121.56 317.257C121.171 316.263 120.585 315.358 119.835 314.592C119.086 313.827 118.188 313.219 117.196 312.803C116.204 312.387 115.137 312.172 114.06 312.171C112.982 312.17 111.915 312.383 110.922 312.796C109.929 313.21 109.03 313.817 108.279 314.58C107.528 315.344 106.94 316.249 106.549 317.241C90.6564 354.249 82.5033 394.05 82.58 434.251C82.58 482.462 93.8021 528.509 115.943 571.108C136.741 610.958 166.237 645.747 202.302 672.962C198.857 681.964 197.094 691.509 197.099 701.133C197.099 745.225 233.41 781.092 278.038 781.092C311.423 781.092 340.154 761.016 352.51 732.438C414.403 739.275 476.929 727.169 531.631 697.757L570.052 721.359C577.263 725.785 585.342 727.998 593.421 727.998C601.5 727.998 609.579 725.785 616.79 721.359L726.085 654.215C729.071 652.388 731.616 649.937 733.54 647.033C735.464 644.13 736.72 640.845 737.22 637.409C741.729 606.633 744.309 561.014 744.309 512.246C744.309 467.341 742.054 424.142 738.131 393.715V393.722ZM554.566 372.926H472.637C466.773 372.931 461.112 375.044 456.709 378.869C452.305 382.694 449.46 387.971 448.704 393.715C447.345 404.549 446.273 415.416 445.489 426.305H394.328V305.14C442.772 304.355 489.943 296.43 531.884 282.466C542.47 309.93 550.209 340.472 554.574 372.926H554.566ZM258.044 623.645C253.978 616.17 250.227 608.532 246.8 600.75C286.796 587.543 331.844 580.047 378.228 579.276V718.082C371.326 717.545 364.494 716.342 357.829 714.491C358.573 710.136 358.978 705.681 358.978 701.133C358.978 657.042 322.667 621.168 278.046 621.168C271.138 621.168 264.439 622.025 258.044 623.645V623.645ZM443.646 566.675C427.274 564.744 410.813 563.641 394.328 563.37V442.197H444.441C443.143 465.522 442.504 488.879 442.526 512.239C442.526 531.086 442.916 549.441 443.646 566.668V566.675ZM378.228 563.37C329.777 564.155 282.634 572.065 240.716 586.015C224.153 543.073 214.861 493.527 213.994 442.204H378.228V563.37ZM394.328 579.276C411.273 579.561 428.038 580.768 444.455 582.795C445.662 603.641 447.411 622.317 449.615 637.409C450.634 644.363 454.695 650.496 460.757 654.215L483.7 668.308C457.079 698.578 426.419 715.633 394.328 718.075V579.276V579.276ZM276.282 215.951C287.7 200.295 300.201 187.159 313.569 176.829C325.521 201.28 349.707 218.842 378.228 221.712V289.234C345.566 288.706 313.764 284.951 283.465 278.026C286.563 267.735 287.524 256.931 286.29 246.264C285.055 235.596 281.651 225.286 276.282 215.951V215.951ZM459.305 177.057C486.085 197.86 508.847 229.287 525.806 267.738C485.774 280.946 440.705 288.456 394.328 289.234V221.748C422.943 219.014 447.252 201.508 459.305 177.057V177.057ZM593.305 236.933C577.473 246.678 559.863 255.209 540.916 262.384C521.962 219.085 495.905 183.903 465.05 161.408L465.151 160.965C513.904 174.671 558.119 200.878 593.305 236.926V236.933ZM386.495 78.1015C422.249 78.1015 451.334 106.836 451.334 142.161C451.334 177.485 422.249 206.22 386.495 206.22C350.74 206.22 321.655 177.485 321.655 142.161C321.655 106.836 350.74 78.1015 386.495 78.1015V78.1015ZM307.803 160.823L307.875 161.13C292.982 171.924 279.072 185.76 266.426 202.329C260.621 195.862 253.799 190.361 246.222 186.038C265.683 175.288 286.35 166.825 307.803 160.823V160.823ZM141.025 255.309C141.025 219.985 170.117 191.25 205.871 191.25C241.619 191.25 270.711 219.985 270.711 255.309C270.711 290.633 241.619 319.368 205.871 319.368C170.117 319.368 141.032 290.633 141.032 255.309H141.025ZM225.281 332.933C236.295 330.221 246.613 325.259 255.568 318.367C264.523 311.475 271.916 302.806 277.272 292.918C309.522 300.485 343.427 304.598 378.228 305.14V426.305H213.994C214.528 394.158 218.329 362.803 225.288 332.933H225.281ZM98.8026 442.204H197.901C198.768 495.319 208.401 546.721 225.591 591.412C204.838 599.301 185.573 608.725 168.339 619.569C153.471 602.543 140.693 583.84 130.272 563.848C110.616 526.169 99.8568 484.58 98.8026 442.204V442.204ZM179.352 631.527C195.162 621.803 212.722 613.308 231.604 606.14C235.072 614.079 238.808 621.761 242.775 629.171C229.189 635.713 217.713 645.86 209.629 658.477C198.907 650.209 188.789 641.203 179.352 631.527V631.527ZM278.031 765.2C242.277 765.2 213.192 736.465 213.192 701.141C213.192 665.816 242.277 637.081 278.031 637.081C313.786 637.081 342.871 665.816 342.871 701.141C342.871 736.465 313.786 765.2 278.031 765.2ZM464.298 707.744C475.918 699.356 487.039 689.018 497.524 676.818L515.769 688.026C499.296 696.224 482.059 702.827 464.298 707.744V707.744ZM721.279 635.139C721.111 636.28 720.692 637.37 720.052 638.333C719.411 639.297 718.565 640.11 717.572 640.715L608.278 707.858C603.822 710.619 598.669 712.083 593.41 712.083C588.151 712.083 582.998 710.619 578.542 707.858L469.248 640.722C468.253 640.116 467.405 639.302 466.764 638.338C466.122 637.373 465.702 636.282 465.534 635.139C461.14 605.084 458.611 560.293 458.611 512.253C458.611 467.991 460.822 425.52 464.667 395.736C464.919 393.828 465.866 392.076 467.33 390.807C468.794 389.538 470.675 388.839 472.622 388.839H714.191C716.138 388.839 718.019 389.538 719.483 390.807C720.947 392.076 721.894 393.828 722.146 395.736C725.991 425.52 728.202 467.991 728.202 512.253C728.202 560.3 725.68 605.084 721.279 635.146V635.139Z" fill="#00345E"/>
<path d="M593.421 428.533V526.389H498.897C498.846 521.705 498.817 516.987 498.817 512.253C498.817 483.911 499.735 456.454 501.418 432.952C501.506 431.752 502.05 430.629 502.942 429.809C503.833 428.989 505.006 428.533 506.224 428.533H593.421V428.533ZM498.889 526.389H593.421V670.228L505.516 616.228C504.89 615.847 504.362 615.33 503.971 614.716C503.58 614.103 503.337 613.408 503.261 612.687C500.804 588.992 499.251 558.501 498.897 526.389H498.889Z" fill="white"/>
<path d="M688.024 512.253C688.024 516.987 687.996 521.705 687.952 526.389H593.413V428.533H680.596C683.125 428.533 685.228 430.46 685.409 432.945C687.092 456.454 688.017 483.911 688.017 512.253H688.024ZM687.945 526.389C687.584 558.508 686.037 588.999 683.58 612.687C683.503 613.408 683.26 614.102 682.869 614.716C682.478 615.329 681.95 615.847 681.326 616.228L593.421 670.228V526.389H687.945V526.389Z" fill="white"/>
<path d="M638.121 501.739L579.735 548.679L558.49 524.12C556.312 521.778 553.298 520.362 550.085 520.17C546.871 519.979 543.708 521.027 541.261 523.094C538.813 525.161 537.274 528.086 536.965 531.252C536.657 534.418 537.605 537.579 539.608 540.069L568.729 573.744C568.859 573.901 569.004 574.03 569.141 574.18C569.286 574.322 569.445 574.508 569.604 574.658L570.16 575.136C570.326 575.279 570.485 575.422 570.659 575.55C570.854 575.693 571.063 575.829 571.266 575.964C571.439 576.079 571.605 576.2 571.793 576.307L572.451 576.657C572.631 576.75 572.805 576.85 572.985 576.928C573.224 577.035 573.462 577.121 573.708 577.214C573.881 577.285 574.055 577.356 574.235 577.414C574.481 577.499 574.741 577.556 575.001 577.628L575.529 577.771C575.796 577.828 576.071 577.856 576.338 577.899C576.512 577.92 576.678 577.963 576.844 577.978C577.177 578.013 577.502 578.02 577.834 578.028C577.95 578.028 578.058 578.049 578.174 578.049C578.535 578.049 578.882 578.035 579.236 578.006C579.294 578.006 579.352 577.985 579.402 577.985C579.691 577.956 579.987 577.913 580.284 577.871L580.602 577.799L581.317 577.649L581.707 577.535L582.329 577.335L582.762 577.171L583.326 576.942L583.774 576.714C583.947 576.628 584.121 576.55 584.287 576.45L584.742 576.179L585.219 575.872C585.378 575.764 585.508 575.657 585.653 575.55C585.776 575.465 585.891 575.386 586.007 575.293L653.809 520.793C655.112 519.789 656.199 518.538 657.007 517.114C657.815 515.689 658.327 514.12 658.513 512.498C658.7 510.876 658.557 509.233 658.093 507.666C657.629 506.099 656.854 504.639 655.812 503.372C654.771 502.104 653.484 501.055 652.027 500.284C650.569 499.514 648.971 499.039 647.326 498.886C645.681 498.734 644.021 498.907 642.445 499.395C640.868 499.884 639.405 500.678 638.143 501.732L638.121 501.746V501.739Z" fill="#083863"/>
</svg>
