<svg width="460" height="310" viewBox="0 0 460 310" fill="none" xmlns="http://www.w3.org/2000/svg">
<path fill-rule="evenodd" clip-rule="evenodd" d="M414.9 280.2C414.9 291.1 406.1 299.9 395.2 299.9H64.8C53.9 299.9 45.1 291.1 45.1 280.2V61.1C45.1 50.2 53.9 41.4 64.8 41.4H395.2C406.1 41.4 414.9 50.2 414.9 61.1V280.2Z" fill="#1E0F00"/>
<path fill-rule="evenodd" clip-rule="evenodd" d="M0.100006 278.7V283.5C0.100006 293.9 11.1 302.4 24.6 302.4H435.5C449 302.4 460 293.9 460 283.5V278.7H0.100006Z" fill="#D3D3D3"/>
<path fill-rule="evenodd" clip-rule="evenodd" d="M59.6 57.9V258.5H398.7V74.6H59.6V57.9Z" fill="#E2E4E8"/>
<path d="M391.2 92.9H299.5V215.3H391.2V92.9Z" fill="#EEEEEF"/>
<path d="M398.7 57.9H59.6V74.6H398.7V57.9Z" fill="#00AEF0"/>
<path d="M288.5 57.9H80.1V248.1H288.5V57.9Z" fill="#EEEEEF"/>
<path fill-rule="evenodd" clip-rule="evenodd" d="M435.8 309.3C435.7 309.3 435.7 309.3 435.8 309.3C435.7 309.3 435.7 309.3 435.8 309.3ZM435.9 309.3C435.8 309.3 435.8 309.3 435.9 309.3C435.8 309.3 435.8 309.3 435.9 309.3ZM447.1 306.4C443.7 308.2 439.9 309.3 435.9 309.3C439.9 309.3 443.8 308.2 447.1 306.4ZM447.2 306.3C447.2 306.4 447.2 306.4 447.2 306.3C447.2 306.4 447.2 306.4 447.2 306.3ZM447.3 306.3C447.3 306.3 447.2 306.3 447.2 306.4C447.2 306.3 447.3 306.3 447.3 306.3ZM447.4 306.2C447.4 306.3 447.3 306.3 447.4 306.2C447.3 306.3 447.4 306.3 447.4 306.2ZM447.5 306.2C447.4 306.2 447.4 306.2 447.5 306.2C447.4 306.2 447.4 306.2 447.5 306.2ZM447.6 306.1C447.5 306.1 447.5 306.2 447.6 306.1C447.5 306.2 447.5 306.1 447.6 306.1Z" fill="#535671"/>
<path fill-rule="evenodd" clip-rule="evenodd" d="M457.6 291.5H2.39999C6.29999 297.9 14.7 302.3 24.4 302.3H24.5H435.4H435.5C435.5 302.3 435.5 302.3 435.6 302.3H435.7C435.7 302.3 435.7 302.3 435.8 302.3C439.9 302.2 443.7 301.4 447 300C447 300 447 300 447.1 300H447.2C447.2 300 447.2 300 447.3 300C447.3 300 447.3 300 447.4 300C452 297.9 455.4 295 457.6 291.5Z" fill="#66646D"/>
<path d="M386.5 89.4H294.3V210.3H386.5V89.4Z" fill="#0E538B"/>
<path d="M326.6 102H303.5V103.4H326.6V102Z" fill="white"/>
<path d="M315.7 105.5H303.5V106.9H315.7V105.5Z" fill="white"/>
<path d="M323.2 109.1H303.5V110.5H323.2V109.1Z" fill="white"/>
<path d="M324.1 116.2H312.6V117.6H324.1V116.2Z" fill="white"/>
<path d="M331.8 119.8H320.6V121.2H331.8V119.8Z" fill="white"/>
<path d="M340.5 105.5H319.7V106.9H340.5V105.5Z" fill="white"/>
<path d="M353.4 105.5H343.5V106.9H353.4V105.5Z" fill="white"/>
<path d="M370.6 105.5H357.2V106.9H370.6V105.5Z" fill="white"/>
<path d="M338.1 109.1H326.4V110.5H338.1V109.1Z" fill="white"/>
<path fill-rule="evenodd" clip-rule="evenodd" d="M324.1 112.7H321.9H312.6V114.1H321.9H324.1H334.3V112.7H324.1Z" fill="white"/>
<path d="M339.1 116.2H327.6V117.6H339.1V116.2Z" fill="white"/>
<path d="M350.3 112.7H337.5V114.1H350.3V112.7Z" fill="white"/>
<path d="M359.5 112.7H352.8V114.1H359.5V112.7Z" fill="white"/>
<path d="M370.6 112.7H362.3V114.1H370.6V112.7Z" fill="white"/>
<path d="M356.1 116.2H341.6V117.6H356.1V116.2Z" fill="white"/>
<path d="M362.6 116.2H358.3V117.6H362.6V116.2Z" fill="white"/>
<path d="M343.2 119.8H334.9V121.2H343.2V119.8Z" fill="white"/>
<path d="M324.1 127H312.6V128.4H324.1V127Z" fill="white"/>
<path d="M324.1 130.5H312.6V131.9H324.1V130.5Z" fill="white"/>
<path d="M337.9 130.5H327.6V131.9H337.9V130.5Z" fill="white"/>
<path fill-rule="evenodd" clip-rule="evenodd" d="M339.1 127H337.5H327.6V128.4H337.5H339.1H347.3V127H339.1Z" fill="white"/>
<path d="M354.4 127H349.2V128.4H354.4V127Z" fill="white"/>
<path d="M363 127H356.6V128.4H363V127Z" fill="white"/>
<path d="M359.5 130.5H348V131.9H359.5V130.5Z" fill="white"/>
<path d="M324.1 134.1H312.6V135.5H324.1V134.1Z" fill="white"/>
<path d="M324.1 137.7H312.6V139.1H324.1V137.7Z" fill="white"/>
<path d="M334.3 134.1H327.6V135.5H334.3V134.1Z" fill="white"/>
<path d="M348.6 137.7H327.6V139.1H348.6V137.7Z" fill="white"/>
<path fill-rule="evenodd" clip-rule="evenodd" d="M350.2 134.1H345H337.5V135.5H345H350.2H359.5V134.1H350.2Z" fill="white"/>
<path d="M370.6 134.1H362.3V135.5H370.6V134.1Z" fill="white"/>
<path d="M363 137.7H351.2V139.1H363V137.7Z" fill="white"/>
<path d="M345.1 130.5H340.2V131.9H345.1V130.5Z" fill="white"/>
<path d="M315.7 144.8H303.5V146.2H315.7V144.8Z" fill="white"/>
<path d="M323.2 148.4H303.5V149.8H323.2V148.4Z" fill="white"/>
<path d="M324.1 152H312.6V153.4H324.1V152Z" fill="white"/>
<path d="M324.1 155.5H312.6V157H324.1V155.5Z" fill="white"/>
<path fill-rule="evenodd" clip-rule="evenodd" d="M336.4 144.8H334.2H319.7V146.3H334.2H336.4H340.1V144.8H336.4Z" fill="white"/>
<path d="M362.3 144.8H343.8V146.2H362.3V144.8Z" fill="white"/>
<path d="M338.1 148.4H326.4V149.8H338.1V148.4Z" fill="white"/>
<path d="M336.5 155.5H327.6V157H336.5V155.5Z" fill="white"/>
<path fill-rule="evenodd" clip-rule="evenodd" d="M345.3 152H343.8H327.6V153.4H343.8H345.3H353.6V152H345.3Z" fill="white"/>
<path d="M356.1 155.5H339.1V157H356.1V155.5Z" fill="white"/>
<path d="M362.6 155.5H358.3V157H362.6V155.5Z" fill="white"/>
<path d="M343.2 159.1H334.9V160.5H343.2V159.1Z" fill="white"/>
<path fill-rule="evenodd" clip-rule="evenodd" d="M331.7 159.1H328.7H320.6V160.5H328.7H331.7H360.5V159.1H331.7Z" fill="white"/>
<path d="M367.4 159.1H362.8V160.5H367.4V159.1Z" fill="white"/>
<path d="M324.1 166.2H312.6V167.6H324.1V166.2Z" fill="white"/>
<path d="M324.1 169.8H312.6V171.2H324.1V169.8Z" fill="white"/>
<path d="M346.5 166.2H327.6V167.6H346.5V166.2Z" fill="white"/>
<path d="M337.9 169.8H327.6V171.2H337.9V169.8Z" fill="white"/>
<path d="M354.4 166.2H349.2V167.6H354.4V166.2Z" fill="white"/>
<path d="M363 166.2H356.6V167.6H363V166.2Z" fill="white"/>
<path d="M359.5 169.8H348V171.2H359.5V169.8Z" fill="white"/>
<path d="M345.1 169.8H340.2V171.2H345.1V169.8Z" fill="white"/>
<path d="M315.7 175.7H303.5V177.1H315.7V175.7Z" fill="white"/>
<path d="M323.2 179.2H303.5V180.6H323.2V179.2Z" fill="white"/>
<path d="M324.1 182.8H312.6V184.2H324.1V182.8Z" fill="white"/>
<path d="M324.1 186.4H312.6V187.8H324.1V186.4Z" fill="white"/>
<path d="M331.8 189.9H320.6V191.3H331.8V189.9Z" fill="white"/>
<path d="M331.2 175.7H319.7V177.1H331.2V175.7Z" fill="white"/>
<path fill-rule="evenodd" clip-rule="evenodd" d="M346.3 175.7H343.8H334.2V177.1H343.8H346.3H370.6V175.7H346.3Z" fill="white"/>
<path d="M338.1 179.2H326.4V180.6H338.1V179.2Z" fill="white"/>
<path d="M336.5 186.4H327.6V187.8H336.5V186.4Z" fill="white"/>
<path fill-rule="evenodd" clip-rule="evenodd" d="M345 182.8H343.8H327.6V184.2H343.8H345H353.6V182.8H345Z" fill="white"/>
<path d="M362 182.8H356.1V184.2H362V182.8Z" fill="white"/>
<path d="M370.6 182.8H364.9V184.2H370.6V182.8Z" fill="white"/>
<path d="M356.1 186.4H339.1V187.8H356.1V186.4Z" fill="white"/>
<path d="M362.6 186.4H358.3V187.8H362.6V186.4Z" fill="white"/>
<path d="M343.2 189.9H334.9V191.3H343.2V189.9Z" fill="white"/>
<path d="M324.1 200.7H312.6V202.1H324.1V200.7Z" fill="white"/>
<path fill-rule="evenodd" clip-rule="evenodd" d="M324.1 197.1H319.9H312.6V198.5H319.9H324.1H346.5V197.1H324.1Z" fill="white"/>
<path d="M337.9 200.7H327.6V202.1H337.9V200.7Z" fill="white"/>
<path d="M354.4 197.1H349.2V198.5H354.4V197.1Z" fill="white"/>
<path d="M363 197.1H356.6V198.5H363V197.1Z" fill="white"/>
<path d="M359.5 200.7H348V202.1H359.5V200.7Z" fill="white"/>
<path d="M345.1 200.7H340.2V202.1H345.1V200.7Z" fill="white"/>
<path d="M386.5 89.4H294.3V96.6H386.5V89.4Z" fill="#00AEF0"/>
<path fill-rule="evenodd" clip-rule="evenodd" d="M382 92.5C382 93.5 381.2 94.4 380.1 94.4C379.1 94.4 378.2 93.6 378.2 92.5C378.2 91.5 379 90.6 380.1 90.6C381.2 90.6 382 91.5 382 92.5Z" fill="#E7E5E4"/>
<path fill-rule="evenodd" clip-rule="evenodd" d="M375.8 92.5C375.8 93.5 375 94.4 373.9 94.4C372.9 94.4 372 93.6 372 92.5C372 91.5 372.8 90.6 373.9 90.6C374.9 90.6 375.8 91.5 375.8 92.5Z" fill="#E7E5E4"/>
<path d="M284.4 0.700012H73.9V243.4H284.4V0.700012Z" fill="white"/>
<path d="M284.4 0.700012H73.9V12.4H284.4V0.700012Z" fill="#00AEF0"/>
<path fill-rule="evenodd" clip-rule="evenodd" d="M278.5 6.20001C278.5 7.70001 277.2 9.00002 275.7 9.00002C274.2 9.00002 272.9 7.70001 272.9 6.20001C272.9 4.70001 274.2 3.40002 275.7 3.40002C277.3 3.40002 278.5 4.70001 278.5 6.20001Z" fill="#E7E5E4"/>
<path fill-rule="evenodd" clip-rule="evenodd" d="M269.2 6.20001C269.2 7.70001 267.9 9.00002 266.4 9.00002C264.8 9.00002 263.6 7.70001 263.6 6.20001C263.6 4.70001 264.9 3.40002 266.4 3.40002C267.9 3.40002 269.2 4.70001 269.2 6.20001Z" fill="#E7E5E4"/>
<path d="M284.4 33.5H73.9V47.2H284.4V33.5Z" fill="#00AEF0"/>
<path d="M272.6 37.3H208.1V43.3H272.6V37.3Z" fill="white"/>
<path d="M107.1 38.3H88.2V42.3H107.1V38.3Z" fill="#E3E3E3"/>
<path d="M127.5 38.3H108.6V42.3H127.5V38.3Z" fill="#E3E3E3"/>
<path d="M148 38.3H129.1V42.3H148V38.3Z" fill="#E3E3E3"/>
<path d="M168.4 38.3H149.5V42.3H168.4V38.3Z" fill="#E3E3E3"/>
<path d="M153.9 67.5H115.6V98.6H153.9V67.5Z" fill="#2993F2"/>
<path fill-rule="evenodd" clip-rule="evenodd" d="M276.8 38C276 38 275.3 38.7 275.3 39.5C275.3 40.3 276 41 276.8 41C277.6 41 278.3 40.3 278.3 39.5C278.3 38.7 277.6 38 276.8 38ZM275.4 38.2C276.2 37.4 277.5 37.4 278.2 38.2C279 39 279 40.2 278.2 41C277.4 41.8 276.1 41.8 275.4 41C274.6 40.2 274.6 38.9 275.4 38.2Z" fill="white"/>
<path fill-rule="evenodd" clip-rule="evenodd" d="M278.6 41.7L278.2 41.3C278.3 41.2 278.4 41.2 278.4 41.1C278.5 41 278.6 40.9 278.6 40.8L279.1 41.2L278.6 41.7Z" fill="white"/>
<path fill-rule="evenodd" clip-rule="evenodd" d="M280.9 43C281.1 43.2 281.1 43.4 280.9 43.6C280.7 43.8 280.5 43.8 280.3 43.6L278.5 41.9L279.1 41.3L280.9 43Z" fill="white"/>
<path fill-rule="evenodd" clip-rule="evenodd" d="M276.7 40.8C276.8 40.8 277 40.8 277.1 40.7C277.2 40.7 277.2 40.6 277.2 40.5C277.2 40.4 277.1 40.4 277 40.4C276.9 40.4 276.8 40.5 276.7 40.5C276.4 40.5 276.2 40.3 276.1 40.1C276.1 40 276 40 275.9 40C275.8 40 275.8 40.1 275.8 40.2C275.9 40.6 276.3 40.8 276.7 40.8Z" fill="white"/>
<path d="M196.5 67.3H158.2V98.4H196.5V67.3Z" fill="#00AEF0"/>
<path d="M239.2 67.1H200.9V98.2H239.2V67.1Z" fill="#CCE9FF"/>
<path d="M145.6 204.2H90.7V206.9H145.6V204.2Z" fill="#D3D3D3"/>
<path d="M145.6 209.1H90.7V211.8H145.6V209.1Z" fill="#D3D3D3"/>
<path d="M145.6 214H90.7V216.7H145.6V214Z" fill="#D3D3D3"/>
<path d="M145.6 218.9H90.7V221.6H145.6V218.9Z" fill="#D3D3D3"/>
<path d="M145.6 223.8H90.7V226.5H145.6V223.8Z" fill="#D3D3D3"/>
<path d="M145.6 228.7H90.7V231.4H145.6V228.7Z" fill="#D3D3D3"/>
<path d="M145.6 233.6H90.7V236.3H145.6V233.6Z" fill="#D3D3D3"/>
<path d="M207.3 204.2H152.4V206.9H207.3V204.2Z" fill="#D3D3D3"/>
<path d="M207.3 209.1H152.4V211.8H207.3V209.1Z" fill="#D3D3D3"/>
<path d="M207.3 214H152.4V216.7H207.3V214Z" fill="#D3D3D3"/>
<path d="M207.3 218.9H152.4V221.6H207.3V218.9Z" fill="#D3D3D3"/>
<path d="M207.3 223.8H152.4V226.5H207.3V223.8Z" fill="#D3D3D3"/>
<path d="M207.3 228.7H152.4V231.4H207.3V228.7Z" fill="#D3D3D3"/>
<path d="M207.3 233.6H152.4V236.3H207.3V233.6Z" fill="#D3D3D3"/>
<path d="M269.3 204.2H214.4V206.9H269.3V204.2Z" fill="#D3D3D3"/>
<path d="M269.3 209.1H214.4V211.8H269.3V209.1Z" fill="#D3D3D3"/>
<path d="M269.3 214H214.4V216.7H269.3V214Z" fill="#D3D3D3"/>
<path d="M269.3 218.9H214.4V221.6H269.3V218.9Z" fill="#D3D3D3"/>
<path d="M269.3 223.8H214.4V226.5H269.3V223.8Z" fill="#D3D3D3"/>
<path d="M269.3 228.7H214.4V231.4H269.3V228.7Z" fill="#D3D3D3"/>
<path d="M269.3 233.6H214.4V236.3H269.3V233.6Z" fill="#D3D3D3"/>
<path d="M284.4 118.7H73.9V184.4H284.4V118.7Z" fill="#00AEF0"/>
<path d="M147.9 129.6H93.6V173.6H147.9V129.6Z" fill="#E3E3E3"/>
<path d="M248.7 145H161.9V146.4H248.7V145Z" fill="white"/>
<path d="M248.7 148.6H161.9V150H248.7V148.6Z" fill="white"/>
<path d="M248.7 152.2H161.9V153.6H248.7V152.2Z" fill="white"/>
<path d="M219.1 155.7H161.9V157.1H219.1V155.7Z" fill="white"/>
<path fill-rule="evenodd" clip-rule="evenodd" d="M76.3 151.6L78.9 150.1L81.5 148.6V151.6V154.6L78.9 153.1L76.3 151.6Z" fill="#E3E3E3"/>
<path fill-rule="evenodd" clip-rule="evenodd" d="M282 151.6L279.4 150.1L276.8 148.6V151.6V154.6L279.4 153.1L282 151.6Z" fill="#E3E3E3"/>
<path d="M145.6 187.5H90.7V201.7H145.6V187.5Z" fill="#2993F2"/>
<path d="M207.3 188.1H152.4V202.3H207.3V188.1Z" fill="#CCE9FF"/>
<path d="M269.3 188.3H214.4V202.5H269.3V188.3Z" fill="#00AEF0"/>
</svg>
